<?xml version="1.0" encoding="UTF-8"?>
<svg id="Layer_1" xmlns="http://www.w3.org/2000/svg" version="1.1" viewBox="0 0 256 256">
  <!-- Generator: Adobe Illustrator 30.1.0, SVG Export Plug-In . SVG Version: 2.1.1 Build 136)  -->
  <defs>
    <style>
      .st0 {
        fill: #13a9fe;
      }
    </style>
  </defs>
  <path class="st0" d="M133.97.29c-34.78-1.51-67.95,10.47-93.97,35.15l-.69-25.14C39.13,3.49,32.73-.08,26.64,0c-5.59.07-12.3,3.75-12.32,10.62l-.15,60.83c-.02,7.24,6.11,11.81,12.95,11.79l58.81-.23c7.04-.03,11.12-6.1,11.3-12.11.18-6.08-3.28-12.8-10.26-12.98l-32.59-.84c20.92-21.66,49.59-32.25,79.52-31.12,52.97,4.43,96.66,48.01,96.62,103.04,0,7.11,5.95,11.58,12.19,11.77,6.38.19,13.13-3.94,13.22-11.53C256.75,60.87,202.6,3.28,133.97.29Z"/>
  <path class="st0" d="M227.66,172.75l-58.62.43c-7.13.05-10.43,7.31-10.27,12.97.55,19.51,27.98,9.48,42.8,12.9-19.44,19.52-45.33,31.1-73.49,31.14-25.24.04-48.96-10.23-68.12-26.86-21.82-18.95-34.12-45.06-34.29-74.21-.04-7.53-4.13-13.13-11.29-13.82-6.72-.65-14.2,3.37-14.31,11.41-.94,70.92,57.03,128.93,127.91,129.09,32.1.58,62.75-11.97,87.89-33.82l.78,23.71c.23,6.89,6.56,10.41,12.8,10.32,5.5-.08,12.16-3.77,12.19-10.62l.31-58.61c.04-7.99-6.35-14.08-14.29-14.03Z"/>
</svg>