<?xml version="1.0" encoding="UTF-8"?>
<svg id="Layer_1" xmlns="http://www.w3.org/2000/svg" version="1.1" viewBox="0 0 256 256">
  <!-- Generator: Adobe Illustrator 30.1.0, SVG Export Plug-In . SVG Version: 2.1.1 Build 136)  -->
  <defs>
    <style>
      .st0 {
        fill: #0177ef;
      }

      .st1 {
        fill: #64bdfb;
      }

      .st2 {
        fill: #03c43c;
      }

      .st3 {
        fill: #fea900;
      }

      .st4 {
        fill: #fd4445;
      }

      .st5 {
        fill: #0293f9;
      }

      .st6 {
        fill: #fda68f;
      }

      .st7 {
        fill: #92cffc;
      }

      .st8 {
        fill: #f6957f;
      }

      .st9 {
        fill: #aa6a5f;
      }

      .st10 {
        fill: #4ccc5c;
      }

      .st11 {
        fill: #00a3fa;
      }

      .st12 {
        fill: #fefdfd;
      }

      .st13 {
        fill: #0166ec;
      }

      .st14 {
        fill: #fd5859;
      }

      .st15 {
        fill: #01439b;
      }
    </style>
  </defs>
  <path class="st7" d="M157.46,13.55c-.52,12.21-1.19,21.5,11.92,27.54.71.56.24,2.18.26,2.88-4.16.25-8.25,1.27-12.33,2.11-6.33,1.31-8.88,1.01-13,7.98-2.27-3.83-6.18-5.61-9.85-7.12-4.73-1.95-9.88-1.82-14.75.88-7.24,4-9.88,11.25-9.95,19.26-.08,8.85,3.72,16.98,12.54,20,.25,1.08-.03,2.09,0,2.89-4.69.13-9.17,1.64-13.81,2.23l.03-11.11c.02-6.66-4.97-11.45-11.33-12.37-5.13-.74-9.92-2.08-14.85-2.54.02-.9-.13-1.8,0-2.7,8.85-3.16,12.68-11.21,12.68-20.41s-4.11-18.22-13.48-20.38l-4.65-1.07c13.3-5.93,27.3-9.73,42.11-10.87l18.4-.25c6.2.99,9.81,1.21,16.16,2.47,1.42.28,2.65.84,3.93.59Z"/>
  <path class="st7" d="M249.92,148.52l-53.55.1c.01-3.19-.44-6.42.01-9.86,11.6,2.95,23.78-1.94,30.11-12.09,4.84-7.76,5.51-17.41,1.79-25.76s-11.35-14.31-20.35-15.89v-25.98c0-5.16-3.17-10.25-8.28-11.72-5.93-1.71-11.94-2.61-17.84-3.32.04-.94-.28-1.9-.06-2.84,5.61-2,9.8-6.48,11.61-12.09,32.87,20.6,54.32,55.56,57.35,94.64.5,6.39.19,12.44.07,18.77-.04,2.15-.66,4.21-.86,6.06Z"/>
  <path class="st7" d="M70.18,66.16c-4.14.67-8.37,1.09-12.35,2.39-7.91-.11-14.43,5.71-13.81,14.02.1,1.27-.06,2.46-.01,3.74-1.52.56-2.99,1.26-4.39,2.09-9.15,5.39-14.38,15.56-13.44,26.14.94,10.58,7.89,19.67,17.84,23.35,1.04,8.76-4.18,4.99-2.77,10.62l-34.43.02c-.19-1.85-.82-3.9-.86-6.07-.13-6.29-.41-12.42.07-18.74,2-26.24,12.64-51.72,30.08-71.41,6.47-7.3,15.64-15.92,23.74-20.78-1.93,3.67-1.86,7.81-2.08,12.02-.47,8.86,3.89,16.65,12.26,19.85.53.6.13,2.11.15,2.77Z"/>
  <path class="st7" d="M143.45,91.16l-8.99-1.17-.08-2.93c3.06-.88,6.99-3.23,9-5.95l.06,10.05Z"/>
  <g>
    <path class="st5" d="M178.9-.45l2.04,1.13c-8.22,3.99-11.55,11.34-11.5,20.37s3.57,17.21,12.32,20.1c-.22.94.1,1.91.06,2.84l-.15,3.48c-.15,3.46-2.87,5.94-6.05,5.89s-5.79-2.43-5.89-5.76l-.1-3.63c-.02-.7.45-2.32-.26-2.88-13.11-6.04-12.44-15.33-11.92-27.54,2.14-6.92,7.48-12.04,14.43-14.01h7Z"/>
    <path class="st11" d="M193.37,29.06c-1.8,5.61-5.99,10.09-11.61,12.09-8.75-2.89-12.27-11.14-12.32-20.1s3.28-16.39,11.5-20.37c1.06-.31,2.08.18,3.13.68,7.22,3.52,10.6,10.82,10.43,18.7-.07,3.35-.19,6.08-1.13,9Z"/>
    <path class="st11" d="M169.63,43.97l.1,3.63c.1,3.33,2.8,5.72,5.89,5.76s5.9-2.43,6.05-5.89l.15-3.48c5.91.71,11.92,1.61,17.84,3.32,5.11,1.47,8.28,6.56,8.29,11.72v25.98c-6.44-1.13-13.07.06-18.7,3.37-10.47,6.14-15.67,18.42-12.81,30.21-5.94,0-10.67,1.15-15.63-1.96-.7-7.13,1.46-15.13-3.62-20.61l.11-49.95c4.08-.85,8.17-1.86,12.33-2.11Z"/>
    <path class="st5" d="M176.44,118.6c2.4,9.9,10.08,17.65,19.95,20.16-.45,3.44,0,6.68-.01,9.86l-.16,50.55,9.75,1.36c2.56.36,4.31,2.41,4.18,4.79s-2.1,4.31-4.74,4.31h-19.48c-3.33,0-4.84-2.43-4.84-5.52l.05-55.53c0-4.7.35-9.42-.16-14.26-3.63-.22-6.99-.21-10.53-.02-.67,4.95-.07,9.67-.09,14.34l-.24,55.45c-.01,3.06-1.5,5.53-4.75,5.53l-16.49.02.07-9.59c2-.23,4.07-.34,6.2-.92l.13-19.3c3.22-.31,5.37-3.23,5.42-6.41.92-.53,2.3-.59,2.72-1.6.35-.85.16-2.06-.65-3.08l-2.12-2.64-.18-46.57c0-.92.43-1.93.34-2.89,4.96,3.11,9.69,1.95,15.63,1.96Z"/>
    <path class="st7" d="M181.14,148.57l-10.78.06c.02-4.68-.57-9.39.09-14.34,3.54-.18,6.89-.2,10.53.02.51,4.84.16,9.57.16,14.26Z"/>
    <path class="st5" d="M157.3,46.09l-.11,49.95c-3.15-3.39-10.24-3.57-13.74-4.87l-.06-10.05c4.59-6.18,4.54-20.93.92-27.04,4.13-6.98,6.67-6.67,13-7.98Z"/>
  </g>
  <g>
    <path class="st14" d="M207.94,85.02c9,1.59,16.63,7.54,20.35,15.89s3.05,18-1.79,25.76c0-.55-.44-.67-.89-.45-8.93,4.23-19.06,3.17-27.11-2.05,1.13-1.73,2.78-3.07,4.6-4.84,3.79,2.51,8.89,12,14.02,6.33,1.74-1.92,1.72-4.94-.29-6.98l-6.45-6.58,6.45-6.57c2.1-2.14,2.02-5.36.06-7.23-2.16-2.06-5.29-1.73-7.4.38l-6.23,6.23c-3.81-2.61-8.95-12.01-14.06-6.36-1.96,2.16-1.45,5.27.77,7.49l6.06,6.04c-1.7,1.83-3.13,3.37-4.99,4.87-5.41-8.79-6.07-19-1.8-28.55,5.63-3.31,12.26-4.5,18.69-3.37Z"/>
    <path class="st4" d="M189.25,88.39c-4.27,9.55-3.61,19.76,1.8,28.55-2.25,1.81-4.6,5.62-1.87,8.69,1.95,2.18,5.23,2.24,7.38.15.61-.59,1.09-1.14,1.95-1.61,8.05,5.22,18.18,6.28,27.11,2.05.45-.21.89-.09.89.45-6.34,10.15-18.51,15.05-30.11,12.09-9.87-2.51-17.54-10.27-19.95-20.16-2.86-11.79,2.34-24.07,12.81-30.21Z"/>
    <path class="st12" d="M198.51,124.16c-.86.47-1.34,1.02-1.95,1.61-2.14,2.09-5.43,2.04-7.38-.15-2.73-3.07-.38-6.88,1.87-8.69,1.86-1.5,3.29-3.04,4.99-4.87l-6.06-6.04c-2.22-2.21-2.73-5.32-.77-7.49,5.11-5.65,10.25,3.74,14.06,6.36l6.23-6.23c2.11-2.11,5.24-2.44,7.4-.38,1.96,1.87,2.04,5.09-.06,7.23l-6.45,6.57,6.45,6.58c2.01,2.04,2.03,5.06.29,6.98-5.13,5.67-10.23-3.82-14.02-6.33-1.82,1.77-3.47,3.11-4.6,4.84Z"/>
  </g>
  <g>
    <path class="st13" d="M61.73,138.37c1.32,1.95,3.77,2.69,6.12,2.69h28.08s.17,25.05.17,25.05l-1.88,2.38c-.67.85-1.23,1.88-1.13,2.64.17,1.42,1.5,1.61,2.69,2.28.4.9,1.07,2.76,1.07,3.79l-.06,44.26,11.01,1.57v8.7s-21.29.17-21.29.17c-3.54.03-4.83-2.62-4.83-5.83l.06-69.49c-4.07-.18-7.23-.31-10.93.09l-.1,69.85c-.01,8.04-9.17,4.57-14.36,5.49-3.11-1.27-5.34-4.16-8.25-6.06-1.26-.82-1.74-2.04-2.65-2.83l10.31-1.64v-65.78c0-3.74-3.3,2.1-8.38-.23-2-.92-3.12-2.89-3.5-5.44-.43-.91-1.99-.97-2.62-1.53-1.41-5.63,3.81-1.86,2.77-10.62,5.69,2.11,11.91,2.27,17.7.48Z"/>
    <path class="st13" d="M76.85,21.62l4.65,1.07c-.12.49-.79,1.08-1.18,1.25-7.98,3.6-10.1,11.13-10.28,19.12-.21,9.1,3.55,17.38,12.27,20.42-.13.9.03,1.8,0,2.7l-.08,3.87c-.07,3.36-3.07,5.74-6.14,5.63s-5.69-2.66-5.8-6.1l-.11-3.43c-.02-.66.38-2.16-.15-2.77-8.37-3.19-12.73-10.99-12.26-19.85.23-4.21.16-8.35,2.08-12.02,3.29-6.26,9.98-9.93,17-9.91Z"/>
    <path class="st0" d="M70.18,66.16l.11,3.43c.11,3.44,2.62,5.98,5.8,6.1s6.07-2.27,6.14-5.63l.08-3.87c4.93.46,9.72,1.8,14.85,2.54,6.36.92,11.35,5.71,11.33,12.37l-.03,11.11c-6.85.87-12.34,5.6-12.34,12.94v14.41s-.2,21.51-.2,21.51h-28.08c-2.36-.01-4.81-.76-6.12-2.7,6.69-2.07,12.33-6.62,15.78-12.71,4.45-7.86,4.77-17.4.83-25.53s-11.61-13.81-20.53-15.2l.02-16.37c3.98-1.31,8.21-1.72,12.35-2.39Z"/>
    <path class="st0" d="M82.3,63.48c-8.72-3.04-12.47-11.32-12.27-20.42.18-7.99,2.3-15.52,10.28-19.12.39-.18,1.06-.77,1.18-1.25,9.38,2.16,13.49,10.99,13.48,20.38s-3.84,17.25-12.68,20.41Z"/>
    <path class="st13" d="M57.83,68.55l-.02,16.37c-4.64-.72-9.39-.24-13.8,1.39-.04-1.28.11-2.47.01-3.74-.62-8.31,5.9-14.13,13.81-14.02Z"/>
  </g>
  <g>
    <path class="st1" d="M181.14,148.57l-.05,55.53c0,3.1,1.51,5.52,4.84,5.52h19.48c2.64,0,4.61-1.94,4.74-4.31s-1.62-4.43-4.18-4.79l-9.75-1.36.16-50.55,53.55-.1c-2.64,24.1-13.23,46.9-29.24,65.35s-36.04,30.6-58.25,37.2c-.24-1.9-2.07-4.09-3.96-4.37l-9.59-1.41v-35.66l16.49-.02c3.25,0,4.74-2.48,4.75-5.53l.24-55.45,10.78-.06Z"/>
    <path class="st1" d="M41.26,148.51c.63.56,2.19.62,2.62,1.53.38,2.55,1.5,4.52,3.5,5.44,5.08,2.33,8.39-3.52,8.39.23v65.78s-10.32,1.64-10.32,1.64c-20.91-18.05-35.74-47.11-38.62-74.6l34.43-.02Z"/>
    <path class="st1" d="M107.8,231.73l.03,13.47-9.97,1.62c-1.63.27-3.39,2.67-3.54,4.25-13.51-4.3-27-10.14-37.97-19.06,5.19-.91,14.35,2.55,14.36-5.49l.1-69.85c3.7-.4,6.86-.27,10.93-.09l-.06,69.49c0,3.21,1.29,5.86,4.83,5.83l21.3-.17Z"/>
    <path class="st1" d="M133.87,183.46l.12,60.06c0,5.34-1.37,9.65,2.9,12.02h-17.01c4.27-2.41,2.89-6.65,2.9-12.02l.12-60.06c3.62.74,7.36.74,10.98,0Z"/>
    <path class="st1" d="M107.79,223.03l-11.01-1.57.06-44.26c1.62,1.56,3.37,2.75,5.76,2.59s4-1.64,5.21-3.71l-.02,46.95Z"/>
    <path class="st1" d="M155.28,179.82l-.13,19.3c-2.13.58-4.2.7-6.2.92l-.02-23.97c1.32,2.38,3.59,4.01,6.35,3.75Z"/>
  </g>
  <g>
    <path class="st13" d="M148.88,245.3l9.59,1.41c1.89.28,3.72,2.47,3.96,4.37.21,1.64-1.91,4.45-3.52,4.45l-22.03.02c-4.27-2.37-2.89-6.68-2.9-12.02l14.9,1.77Z"/>
    <path class="st15" d="M122.77,243.52c0,5.37,1.37,9.61-2.9,12.03l-22.02-.03c-1.67,0-3.68-2.79-3.53-4.45s1.91-3.98,3.54-4.25l9.97-1.62,14.94-1.68Z"/>
    <path class="st3" d="M148.93,176.08l.02,23.97-.07,9.59v35.66l-14.9-1.77-.12-60.06c5.69-1.16,10.86-4.09,14.79-8.37.24.39.15.75.28.98Z"/>
    <path class="st3" d="M122.88,183.46l-.12,60.06-14.94,1.68-.03-13.47v-8.7s.01-46.95.01-46.95c0-.29.14-.59.28-.99,3.92,4.28,9.1,7.21,14.79,8.37Z"/>
    <g>
      <path class="st8" d="M108.16,137.87c-6.26,6.79-8.69,16.26-6.48,25.23-2.42.12-4.34,1.46-5.57,3.02l-.17-25.04.18-21.51,11.74.02.31,18.29Z"/>
      <path class="st6" d="M101.67,163.09c1.1,4.47,3.31,8.6,6.42,11.99-.14.41-.28.7-.28.99-1.21,2.07-2.9,3.55-5.21,3.71s-4.14-1.03-5.76-2.59c0-1.03-.67-2.89-1.07-3.79-1.19-.67-2.51-.86-2.69-2.28-.09-.77.46-1.79,1.13-2.64l1.88-2.38c1.23-1.56,3.16-2.9,5.57-3.02Z"/>
      <path class="st9" d="M122.28,89.98l.11,3.13c.12,3.33,2.25,5.9,5.37,6.25s6.07-1.87,6.51-5.28c.19-1.47.22-2.82.19-4.08l8.99,1.17c3.51,1.3,10.59,1.48,13.74,4.87,5.08,5.47,2.92,13.48,3.62,20.61.09.96-.34,1.97-.34,2.89l-11.56.04-.23,18.39c-8.63-9.44-22.62-11.69-33.77-5.43-2.52,1.41-4.8,3.21-6.75,5.34l-.31-18.29-11.74-.02v-14.41c.02-7.34,5.51-12.07,12.36-12.94,4.64-.59,9.13-2.09,13.81-2.23Z"/>
      <path class="st6" d="M134.45,46.95c3.67,1.51,7.58,3.3,9.85,7.12,3.62,6.11,3.67,20.86-.92,27.04-2.02,2.72-5.94,5.07-9,5.95-6.96-2.18-11.96-8.92-11.98-16.43l-.02-7.11c-.02-7.58,5-14.63,12.08-16.58Z"/>
      <path class="st8" d="M134.45,46.95c-7.08,1.95-12.1,9-12.08,16.58l.02,7.11c.02,7.5,5.02,14.24,11.98,16.43l.08,2.93c.04,1.26,0,2.61-.19,4.08-.44,3.4-3.46,5.62-6.51,5.28s-5.25-2.91-5.37-6.25l-.11-3.13c-.03-.8.26-1.81,0-2.89-8.82-3.02-12.62-11.15-12.54-20,.07-8.01,2.71-15.27,9.95-19.26,4.88-2.69,10.02-2.82,14.75-.88Z"/>
      <path class="st8" d="M160.47,119.53l.18,46.57c-1.26-1.56-3.21-2.85-5.58-2.99,2.21-8.93-.19-18.37-6.39-25.16l.23-18.39,11.56-.04Z"/>
      <path class="st6" d="M160.65,166.11l2.12,2.64c.82,1.01,1,2.22.65,3.08-.41,1.01-1.8,1.07-2.72,1.6-.05,3.17-2.2,6.1-5.42,6.41-2.77.27-5.03-1.37-6.35-3.75-.13-.24-.03-.59-.28-.98,1.26-1.37,2.37-2.87,3.33-4.47,1.4-2.34,2.44-4.87,3.09-7.51,2.36.14,4.32,1.42,5.58,2.99Z"/>
    </g>
    <g>
      <path class="st2" d="M112.37,152.15c-1.34.57-2.29,2.55-2.67,3.67-.55,1.61.26,3.7,1.5,4.95l9,9.01c1.96,1.96,4.58,2.28,7.18.81,7.46,3.52,16.2,3.57,23.81-.13.34-.43.81-.51.78.17-.96,1.6-2.07,3.1-3.33,4.47-3.92,4.28-9.1,7.21-14.79,8.37-3.62.74-7.36.74-10.98,0-5.69-1.16-10.87-4.09-14.79-8.37-3.11-3.4-5.32-7.52-6.42-11.99-2.21-8.96.22-18.44,6.48-25.23,1.96-2.12,4.24-3.92,6.75-5.34-3.17,6.08-4.03,12.97-2.54,19.62Z"/>
      <path class="st10" d="M148.68,137.96c6.2,6.79,8.6,16.23,6.39,25.16-.65,2.64-1.7,5.17-3.09,7.51.03-.68-.44-.6-.78-.17-7.61,3.7-16.35,3.65-23.81.13l17.83-18.11c2.09-2.12,1.81-5.26,0-7.04-2.11-2.06-5.22-1.86-7.29.22l-13.68,13.69c-3.07-1.81-7.09-9.22-11.86-7.19-1.49-6.65-.63-13.54,2.54-19.62,11.15-6.26,25.15-4.01,33.77,5.43Z"/>
      <path class="st12" d="M127.39,170.59c-2.6,1.47-5.22,1.16-7.18-.81l-9-9.01c-1.24-1.24-2.05-3.34-1.5-4.95.38-1.11,1.33-3.1,2.67-3.67,4.77-2.03,8.79,5.38,11.86,7.19l13.68-13.69c2.07-2.07,5.19-2.28,7.29-.22,1.82,1.78,2.1,4.92,0,7.04l-17.83,18.11Z"/>
    </g>
  </g>
  <g>
    <path class="st4" d="M39.63,88.4c-4.23,9.56-3.58,19.79,1.86,28.53-2.34,1.9-4.61,5.66-1.87,8.71,1.95,2.16,5.25,2.23,7.37.11.6-.6,1.08-1.14,1.96-1.6,8.56,5.63,19.37,6.24,28.57,1.51-3.45,6.09-9.1,10.64-15.78,12.71-5.79,1.8-12.01,1.63-17.7-.48-9.96-3.69-16.9-12.78-17.84-23.35-.94-10.58,4.29-20.75,13.44-26.14Z"/>
    <path class="st14" d="M57.81,84.92c8.93,1.39,16.6,7.07,20.53,15.2s3.62,17.68-.83,25.53c-9.2,4.73-20.01,4.12-28.57-1.51,1.1-1.74,2.76-3.08,4.58-4.83,3.79,2.53,8.92,12.02,14.03,6.32,1.71-1.91,1.7-4.94-.3-6.96l-6.52-6.58,6.74-6.86c1.89-1.93,1.69-4.9.1-6.69-1.83-2.05-4.98-2.26-7.1-.36-2.44,2.19-4.36,4.64-6.97,6.7l-6.5-6.46c-2.02-2.01-5.12-2.08-7.14-.14-1.83,1.75-2.16,4.91-.14,6.96l6.73,6.84c-1.67,1.78-3.13,3.35-4.96,4.84-5.44-8.75-6.08-18.98-1.86-28.53,1.4-.82,2.87-1.52,4.39-2.09,4.4-1.63,9.15-2.11,13.8-1.39Z"/>
    <path class="st12" d="M48.94,124.15c-.87.45-1.36,1-1.96,1.6-2.11,2.12-5.42,2.06-7.37-.11-2.74-3.05-.47-6.81,1.87-8.71,1.84-1.49,3.29-3.07,4.96-4.84l-6.73-6.84c-2.01-2.04-1.68-5.2.14-6.96,2.02-1.94,5.11-1.87,7.14.14l6.5,6.46c2.6-2.06,4.53-4.51,6.97-6.7,2.12-1.9,5.27-1.69,7.1.36,1.6,1.79,1.79,4.76-.1,6.69l-6.74,6.86,6.52,6.58c2,2.02,2.02,5.05.3,6.96-5.11,5.7-10.25-3.79-14.03-6.32-1.82,1.75-3.48,3.09-4.58,4.83Z"/>
  </g>
</svg>