<?xml version="1.0" encoding="UTF-8"?>
<svg id="Objects" xmlns="http://www.w3.org/2000/svg" version="1.1" viewBox="0 0 256 256">
  <!-- Generator: Adobe Illustrator 30.1.0, SVG Export Plug-In . SVG Version: 2.1.1 Build 136)  -->
  <defs>
    <style>
      .st0 {
        fill: #fff;
      }

      .st1 {
        fill: #48c62e;
      }
    </style>
  </defs>
  <circle class="st1" cx="128" cy="128" r="128"/>
  <path class="st0" d="M191.91,112.54h-49.75v-49.1c0-4.09-3.32-7.41-7.41-7.41h-16.1c-4.09,0-7.41,3.32-7.41,7.41v49.1h-48.46c-4.09,0-7.41,3.32-7.41,7.41v16.1c0,4.09,3.32,7.41,7.41,7.41h48.46v49.1c0,4.09,3.32,7.41,7.41,7.41h16.1c4.09,0,7.41-3.32,7.41-7.41v-49.1h49.75c4.09,0,7.41-3.32,7.41-7.41v-16.1c0-4.09-3.32-7.41-7.41-7.41Z"/>
</svg>