<?xml version="1.0" encoding="UTF-8"?>
<svg id="Layer_1" xmlns="http://www.w3.org/2000/svg" version="1.1" viewBox="0 0 256 256">
  <!-- Generator: Adobe Illustrator 30.1.0, SVG Export Plug-In . SVG Version: 2.1.1 Build 136)  -->
  <defs>
    <style>
      .st0 {
        fill: #d2dbfa;
      }

      .st1 {
        fill: #2c448d;
      }

      .st2 {
        fill: #e9f4fb;
      }

      .st3 {
        fill: #e70054;
      }

      .st4 {
        fill: #4fabf6;
      }

      .st5 {
        fill: #fe4155;
      }
    </style>
  </defs>
  <path class="st4" d="M218.44,138.06c4.3,2.67,8.8,6.5,11.98,9.98,17.09,18.72,22.06,44.89,12.19,68.73-8.79,21.21-28.64,36.07-52.1,39.23h-14c-24.99-3.41-44.89-19.14-53.5-42.46-1.64-5.8-3.11-11.4-3.46-17.12-1.2-19.78,6.34-37.64,19.95-51.23,1.7-1.69,3.97-3.59,5.62-4.74,22.49-15.7,50.28-16.67,73.32-2.38ZM179.51,238.81c17.69,1.52,34.72-7.06,44.03-22.17s9.3-34.19-.02-49.3c-9.32-15.11-26.36-23.68-44.05-22.14-24.29,2.11-42.93,22.44-42.92,46.82s18.66,44.7,42.95,46.79Z"/>
  <path class="st0" d="M73.5,0c4.06,1.7,7.32,4.74,7.58,9.49.13,2.38.85,4.8.42,7.01-.88,4.54-.16,9.27-.29,13.9-.07,2.41-.2,5.58-1.72,7.62-3.51,4.72-10.55,6.55-14.89,2.59,2.86-1.67,4.59-5.01,4.59-8.61V10.5c0-3.57-1.84-6.74-4.58-8.52.48-1.32,2.03-1.09,2.89-1.98h6Z"/>
  <path class="st0" d="M171.5,0c8.01,3.44,8.42,8.93,7.96,17-.25,4.46-.09,8.92-.04,13.38.03,2.5-.42,5.43-1.85,7.52-3.33,4.9-10.37,6.56-14.96,2.79,2.91-1.6,4.72-5.09,4.72-8.7l-.02-21.95c0-3.57-2.23-6.01-4.4-8.35.85-.49,1.59-1.33,2.58-1.69h6Z"/>
  <path class="st2" d="M218.58,76.87l-.14,61.19c-23.04-14.29-50.83-13.31-73.32,2.38l-.05-8.47c-.01-2.25-1.81-3.93-4.04-3.94l-9.07-.06c-2.32.25-3.95,2.17-3.95,4.51v8.04c0,2.61,1.85,4.57,4.47,4.6l7.03.07c-13.61,13.59-21.15,31.44-19.95,51.23l-93.49-.12c-9.04-.01-15.43-5.96-17.55-14.29l.09-105.12h209.98ZM38.76,111.05c2.54-.27,4.03-2.25,4.01-4.57-.04-5.35,1.3-12.42-3.96-12.63-3.08-.12-6.05-.1-9.12-.02-2.31.06-4.08,1.85-4.08,4.14l-.02,8.56c0,2.57,1.79,4.5,4.39,4.51l8.78.03ZM179.26,106.93c.11-3.04.07-5.88.01-8.92-.04-2.26-1.7-4.07-3.97-4.16-3.07-.11-6.05-.11-9.11-.02-2.31.07-4.06,1.86-4.07,4.13l-.02,8.58c0,2.22,1.5,4.37,3.85,4.44,6,.19,13.1,1.29,13.29-4.06ZM76.9,106.54c-.08-6.22,1.4-12.62-4.37-12.65l-8.54-.05c-2.44-.01-4.25,1.79-4.25,4.16l-.02,8.54c0,2.15,1.46,4.33,3.75,4.43,6.15.27,13.51,1.31,13.44-4.44ZM106.8,111.02c2.66,0,4.22-2.15,4.22-4.49l-.02-8.56c0-2.52-1.97-4.09-4.45-4.1l-8.56-.03c-2.36,0-4.09,1.81-4.1,4.11l-.02,8.56c0,2.43,1.62,4.47,4.12,4.48l8.81.02ZM140.8,111.04c2.76,0,4.33-2.08,4.32-4.52l-.03-8.54c0-2.38-1.69-4.07-4.08-4.08l-9.03-.02c-2.29,0-3.98,1.85-3.98,4.08l-.02,8.56c0,2.64,1.84,4.51,4.49,4.51h8.32ZM209.25,111.01c2.6,0,4.19-2.17,4.18-4.48l-.02-8.5c0-2.5-1.9-4.14-4.38-4.15l-8.55-.03c-2.41,0-4.19,1.73-4.2,4.12l-.02,8.55c0,2.49,1.68,4.49,4.22,4.49h8.77ZM38.79,145.1c2.42,0,3.9-2.07,3.95-4.18.14-5.88,1.27-12.91-4.2-12.9h-9.07c-2.18.01-3.85,1.86-3.85,3.99v9.02c0,2.45,1.94,4.11,4.36,4.1l8.81-.02ZM72.81,145.11c2.41,0,4.01-1.96,4.06-4.12.15-6.26,1.29-12.99-4.33-12.99h-8.58c-2.33-.01-4.21,1.66-4.21,4.01v8.99c0,2.38,1.85,4.12,4.22,4.12h8.84ZM107.3,145.13c2.23-.35,3.67-2.04,3.67-4.11v-9.04c0-2.22-1.73-3.93-3.95-3.94l-9.06-.04c-2.24,0-4.06,1.72-4.06,3.97v9.06c0,2.32,1.79,4.04,4.07,4.05l9.33.05ZM38.7,179.41c2.46-.42,4.01-2.1,4.04-4.42.07-5.64,1.32-12.88-4.22-12.9l-8.54-.03c-2.58,0-4.39,1.9-4.4,4.42l-.02,8.05c0,2.73,1.7,4.82,4.49,4.83l8.65.05ZM76.88,175.03l.02-8.55c0-2.54-1.84-4.41-4.38-4.41h-8.54c-2.51-.01-4.27,1.95-4.27,4.4v8.52c.02,2.44,1.84,4.2,4.32,4.33,5.08.26,12.85,1.32,12.86-4.29ZM111,175.04v-8.58c.02-2.6-1.89-4.41-4.49-4.4h-8.53c-2.46,0-4.12,2.01-4.11,4.42v8.56c.02,2.33,1.78,4.16,4.18,4.28,5.15.26,12.95,1.33,12.96-4.28Z"/>
  <path class="st5" d="M157.46,17.06c.53,4.29.5,8.67.32,13.05-3.6.84-12.42-1.88-12.28,4.12.04,2,1.63,3.76,3.98,3.76l10.03.02c.62,1.17,2.17,1.92,3.11,2.69,4.59,3.76,11.63,2.1,14.96-2.79,4.26-.41,14.57,2.24,13.96-4.16-.49-5.15-8.03-3.14-12.12-3.37-.05-4.46-.22-8.93.04-13.38h24.54c8.36,1.94,14.59,8.45,14.56,17.5l-.08,21.36-209.89.02-.03-24.69c1.65-7.47,6.66-12.48,14.15-14.15l36.84-.05c.26,4.46.22,8.94.05,13.4-2.91-.16-5.95-.29-9.09.02-2.21.22-3.34,2.37-3.1,4.3s1.87,3.28,4.07,3.29l8.54.02c.57,0,.99-.21.99-.61.65,1.57,2.54,2.24,3.58,3.19,4.33,3.96,11.38,2.13,14.89-2.59l10.03-.04c2.3,0,3.87-1.77,3.91-3.76.11-5.7-8.17-3.66-12.21-3.83.13-4.64-.59-9.36.29-13.9-.05.2.14.49.59.49l75.37.08Z"/>
  <polygon class="st5" points="218.58 76.87 8.59 76.88 8.58 63.59 218.47 63.58 218.58 76.87"/>
  <path class="st3" d="M230.5,76.5c-.18.12-.35.26-.5.42l-11.42-.05-.1-13.29H8.58s0-7.69,0-7.69l209.89-.02.08-21.36c.03-9.05-6.2-15.57-14.56-17.5,3.99,0,8.26-.38,12.28.27,7.53,1.22,12.37,6.62,14.15,13.96l.06,45.27Z"/>
  <path class="st0" d="M119.55,196.41c.35,5.73,1.82,11.32,3.46,17.12l-97.98-.1c-8.55,0-15.09-6.88-16.58-14.83l.06-16.6c2.12,8.33,8.51,14.28,17.55,14.29l93.49.12Z"/>
  <path class="st2" d="M64.61,1.98c2.74,1.77,4.57,4.94,4.57,8.52v21.5c0,3.59-1.73,6.94-4.58,8.61-1.04-.95-2.93-1.61-3.58-3.19-.91-2.19-1.51-4.63-1.42-7.02.17-4.47.21-8.95-.05-13.4s-.48-13.18,5.06-15.02Z"/>
  <path class="st0" d="M230,76.92c.17,0,.33.07.5.08l-.08,71.05c-3.18-3.49-7.68-7.32-11.98-9.98l.14-61.19,11.42.05Z"/>
  <path class="st5" d="M230.5,77c-.17,0-.33-.08-.5-.08.15-.16.32-.3.5-.42v.5Z"/>
  <path class="st2" d="M179.47,145.19c0,.26.24.57.63.64,22.64,4.16,38.78,24.09,38.45,46.8-.33,22.99-16.73,41.3-39.05,46.17-24.29-2.09-42.94-22.41-42.95-46.79s18.63-44.71,42.92-46.82ZM179.62,184.09c-3.05,2.23-5.2,5.29-4.58,9.17.56,3.55,3.3,6.46,6.83,7.11s7.35-1.09,9.54-4.52l13.11.02c2.34,0,3.99-1.6,4.1-3.63.13-2.3-1.59-4.12-4.1-4.11l-13.11.02c-1.02-1.05-2.4-3.22-4.05-4.04v-21.62c0-2.5-1.79-4.3-4.11-4.19-2.06.1-3.66,1.85-3.66,4.19l.03,21.6Z"/>
  <path class="st0" d="M179.51,238.81c22.31-4.87,38.71-23.18,39.05-46.17.33-22.71-15.82-42.64-38.45-46.8-.39-.07-.62-.38-.63-.64,17.69-1.54,34.73,7.03,44.05,22.14,9.32,15.11,9.33,34.18.02,49.3s-26.35,23.7-44.03,22.17Z"/>
  <path class="st1" d="M145.12,140.45c-1.65,1.15-3.93,3.05-5.62,4.74l-7.03-.07c-2.62-.03-4.47-1.99-4.47-4.6v-8.04c0-2.34,1.64-4.26,3.96-4.51l9.07.06c2.23.02,4.03,1.7,4.04,3.94l.05,8.47Z"/>
  <path class="st2" d="M162.62,40.7c-.94-.77-2.49-1.52-3.11-2.69-1.28-2.42-1.83-5.18-1.73-7.9.17-4.38.21-8.76-.32-13.05-.46-3.75.14-7.99,1.49-11.46.84-2.16,2.38-3,3.97-3.91,2.18,2.34,4.4,4.78,4.4,8.35l.02,21.95c0,3.62-1.8,7.1-4.72,8.7Z"/>
  <path class="st3" d="M79.49,38.02c1.51-2.04,1.65-5.21,1.72-7.62,4.05.16,12.33-1.88,12.21,3.83-.04,1.98-1.6,3.75-3.91,3.76l-10.03.04Z"/>
  <path class="st3" d="M177.58,37.91c1.42-2.1,1.87-5.02,1.85-7.52,4.09.22,11.63-1.78,12.12,3.37.6,6.4-9.71,3.75-13.96,4.16Z"/>
  <path class="st1" d="M76.88,175.03c-.01,5.61-7.77,4.55-12.86,4.29-2.48-.13-4.3-1.89-4.3-4.33v-8.52c-.02-2.45,1.75-4.41,4.25-4.41h8.54c2.55.01,4.39,1.88,4.38,4.42l-.02,8.55Z"/>
  <path class="st1" d="M38.7,179.41l-8.65-.05c-2.79-.02-4.5-2.1-4.49-4.83l.02-8.05c0-2.53,1.82-4.43,4.4-4.42l8.54.03c5.54.02,4.3,7.26,4.22,12.9-.03,2.32-1.58,4-4.04,4.42Z"/>
  <path class="st1" d="M179.26,106.93c-.19,5.35-7.29,4.25-13.29,4.06-2.35-.07-3.86-2.22-3.85-4.44l.02-8.58c0-2.27,1.76-4.06,4.07-4.13,3.06-.1,6.04-.1,9.11.02,2.27.08,3.92,1.9,3.97,4.16.06,3.04.09,5.89-.01,8.92Z"/>
  <path class="st1" d="M38.76,111.05l-8.78-.03c-2.6,0-4.4-1.94-4.39-4.51l.02-8.56c0-2.29,1.77-4.07,4.08-4.14,3.07-.08,6.04-.1,9.12.02,5.26.21,3.92,7.28,3.96,12.63.02,2.32-1.47,4.3-4.01,4.57Z"/>
  <path class="st1" d="M72.81,145.11h-8.84c-2.38,0-4.23-1.74-4.23-4.11v-8.99c0-2.35,1.88-4.02,4.22-4.01h8.58c5.62.01,4.48,6.74,4.33,13-.05,2.15-1.64,4.11-4.06,4.12Z"/>
  <path class="st1" d="M76.9,106.54c.07,5.75-7.3,4.71-13.44,4.44-2.29-.1-3.76-2.28-3.75-4.43l.02-8.54c0-2.37,1.81-4.17,4.25-4.16l8.54.05c5.78.03,4.3,6.42,4.37,12.65Z"/>
  <path class="st1" d="M38.79,145.1l-8.81.02c-2.42,0-4.37-1.65-4.36-4.1v-9.02c0-2.14,1.67-3.98,3.85-3.98h9.07c5.47-.01,4.34,7.02,4.2,12.89-.05,2.11-1.53,4.18-3.95,4.18Z"/>
  <path class="st1" d="M111,175.04c0,5.61-7.81,4.53-12.96,4.28-2.39-.12-4.16-1.95-4.16-4.28v-8.56c-.02-2.4,1.64-4.41,4.1-4.41h8.53c2.59,0,4.51,1.8,4.5,4.4v8.58Z"/>
  <path class="st1" d="M140.8,111.04h-8.32c-2.65-.01-4.5-1.88-4.49-4.52l.02-8.56c0-2.23,1.69-4.09,3.98-4.08l9.03.02c2.39,0,4.07,1.7,4.08,4.08l.03,8.54c0,2.44-1.56,4.52-4.32,4.52Z"/>
  <path class="st1" d="M106.8,111.02l-8.81-.02c-2.51,0-4.13-2.05-4.12-4.48l.02-8.56c0-2.3,1.74-4.12,4.1-4.11l8.56.03c2.48,0,4.44,1.58,4.45,4.1l.02,8.56c0,2.33-1.55,4.49-4.22,4.49Z"/>
  <path class="st1" d="M107.3,145.13l-9.33-.05c-2.28-.01-4.08-1.74-4.08-4.05v-9.06c0-2.25,1.83-3.98,4.07-3.97l9.06.04c2.21,0,3.94,1.72,3.94,3.94v9.04c0,2.07-1.44,3.76-3.67,4.11Z"/>
  <path class="st1" d="M209.25,111.01h-8.77c-2.54,0-4.23-2-4.22-4.49l.02-8.55c0-2.39,1.79-4.12,4.2-4.12l8.55.03c2.48,0,4.38,1.65,4.38,4.15l.02,8.5c0,2.3-1.58,4.48-4.18,4.48Z"/>
  <path class="st3" d="M157.79,30.11c-.11,2.72.44,5.48,1.73,7.9l-10.03-.02c-2.35,0-3.93-1.77-3.98-3.76-.13-6,8.68-3.27,12.28-4.12Z"/>
  <path class="st3" d="M59.6,30.4c-.09,2.39.51,4.83,1.42,7.02,0,.4-.42.61-.99.61l-8.54-.02c-2.21,0-3.85-1.45-4.07-3.29s.89-4.08,3.1-4.3c3.15-.31,6.18-.18,9.09-.02Z"/>
  <path class="st1" d="M187.35,184.11c-2.21-1.11-5.18-.48-7.73-.02l-.03-21.6c0-2.34,1.6-4.09,3.66-4.19,2.32-.11,4.11,1.69,4.11,4.19v21.62Z"/>
  <path class="st1" d="M191.4,195.85c1.2-1.87.44-5.39,0-7.7l13.11-.02c2.51,0,4.23,1.82,4.1,4.11-.11,2.03-1.76,3.64-4.1,3.63l-13.11-.02Z"/>
</svg>