<?xml version="1.0" encoding="UTF-8"?>
<svg id="Layer_1" xmlns="http://www.w3.org/2000/svg" version="1.1" viewBox="0 0 256 256">
  <!-- Generator: Adobe Illustrator 30.1.0, SVG Export Plug-In . SVG Version: 2.1.1 Build 136)  -->
  <defs>
    <style>
      .st0 {
        fill: #ff8080;
      }

      .st1 {
        fill: #324d5b;
      }

      .st2 {
        fill: #72d6c3;
      }

      .st3 {
        fill: #ccd0d2;
      }

      .st4 {
        fill: #ffd576;
      }
    </style>
  </defs>
  <path class="st0" d="M141.4,59.38c0,1.01-.06,2.01-.17,2.99-5.97,4.94-15.49,8.14-26.23,8.14s-20.43-3.26-26.39-8.28c-.1-.94-.15-1.89-.15-2.85,0-14.62,11.85-26.47,26.47-26.47s26.47,11.85,26.47,26.47Z"/>
  <g>
    <circle class="st0" cx="114.93" cy="11.42" r="11.42"/>
    <path class="st0" d="M141.4,59.38c0,1.01-.06,2.01-.17,2.99-5.97,4.94-15.49,8.14-26.23,8.14s-20.43-3.26-26.39-8.28c-.1-.94-.15-1.89-.15-2.85,0-14.62,11.85-26.47,26.47-26.47s26.47,11.85,26.47,26.47Z"/>
  </g>
  <g>
    <circle class="st2" cx="114.93" cy="104.16" r="11.42"/>
    <path class="st2" d="M141.4,152.12c0,1.01-.06,2.01-.17,2.99-5.97,4.94-15.49,8.14-26.23,8.14s-20.43-3.26-26.39-8.28c-.1-.94-.15-1.89-.15-2.85,0-14.62,11.85-26.47,26.47-26.47s26.47,11.85,26.47,26.47Z"/>
  </g>
  <g>
    <path class="st3" d="M24.96,60.19C11.2,60.19,0,49,0,35.23S11.2,10.28,24.96,10.28c2.21,0,4,1.79,4,4s-1.79,4-4,4c-9.35,0-16.96,7.61-16.96,16.96s7.61,16.96,16.96,16.96,16.96-7.61,16.96-16.96c0-2.21,1.79-4,4-4s4,1.79,4,4c0,13.76-11.2,24.96-24.96,24.96Z"/>
    <path class="st1" d="M24.96,41.66c-.99,0-1.98-.37-2.76-1.1l-7.5-7.14c-1.6-1.52-1.66-4.06-.14-5.65,1.52-1.6,4.06-1.66,5.65-.14l4.7,4.47,22.55-22.22c1.57-1.55,4.11-1.53,5.66.04,1.55,1.57,1.53,4.11-.04,5.66l-25.31,24.94c-.78.77-1.79,1.15-2.81,1.15Z"/>
    <path class="st3" d="M24.96,152.94c-13.76,0-24.96-11.2-24.96-24.96s11.2-24.96,24.96-24.96c2.21,0,4,1.79,4,4s-1.79,4-4,4c-9.35,0-16.96,7.61-16.96,16.96s7.61,16.96,16.96,16.96,16.96-7.61,16.96-16.96c0-2.21,1.79-4,4-4s4,1.79,4,4c0,13.76-11.2,24.96-24.96,24.96Z"/>
    <path class="st1" d="M24.96,134.4c-.99,0-1.98-.37-2.76-1.1l-7.5-7.14c-1.6-1.52-1.66-4.06-.14-5.65,1.52-1.6,4.06-1.66,5.65-.14l4.7,4.47,22.55-22.22c1.57-1.55,4.11-1.53,5.66.04,1.55,1.57,1.53,4.11-.04,5.66l-25.31,24.94c-.78.77-1.79,1.15-2.81,1.15Z"/>
    <path class="st3" d="M24.96,245.68c-13.76,0-24.96-11.2-24.96-24.96s11.2-24.96,24.96-24.96c2.21,0,4,1.79,4,4s-1.79,4-4,4c-9.35,0-16.96,7.61-16.96,16.96s7.61,16.96,16.96,16.96,16.96-7.61,16.96-16.96c0-2.21,1.79-4,4-4s4,1.79,4,4c0,13.76-11.2,24.96-24.96,24.96Z"/>
    <path class="st1" d="M24.96,227.15c-.99,0-1.98-.37-2.76-1.1l-7.5-7.14c-1.6-1.52-1.66-4.06-.14-5.65,1.52-1.6,4.06-1.66,5.65-.14l4.7,4.47,22.55-22.22c1.57-1.55,4.11-1.53,5.66.04,1.55,1.57,1.53,4.11-.04,5.66l-25.31,24.94c-.78.77-1.79,1.15-2.81,1.15Z"/>
  </g>
  <g>
    <circle class="st4" cx="114.93" cy="196.91" r="11.42"/>
    <path class="st4" d="M141.4,244.87c0,1.01-.06,2.01-.17,2.99-5.97,4.94-15.49,8.14-26.23,8.14s-20.43-3.26-26.39-8.28c-.1-.94-.15-1.89-.15-2.85,0-14.62,11.85-26.47,26.47-26.47s26.47,11.85,26.47,26.47Z"/>
  </g>
  <g>
    <path class="st3" d="M233.79,45.31h-49.47c-2.21,0-4-1.79-4-4s1.79-4,4-4h49.47c2.21,0,4,1.79,4,4s-1.79,4-4,4Z"/>
    <path class="st3" d="M252,62.12h-67.69c-2.21,0-4-1.79-4-4s1.79-4,4-4h67.69c2.21,0,4,1.79,4,4s-1.79,4-4,4Z"/>
    <path class="st3" d="M233.79,138.05h-49.47c-2.21,0-4-1.79-4-4s1.79-4,4-4h49.47c2.21,0,4,1.79,4,4s-1.79,4-4,4Z"/>
    <path class="st3" d="M252,154.87h-67.69c-2.21,0-4-1.79-4-4s1.79-4,4-4h67.69c2.21,0,4,1.79,4,4s-1.79,4-4,4Z"/>
    <path class="st3" d="M233.79,230.8h-49.47c-2.21,0-4-1.79-4-4s1.79-4,4-4h49.47c2.21,0,4,1.79,4,4s-1.79,4-4,4Z"/>
    <path class="st3" d="M252,247.61h-67.69c-2.21,0-4-1.79-4-4s1.79-4,4-4h67.69c2.21,0,4,1.79,4,4s-1.79,4-4,4Z"/>
  </g>
</svg>