<?xml version="1.0" encoding="UTF-8"?>
<svg id="Layer_1" xmlns="http://www.w3.org/2000/svg" version="1.1" viewBox="0 0 256 256">
  <!-- Generator: Adobe Illustrator 30.1.0, SVG Export Plug-In . SVG Version: 2.1.1 Build 136)  -->
  <defs>
    <style>
      .st0 {
        fill: #63b3f4;
      }

      .st1 {
        fill: #020202;
      }

      .st2 {
        fill: #44bd63;
      }

      .st3 {
        fill: #d1dbe4;
      }

      .st4 {
        fill: #fda732;
      }

      .st5 {
        fill: #bcc5cd;
      }
    </style>
  </defs>
  <g>
    <path class="st1" d="M152.4-.28c26.71,0,47.11,24.65,48.16,51.85,10.14,2.4,18.68,7.68,25.69,15.18,17.81,19.07,18.31,48.74,1,68.34-1.69,1.92-3,3.79-5.28,5.16-4.89,4.78-11,7.67-17.57,10.13v20.9c13.8,1.91,25.5,10.5,31.85,22.91,11.14,21.73,1.26,48.24-20.7,57.91-21.97,9.68-47.87-.78-56.72-23.41-1.6-.15-8.65.76-9.98.78l-14.87.16-.19,13.7c-.07,4.82-5.23,11.12-10.93,11.12l-95.85-.03c-5.68,0-10.91-6.46-10.91-11.84l.03-76.37c0-5.85,6.08-10.21,11.29-10.43,6.09-.25,11.55-.22,17.39.02,7.59.3,11.41,7.86,18.38,13.57,5.09,4.15,2.64,4.56,10.26,4.23l-.02-23.19c-8.48-3-15.56-7.43-21.46-13.66-18.55-19.63-18.84-50.22-.36-69.98,3.77-4.03,7.9-7.42,12.8-10.13-1.11-17.19,11.28-31.74,28.17-34.31,3.16-.48,6.64.46,9.67-.34l6.9-7.52c8.11-8.83,19.26-12.78,30.78-14.73h12.49ZM108.66,64.96c20.08-3.71,40.4-3.7,60.48-.01,9.78,1.8,23.57,5.78,30.62,12.82,2.27,2.52,4.27,5.31,4.28,8.94l.11,56.17c19.13-7.31,30.46-26.24,28.39-46.03s-16.59-35.31-36.1-38.83c-1.65-.3-2.93-1.71-2.9-3.36.38-21.06-13.31-39.59-32.84-45.73-20.27-6.37-42.17,1.48-53.72,19.23-.98,1.51-2.49,2.06-4.19,1.67-8.45-1.92-17.01.53-23.21,6.24s-9.11,13.97-7.97,22.62c.18,1.39-.86,2.62-2.01,3.21-14.89,7.66-24.61,22.75-24.54,39.77.08,18.22,11.33,34.41,28.59,41.18l.14-56.16c0-3.73,2.11-6.6,4.5-9.16,7.09-6.87,20.65-10.79,30.35-12.58ZM188.47,96.03c2.63-1.09,5.08-2.81,7.08-5.08,1.87-2.13,2.02-5,.13-7.14s-4.23-4.14-7.19-5.1c-5.68-3.42-12.23-5.26-19.15-6.62-19.87-3.92-40.18-3.88-60.08-.18-8.4,1.56-20.8,5.31-26.68,11.37-2.41,2.49-2.31,5.73.12,8.17s5.66,4.42,9.05,5.9c24.93,10.85,71.95,11.06,96.7-1.31ZM191.66,124.3c2.24-1.88,5-3.68,5.23-6.65.47-6.03.16-11.94.11-18.26-6.73,4.28-13.26,6.92-20.82,8.72-24.46,5.82-50.1,5.81-74.56,0-7.58-1.8-14.08-4.51-20.79-8.74-.07,6.22-.22,11.92.04,17.85.14,3.15,2.86,5.08,5.15,6.94,6.07,3.47,12.38,5.66,19.51,7.03,22.02,4.23,44.7,4.23,66.72.01,7.01-1.34,13.15-3.45,19.41-6.89ZM196.83,146.99c.64-6.3.14-11.88.18-17.9-5.81,3.82-11.51,6.03-17.97,7.69-23.64,6.04-56.08,6.03-79.77.12-6.64-1.66-12.53-3.92-18.43-7.79-.07,6.03-.26,11.67.05,17.58.16,2.98,2.81,4.81,4.92,6.61,6.06,3.53,12.36,5.73,19.49,7.12,22.04,4.27,44.72,4.31,66.78.09,6.25-1.2,23.97-5.89,24.75-13.5ZM197.02,171.04v-12.66c-20.23,13.49-60.72,13.65-83.78,10.52-6.95-1.04-13.41-2.3-19.98-4.51-4.43-1.43-8.28-3.34-12.41-6.01v15.51s40.05.07,40.05.07c7.53.01,13.1,6.3,13.05,13.62-.01,1.97-.13,3.59.13,5.6,9.5.23,18.74-.09,28.02-1.61,7.56-12.4,20.28-19.96,34.92-20.53ZM120.15,180.9h-50.56c-3.17,0-5.89-1.15-8.11-3.3l-13.46-13.03c-1.16-1.12-2.39-1.58-4.06-1.58h-16.01c-2.69-.02-4.83,1.94-4.82,4.69l.06,28.18,103.67-.03c.17-3.19.13-5.87.05-8.7-.11-3.62-2.81-6.23-6.74-6.23ZM233.67,213.28c0-19.49-15.8-35.29-35.29-35.29s-35.29,15.8-35.29,35.29,15.8,35.29,35.29,35.29,35.29-15.8,35.29-35.29ZM156.89,221.48c-1.51-7.88-.79-15.05,1.57-22.28-8.37.91-16.2,1.2-24.48,1v22.25c7.77.21,15.16.02,22.92-.97ZM120.62,247.64c3.92-.21,6.3-2.99,6.3-6.56l-.03-38.24H23.14s.03,38.74.03,38.74c0,3.52,2.9,5.96,6.34,6.06h91.11Z"/>
    <g>
      <path class="st3" d="M188.5,78.71l-.03,17.32c-24.75,12.37-71.78,12.16-96.7,1.31-3.39-1.48-6.51-3.34-9.05-5.9s-2.54-5.68-.12-8.17c5.88-6.06,18.28-9.81,26.68-11.37,19.9-3.7,40.21-3.74,60.08.18,6.92,1.37,13.47,3.2,19.15,6.62Z"/>
      <path class="st5" d="M196.83,146.99c-.78,7.61-18.5,12.31-24.75,13.5-22.06,4.23-44.74,4.19-66.78-.09-7.13-1.38-13.44-3.58-19.49-7.12-2.11-1.8-4.76-3.63-4.92-6.61-.32-5.91-.13-11.55-.05-17.58,5.89,3.88,11.78,6.13,18.43,7.79,23.68,5.91,56.13,5.93,79.77-.12,6.46-1.65,12.16-3.87,17.97-7.69-.04,6.02.47,11.6-.18,17.9Z"/>
      <path class="st5" d="M191.66,124.3c-6.25,3.44-12.4,5.55-19.41,6.89-22.03,4.22-44.7,4.22-66.72-.01-7.13-1.37-13.44-3.56-19.51-7.03-2.28-1.86-5.01-3.79-5.15-6.94-.26-5.93-.11-11.63-.04-17.85,6.71,4.23,13.22,6.93,20.79,8.74,24.45,5.82,50.1,5.82,74.56,0,7.56-1.8,14.08-4.44,20.82-8.72.04,6.32.36,12.24-.11,18.26-.23,2.97-2.99,4.77-5.23,6.65Z"/>
      <path class="st5" d="M197.02,171.04c-14.64.57-27.36,8.13-34.92,20.53-9.28,1.51-18.52,1.83-28.02,1.61-.25-2.01-.14-3.63-.13-5.6.04-7.32-5.52-13.61-13.05-13.62l-40.06-.07v-15.51c4.14,2.67,7.99,4.58,12.41,6.01,6.58,2.21,13.04,3.48,19.98,4.51,23.06,3.13,63.55,2.97,83.77-10.52v12.66Z"/>
      <path class="st5" d="M156.89,221.48c-7.76,1-15.14,1.19-22.9.97v-22.25c8.27.19,16.1-.09,24.47-1-2.36,7.23-3.08,14.4-1.57,22.28Z"/>
      <path class="st5" d="M188.47,96.03l.03-17.32c2.95.96,5.25,2.91,7.19,5.1s1.74,5.01-.13,7.14c-2,2.27-4.45,3.99-7.08,5.08Z"/>
    </g>
  </g>
  <g>
    <path class="st0" d="M108.66,64.96c-9.7,1.79-23.27,5.71-30.35,12.58-2.39,2.56-4.49,5.43-4.5,9.16l-.14,56.16c-17.26-6.77-28.51-22.96-28.59-41.18-.08-17.02,9.65-32.11,24.54-39.77,1.14-.59,2.19-1.82,2.01-3.21-1.14-8.65,1.78-16.91,7.97-22.62s14.75-8.17,23.21-6.24c1.7.39,3.2-.16,4.19-1.67,11.55-17.76,33.45-25.6,53.72-19.23,19.53,6.14,33.22,24.66,32.84,45.73-.03,1.64,1.25,3.06,2.9,3.36,19.5,3.52,34.08,19.59,36.1,38.83s-9.26,38.72-28.39,46.03l-.11-56.17c0-3.63-2.01-6.42-4.28-8.94-7.04-7.04-20.84-11.02-30.62-12.82-20.08-3.69-40.4-3.69-60.48.01ZM170,33.25c1.64,1.47,4.03.4,4.83-.75,1-1.43.91-3.45-.47-4.68-18.13-16.2-46.24-12.47-59.55,7.84-1.18,1.8-.65,4,.91,4.97,1.74,1.09,3.81.58,4.91-1.1,11.08-16.86,34.25-19.86,49.37-6.29Z"/>
    <path class="st1" d="M170,33.25c-15.12-13.57-38.29-10.57-49.37,6.29-1.1,1.68-3.17,2.18-4.91,1.1-1.56-.97-2.09-3.16-.91-4.97,13.31-20.32,41.43-24.04,59.55-7.84,1.38,1.23,1.48,3.25.47,4.68-.8,1.14-3.2,2.21-4.83.75Z"/>
  </g>
  <g>
    <g>
      <path class="st4" d="M120.62,247.64H29.52c-3.44-.1-6.34-2.55-6.34-6.06l-.03-38.74h103.75s.03,38.25.03,38.25c0,3.57-2.38,6.35-6.3,6.56Z"/>
      <path class="st4" d="M120.15,180.9c3.93,0,6.64,2.61,6.74,6.23.08,2.83.12,5.52-.05,8.7l-103.67.03-.06-28.18c0-2.75,2.13-4.71,4.82-4.69h16.01c1.67,0,2.9.46,4.06,1.58l13.46,13.03c2.22,2.15,4.94,3.31,8.11,3.31h50.56ZM75.76,188.38c0-1.93-1.57-3.5-3.5-3.5s-3.5,1.57-3.5,3.5,1.57,3.5,3.5,3.5,3.5-1.57,3.5-3.5ZM89.63,188.38c0-1.93-1.56-3.49-3.49-3.49s-3.49,1.56-3.49,3.49,1.56,3.49,3.49,3.49,3.49-1.56,3.49-3.49ZM103.51,188.38c0-1.93-1.56-3.49-3.49-3.49s-3.49,1.56-3.49,3.49,1.56,3.49,3.49,3.49,3.49-1.56,3.49-3.49ZM117.38,188.38c0-1.93-1.56-3.49-3.49-3.49s-3.49,1.56-3.49,3.49,1.56,3.49,3.49,3.49,3.49-1.56,3.49-3.49Z"/>
      <circle class="st1" cx="100.02" cy="188.38" r="3.49"/>
      <circle class="st1" cx="72.27" cy="188.38" r="3.5"/>
      <circle class="st1" cx="113.89" cy="188.38" r="3.49"/>
      <circle class="st1" cx="86.14" cy="188.38" r="3.49"/>
    </g>
    <g>
      <path class="st1" d="M189.97,203.49c.52-1.68,1.65-2.8,1.83-4.52-6.71,3.15-9.79,10.77-7.75,17.62,2.1,7.06,8.98,11.59,16.48,10.54,7-.98,12.65-6.96,12.82-14.53.05-2.26,1.74-3.85,3.69-3.73,2.22.13,3.44,1.93,3.34,4.24-.45,10.71-8.31,19.26-18.42,20.93-10.58,1.75-20.74-4.42-24.24-14.16-3.71-10.3.5-21.44,10.06-26.85-1.56-1.31-4.97-2.43-3.44-5.81.78-1.71,2.84-2.54,4.72-1.66l10.48,4.95c1.86.88,2.89,2.87,1.97,4.8l-5.11,10.79c-.82,1.73-2.58,2.39-4.2,1.94-1.78-.49-2.92-2.35-2.25-4.55Z"/>
      <path class="st2" d="M233.67,213.28c0,19.49-15.8,35.29-35.29,35.29s-35.29-15.8-35.29-35.29,15.8-35.29,35.29-35.29,35.29,15.8,35.29,35.29ZM189.97,203.49c-.68,2.21.46,4.06,2.25,4.55,1.62.45,3.38-.21,4.2-1.94l5.11-10.79c.92-1.93-.12-3.93-1.97-4.8l-10.48-4.95c-1.88-.89-3.95-.05-4.72,1.66-1.53,3.37,1.87,4.5,3.44,5.81-9.56,5.41-13.77,16.55-10.06,26.85,3.5,9.73,13.67,15.9,24.24,14.16,10.1-1.67,17.97-10.22,18.42-20.93.1-2.3-1.12-4.1-3.34-4.24-1.96-.12-3.64,1.47-3.69,3.73-.17,7.57-5.82,13.56-12.82,14.53-7.5,1.05-14.38-3.48-16.48-10.54-2.04-6.85,1.04-14.46,7.75-17.62-.18,1.72-1.31,2.84-1.83,4.52Z"/>
    </g>
  </g>
</svg>