<?xml version="1.0" encoding="UTF-8"?>
<svg id="Layer_1" xmlns="http://www.w3.org/2000/svg" version="1.1" viewBox="0 0 256 256">
  <!-- Generator: Adobe Illustrator 30.1.0, SVG Export Plug-In . SVG Version: 2.1.1 Build 136)  -->
  <defs>
    <style>
      .st0 {
        fill: #69d5f3;
      }

      .st1 {
        fill: #fee9a6;
      }

      .st2 {
        fill: #eabf9b;
      }

      .st3 {
        fill: #e4e7eb;
      }

      .st4 {
        fill: #fbd66f;
      }
    </style>
  </defs>
  <g>
    <path d="M8.63,189.52l.02-93.25-6.2-9.41c-2.8-4.25-3.02-9.68-.34-14.27,2.32-3.97,6.75-7.2,12.18-6.88l8.31-16.45,85.24.02c-.88-6.81.42-13.18,5.08-17.98,3.09-3.19,6.52-5.9,11.22-6.41l.16-14.49c.05-4.8,4.76-10.52,10.27-10.52l94.34-.07c5.52,0,10.6,5.14,10.68,10.19l.24,14.86c4.53.62,7.91,2.98,11.01,6.2,2.38,2.95,5.39,6.66,5.39,11.11v213.41s-255.81.06-255.81.06l-.03-66.02,8.26-.1ZM231.46,24.47l.04-12.4c-.19-2.31-1.68-3.99-4.19-4.1h-90.67c-2.44.12-4.16,1.79-4.16,4.11v12.4s98.98-.01,98.98-.01ZM239.75,214.33v32.98s8.26-.05,8.26-.05l-.02-202.05c0-7.38-5.78-12.5-12.94-12.5h-106.16c-7.16,0-12.94,5.13-12.94,12.5l-.02,202.05,8.26.05v-33s115.55.02,115.55.02ZM107.63,65.76v-8.27s-79.84,0-79.84,0l-4.1,8.2,83.94.07ZM107.68,90.51v-16.51s-93.29,0-93.29,0c-2.39,0-4.04,1.08-4.96,2.64-1.07,1.8-1.02,4,.14,5.74l5.45,8.13h92.66ZM41.66,98.77h-24.76v24.76h24.76v-24.76ZM74.67,98.77h-24.76v24.76h24.76v-24.76ZM107.69,98.77h-24.76v24.76h24.76v-24.76ZM41.66,131.78h-24.76v24.76h24.76v-24.76ZM74.67,131.78h-24.76v24.76h24.76v-24.76ZM107.69,131.78h-24.76v24.76h24.76v-24.76ZM41.66,164.8h-24.76v24.76h24.76v-24.76ZM74.67,164.8h-24.76v24.76h24.76v-24.76ZM107.69,164.8h-24.76v24.76h24.76v-24.76ZM62.31,247.27v-14.42c0-10.47,8.61-18.65,18.81-18.52,9.98.13,18.3,8.21,18.31,18.52v14.47s8.27-.03,8.27-.03v-49.49s-99.06,0-99.06,0v49.49s8.26.03,8.26.03v-14.48c.02-10.47,8.62-18.65,18.82-18.52s18.3,8.21,18.31,18.52v14.47s8.28-.06,8.28-.06ZM45.79,247.33v-13.94c.17-5.97-4.39-10.63-10.06-10.78s-10.57,4.28-10.56,10.25v14.51s20.63-.05,20.63-.05ZM91.19,247.33v-13.94c.17-5.97-4.39-10.63-10.06-10.78s-10.57,4.28-10.56,10.25v14.51s20.63-.05,20.63-.05ZM157.22,222.58h-24.76v24.76h24.76v-24.76ZM198.49,222.58h-33.02v24.76h33.02v-24.76ZM231.5,222.58h-24.76v24.76h24.76v-24.76Z"/>
    <path class="st3" d="M62.31,247.27l-8.27.06v-14.47c-.02-10.31-8.35-18.4-18.33-18.52s-18.8,8.05-18.81,18.52v14.48s-8.27-.03-8.27-.03v-49.49s99.06,0,99.06,0v49.49s-8.25.03-8.25.03v-14.47c-.02-10.31-8.35-18.4-18.33-18.52-10.2-.13-18.81,8.05-18.81,18.52v14.42Z"/>
    <path class="st3" d="M107.68,90.51H15.02s-5.45-8.14-5.45-8.14c-1.16-1.73-1.21-3.94-.14-5.74.92-1.55,2.57-2.64,4.96-2.64h93.29s0,16.51,0,16.51Z"/>
    <polygon class="st3" points="107.63 65.76 23.69 65.69 27.79 57.5 107.64 57.49 107.63 65.76"/>
    <rect class="st0" x="82.93" y="131.78" width="24.76" height="24.76"/>
    <rect class="st0" x="16.89" y="164.8" width="24.76" height="24.76"/>
    <rect class="st0" x="49.91" y="164.8" width="24.76" height="24.76"/>
    <rect class="st0" x="82.93" y="164.8" width="24.76" height="24.76"/>
    <rect class="st0" x="16.89" y="98.77" width="24.76" height="24.76"/>
    <rect class="st0" x="49.91" y="98.77" width="24.76" height="24.76"/>
    <rect class="st0" x="82.93" y="98.77" width="24.76" height="24.76"/>
    <rect class="st0" x="16.89" y="131.78" width="24.76" height="24.76"/>
    <rect class="st0" x="49.91" y="131.78" width="24.76" height="24.76"/>
    <path class="st2" d="M45.79,247.33l-20.62.05v-14.51c0-5.97,4.93-10.39,10.56-10.25s10.23,4.8,10.06,10.78v13.94Z"/>
    <path class="st2" d="M91.19,247.33l-20.62.05v-14.51c0-5.97,4.93-10.39,10.56-10.25s10.23,4.8,10.06,10.78v13.94Z"/>
  </g>
  <g>
    <path class="st1" d="M239.75,214.33l-115.55-.02v33s-8.26-.05-8.26-.05l.02-202.05c0-7.37,5.78-12.5,12.94-12.5h106.16c7.16,0,12.94,5.12,12.94,12.5l.02,202.05-8.26.05v-32.98ZM157.22,49.24h-33.02v156.83h33.02V49.24ZM198.49,49.24h-33.02v156.83h33.02V49.24ZM239.76,49.24h-33.02v156.83h33.02V49.24Z"/>
    <path class="st4" d="M231.46,24.47h-98.98s0-12.39,0-12.39c0-2.32,1.72-3.99,4.16-4.11h90.67c2.51.12,4,1.79,4.19,4.1l-.04,12.4Z"/>
    <rect class="st0" x="165.47" y="222.58" width="33.02" height="24.76"/>
    <rect class="st0" x="132.45" y="222.58" width="24.76" height="24.76"/>
    <rect class="st0" x="206.74" y="222.58" width="24.76" height="24.76"/>
    <g>
      <path d="M157.22,49.24v156.83h-33.02V49.24h33.02ZM148.96,57.49h-16.51v16.51h16.51v-16.51ZM148.96,82.26h-16.51v16.51h16.51v-16.51ZM148.96,107.02h-16.51v16.51h16.51v-16.51ZM148.96,131.78h-16.51v16.51h16.51v-16.51ZM148.96,156.54h-16.51v16.51h16.51v-16.51ZM148.96,181.31h-16.51v16.51h16.51v-16.51Z"/>
      <rect class="st3" x="132.45" y="57.49" width="16.51" height="16.51"/>
      <rect class="st3" x="132.45" y="82.26" width="16.51" height="16.51"/>
      <rect class="st3" x="132.45" y="131.78" width="16.51" height="16.51"/>
      <rect class="st3" x="132.45" y="181.31" width="16.51" height="16.51"/>
      <rect class="st3" x="132.45" y="156.54" width="16.51" height="16.51"/>
      <rect class="st3" x="132.45" y="107.02" width="16.51" height="16.51"/>
    </g>
    <g>
      <path d="M198.49,49.24v156.83h-33.02V49.24h33.02ZM190.23,57.49h-16.51v16.51h16.51v-16.51ZM190.23,82.26h-16.51v16.51h16.51v-16.51ZM190.23,107.02h-16.51v16.51h16.51v-16.51ZM190.23,131.78h-16.51v16.51h16.51v-16.51ZM190.23,156.54h-16.51v16.51h16.51v-16.51ZM190.23,181.31h-16.51v16.51h16.51v-16.51Z"/>
      <rect class="st3" x="173.72" y="57.49" width="16.51" height="16.51"/>
      <rect class="st3" x="173.72" y="82.26" width="16.51" height="16.51"/>
      <rect class="st3" x="173.72" y="131.78" width="16.51" height="16.51"/>
      <rect class="st3" x="173.72" y="181.31" width="16.51" height="16.51"/>
      <rect class="st3" x="173.72" y="107.02" width="16.51" height="16.51"/>
      <rect class="st3" x="173.72" y="156.54" width="16.51" height="16.51"/>
    </g>
    <g>
      <path d="M239.76,49.24v156.83h-33.02V49.24h33.02ZM231.5,57.49h-16.51v16.51h16.51v-16.51ZM231.5,82.26h-16.51v16.51h16.51v-16.51ZM231.5,107.02h-16.51v16.51h16.51v-16.51ZM231.5,131.78h-16.51v16.51h16.51v-16.51ZM231.5,156.54h-16.51v16.51h16.51v-16.51ZM231.5,181.31h-16.51v16.51h16.51v-16.51Z"/>
      <rect class="st3" x="214.99" y="57.49" width="16.51" height="16.51"/>
      <rect class="st3" x="214.99" y="82.26" width="16.51" height="16.51"/>
      <rect class="st3" x="214.99" y="156.54" width="16.51" height="16.51"/>
      <rect class="st3" x="214.99" y="107.02" width="16.51" height="16.51"/>
      <rect class="st3" x="214.99" y="181.31" width="16.51" height="16.51"/>
      <rect class="st3" x="214.99" y="131.78" width="16.51" height="16.51"/>
    </g>
  </g>
</svg>