<?xml version="1.0" encoding="UTF-8"?>
<svg id="Layer_1" xmlns="http://www.w3.org/2000/svg" version="1.1" viewBox="0 0 256 256">
  <!-- Generator: Adobe Illustrator 30.1.0, SVG Export Plug-In . SVG Version: 2.1.1 Build 136)  -->
  <defs>
    <style>
      .st0 {
        fill: #fdcb29;
      }

      .st1 {
        fill: #252122;
      }

      .st2 {
        fill: #a9daf5;
      }

      .st3 {
        fill: #e74546;
      }

      .st4 {
        fill: #e7e7e8;
      }

      .st5 {
        fill: #54a9d2;
      }
    </style>
  </defs>
  <path class="st5" d="M162.03,0c1,.92.67,2.96,1.33,3.92,1.48.23,2.93.17,3.65,1.36s.53,2.18-.22,3.24-2.54.55-3.54,1.29c-.68.51.24,2.65-.88,3.26-.87.47-2.09.76-3.3.21-1.73-.78-.71-3.89-2.52-3.78-1.94.11-3.2-1.46-3.06-3.17.15-1.83,2.31-1.86,3.77-2.62.83-.8.74-2.96,1.78-3.69h3Z"/>
  <path class="st5" d="M89.03,20.39c-1.18-3.93-3.19-6.04-7.23-7.13,3.77-1.07,6.17-3.06,7.19-7.3,1.32,3.97,3.25,6.27,7.28,7.27-3.61,1.28-6.05,2.78-7.24,7.16Z"/>
  <circle class="st0" cx="139.6" cy="24.53" r="2.61"/>
  <g>
    <g>
      <path class="st1" d="M196.53,256H19.03c-3.33-1.88-6.01-4.22-6.01-8.57V97.24c-2.36-1.26-4.91-3.47-4.9-6.28l.05-40.93c0-3.73,4.08-6.89,7.27-6.94l8.04-.14c.33-4.63-.35-9.27.22-13.78s4.48-7.21,8.54-6.78,7.06,3.48,7.13,7.86l.2,12.7c1.69.13,3.26.16,4.86-.01.49-4.97-.42-9.93.32-14.8.63-4.14,4.79-6.11,8.46-5.68,3.47.41,6.73,3.03,6.76,7.05l.1,13.44c1.76.15,3.26.1,4.94,0l.08-12.9c.03-4.57,3.95-7.72,8.2-7.67,4,.05,7.63,3.28,7.68,7.69l.12,12.96h86.89s.16-12.36.16-12.36c.06-4.44,3-7.93,7.16-8.24s8.5,2.28,8.57,6.71l.23,13.81c1.69.16,3.3.12,4.87,0l.22-13.82c.07-4.33,4.69-7.04,8.56-6.72,4.19.35,7.12,3.79,7.17,8.25l.15,12.29c1.7.13,3.26.15,4.87-.01.49-4.97-.42-9.93.32-14.8.63-4.14,4.79-6.11,8.46-5.68,3.47.41,6.73,3.02,6.76,7.06l.1,13.44,8.94.2c3.28.07,6.9,3.77,6.91,7.35l.16,39.5c-.24,3.07-1.77,5.66-4.55,7.13l-.05,66.9c16.07,22.24,14.4,52.58-4.08,72.89-9.72,10.69-22.33,16.96-36.39,19.07ZM34.04,60.72l.08-30.23c0-1.85-1.13-2.98-2.82-2.93-1.41.04-2.6,1.14-2.59,2.97l.21,30.97c.01,1.57,1.76,2.15,2.84,2.04,1.13-.11,2.27-.99,2.28-2.82ZM54.66,61.25l.2-30.71c.01-1.81-1.04-2.98-2.59-2.99s-2.75,1.12-2.74,2.96l.05,30.46c0,1.47,1.24,2.43,2.26,2.54s2.81-.46,2.82-2.25ZM75.59,60.73l.12-30.22c0-1.89-1.32-3.04-2.91-2.95-1.43.08-2.47,1.25-2.47,2.96l.09,30.48c0,1.77,1.39,2.66,2.84,2.56,1.12-.08,2.32-1.03,2.33-2.82ZM178.58,61.2l.15-30.7c0-1.94-1.15-3.1-2.92-2.93-1.32.12-2.39,1.21-2.38,2.94l.09,30.48c0,1.51,1.17,2.43,2.32,2.54,1.03.1,2.72-.6,2.73-2.32ZM199.42,60.73l.12-30.23c0-1.86-1.02-2.99-2.75-2.94-1.42.05-2.58,1.15-2.58,2.97l.07,30.38c0,1.6,1.2,2.61,2.47,2.61s2.65-.9,2.66-2.79ZM220.08,60.77l.13-16.06.13-14.19c.02-1.75-1.14-2.95-2.58-2.97-1.6-.02-2.75,1.13-2.75,2.96l.03,30.48c0,1.68,1.42,2.62,2.71,2.54s2.3-.96,2.32-2.75ZM183.97,48.3l-.19,13.5c-.06,4.17-4.09,7.14-7.95,7.04s-7.46-3.36-7.52-7.53l-.19-13.2h-87.19s-.2,13.1-.2,13.1c-.07,4.35-3.72,7.62-7.89,7.56-3.87-.05-7.58-3.09-7.63-7.3l-.16-13.23c-1.73-.24-3.26-.23-4.95-.03l-.16,13.3c-.05,4.17-3.78,7.26-7.68,7.31-3.64.05-7.59-2.81-7.65-6.79l-.18-13.83c-1.8-.19-3.43-.2-5.19.05l-.03,12.26c-.01,4.46-3.08,8.03-7.47,8.25-3.94.2-8.02-2.9-8.07-7.3l-.15-13.25c-3.9.09-10.52-1.65-10.52,3.79l.05,37.45c0,1.99,1.6,3.36,3.66,3.36h216.5c1.91,0,3.34-1.59,3.34-3.34l.05-37.47c0-5.62-6.99-3.56-11.06-3.86l-.16,13.31c-.05,4.35-4.1,7.54-8.07,7.36s-7.39-3.56-7.41-7.79l-.06-12.81c-1.8-.22-3.39-.22-5.19,0l-.07,12.81c-.02,4.36-3.59,7.77-7.83,7.79-3.8.02-7.62-3.11-7.66-7.31l-.14-13.32c-1.71-.14-3.31-.28-5.02.1ZM127.15,150.73c.01-4.25,3.39-7.13,7.37-7.12l11.49.03c4.61.48,7.1,4.13,6.7,9.64,23.51-19.04,57.1-17.78,78.93,4.21l.09-59.5-213.56.05-.06,148.37c0,2.75,1.1,4.56,4.05,4.6l143.76-.07c-31.39-14.52-43.31-51.83-26.52-81.72l-4.35-.14c-4.53.27-7.94-3.08-7.92-7.57l.04-10.79ZM242.83,197.99c0-29.23-23.7-52.93-52.93-52.93s-52.93,23.7-52.93,52.93,23.7,52.93,52.93,52.93,52.93-23.7,52.93-52.93ZM142.72,164.04c1.6-2.13,3.03-3.92,4.76-5.73-.13-2.7,1.43-9.68-1.95-9.69l-11-.03c-1.46,0-2.41.96-2.4,2.41l.03,11c0,1.34,1.06,2.07,2.35,2.07l8.21-.03Z"/>
      <path class="st4" d="M199.42,60.73c0,1.9-1.37,2.8-2.66,2.79s-2.47-1.01-2.47-2.61l-.07-30.38c0-1.81,1.16-2.92,2.58-2.97,1.73-.06,2.75,1.08,2.75,2.94l-.12,30.23Z"/>
      <path class="st4" d="M34.04,60.72c0,1.83-1.14,2.71-2.28,2.82s-2.83-.47-2.84-2.04l-.21-30.97c-.01-1.83,1.18-2.93,2.59-2.97,1.68-.05,2.82,1.08,2.82,2.93l-.08,30.23Z"/>
      <path class="st4" d="M54.66,61.25c-.01,1.8-1.77,2.37-2.82,2.25s-2.26-1.06-2.26-2.54l-.05-30.46c0-1.84,1.18-2.97,2.74-2.96s2.6,1.18,2.59,2.99l-.2,30.71Z"/>
      <path class="st4" d="M220.08,60.77c-.01,1.79-1.04,2.67-2.32,2.75s-2.71-.86-2.71-2.54l-.03-30.48c0-1.82,1.15-2.97,2.75-2.96,1.44.02,2.59,1.21,2.58,2.97l-.13,14.19-.13,16.06Z"/>
      <path class="st4" d="M75.59,60.73c0,1.79-1.21,2.74-2.33,2.82-1.44.1-2.83-.79-2.84-2.56l-.09-30.48c0-1.71,1.04-2.87,2.47-2.96,1.58-.09,2.91,1.07,2.91,2.95l-.12,30.22Z"/>
      <path class="st4" d="M178.58,61.2c0,1.73-1.7,2.42-2.73,2.32-1.15-.11-2.32-1.03-2.32-2.54l-.09-30.48c0-1.73,1.06-2.81,2.38-2.94,1.77-.16,2.93.99,2.92,2.93l-.15,30.7Z"/>
      <g>
        <path class="st3" d="M183.97,48.3c1.72-.37,3.31-.23,5.02-.1l.14,13.32c.04,4.2,3.86,7.33,7.66,7.31,4.23-.02,7.8-3.43,7.83-7.79l.07-12.81c1.8-.22,3.39-.22,5.19,0l.06,12.81c.02,4.23,3.32,7.6,7.41,7.79s8.02-3.01,8.07-7.36l.16-13.31c4.07.3,11.07-1.77,11.06,3.86l-.05,37.47c0,1.75-1.44,3.33-3.34,3.33H16.74c-2.07,0-3.66-1.36-3.66-3.35l-.05-37.45c0-5.44,6.62-3.71,10.52-3.79l.15,13.25c.05,4.4,4.13,7.49,8.07,7.3,4.39-.22,7.46-3.78,7.47-8.25l.03-12.26c1.75-.25,3.38-.24,5.19-.05l.18,13.83c.05,3.98,4.01,6.85,7.65,6.79,3.91-.06,7.63-3.14,7.68-7.31l.16-13.3c1.68-.2,3.22-.21,4.95.03l.16,13.23c.05,4.21,3.76,7.25,7.63,7.3,4.17.06,7.83-3.22,7.89-7.56l.2-13.1h87.19s.19,13.2.19,13.2c.06,4.17,3.54,7.42,7.52,7.53s7.89-2.87,7.95-7.04l.19-13.5ZM152.23,72.99c1.92,0,2.64-1.58,2.55-2.66-.11-1.39-1.15-2.33-2.78-2.33h-54.43c-1.72,0-2.7,1.33-2.58,2.71.1,1.18,1.01,2.29,2.59,2.29h54.65Z"/>
        <path class="st1" d="M152.23,72.99h-54.65c-1.58.01-2.49-1.1-2.59-2.28-.12-1.38.86-2.71,2.58-2.71h54.43c1.63,0,2.67.94,2.78,2.33.08,1.07-.63,2.66-2.55,2.66Z"/>
      </g>
    </g>
    <g>
      <path class="st4" d="M127.15,150.73l-.04,10.79c-.02,4.49,3.39,7.84,7.92,7.57l4.35.14c-16.79,29.89-4.86,67.21,26.52,81.72l-143.76.07c-2.95-.04-4.05-1.85-4.05-4.6l.06-148.37,213.56-.05-.09,59.5c-21.83-21.99-55.42-23.25-78.93-4.21.4-5.5-2.09-9.16-6.7-9.64l-11.49-.03c-3.98,0-7.35,2.88-7.37,7.12ZM114.85,138.39c4.22,0,7.17-3.4,7.17-7.36v-11.05c-.02-3.89-3.07-7.02-6.96-7.03l-11.03-.04c-4.36-.01-7.52,3.25-7.51,7.58v10.54c.02,4.26,3.24,7.4,7.5,7.39l10.83-.02ZM145.33,138.4c4.31,0,7.3-3.32,7.29-7.38l-.02-11.04c0-3.95-3.1-7.04-7.04-7.05l-11.05-.02c-4.06,0-7.35,3.01-7.36,7.08l-.02,11.03c0,4.2,3.19,7.38,7.38,7.38h10.83ZM176.36,138.36c4.01,0,6.92-3.23,6.93-6.97l.02-11.36c0-4.04-3.23-7.13-7.25-7.12h-11.04c-3.99.01-7.15,3.08-7.16,7.07l-.02,11.03c0,4.1,3.06,7.38,7.19,7.37l11.33-.02ZM206.84,138.38c4.22-.02,7.09-3.4,7.09-7.35l-.02-11.04c0-4.08-3.29-7.09-7.36-7.08l-11.05.03c-3.93,0-7.04,3.11-7.05,7.04l-.02,11.04c0,4.31,3.3,7.42,7.57,7.4l10.84-.04ZM53.86,169.05c3.98-.01,6.81-3.34,6.83-7.03l.04-11.03c.01-4.12-3.06-7.37-7.18-7.37h-11.04c-3.97,0-7.23,3.01-7.23,6.98v11.37c-.02,4.01,3.23,7.13,7.24,7.12l11.35-.04ZM84.36,169.06c4.05,0,6.95-3.33,6.95-7.09v-11.37c-.01-3.98-3.26-6.99-7.24-6.99h-11.04c-4.13,0-7.2,3.26-7.19,7.38l.03,11.03c0,3.97,3.17,7.07,7.15,7.06l11.35-.02ZM114.86,169.08c4.11,0,7.12-3.22,7.13-7.08l.04-11.02c.01-4.28-3.23-7.39-7.48-7.39h-10.54c-4.26,0-7.48,3.12-7.49,7.39v10.53c-.02,4.33,3.14,7.6,7.5,7.59l10.84-.02ZM53.67,199.67c3.94,0,6.86-3.12,7-6.86s.09-7.69.02-11.61-3.22-6.98-7.14-6.98h-11.04c-4.11-.01-7.29,3.16-7.28,7.27v11.04c.01,3.92,3.07,7.14,6.99,7.14h11.44ZM84.56,199.64c3.98-.02,6.77-3.38,6.77-7.12v-11.04c0-4.12-3.17-7.28-7.28-7.28h-11.04c-3.93.01-7.14,3.07-7.15,6.99l-.02,11.21c0,4.1,3.18,7.31,7.3,7.29l11.42-.05ZM115.07,199.66c4.04,0,6.93-3.3,6.93-7.14l.02-11.05c0-3.98-3.02-7.24-7.02-7.24h-11.45c-3.99,0-7.02,3.27-7.02,7.24v11.06c.01,4.04,3.18,7.17,7.19,7.16l11.35-.02ZM53.35,230.4c4.17,0,7.25-3.15,7.34-7.11s.11-7.62,0-11.5-3.24-6.88-7.13-6.88h-11.04c-4.05-.01-7.26,3.08-7.27,7.11l-.02,10.98c0,4.15,3.11,7.38,7.28,7.39h10.85ZM84.35,230.36c4.19,0,6.99-3.46,6.98-7.34l-.02-10.99c0-4.04-3.21-7.13-7.26-7.12h-11.04c-3.9.01-7.13,2.99-7.14,6.88l-.02,11.51c0,3.95,3.18,7.08,7.16,7.07l11.34-.03ZM114.85,230.39c4.22,0,7.17-3.4,7.17-7.36v-11.05c-.02-3.89-3.07-7.02-6.96-7.03l-11.05-.04c-4.08-.01-7.45,2.95-7.46,7.07l-.02,11.05c0,4.26,3.24,7.4,7.48,7.39l10.84-.02Z"/>
      <path class="st2" d="M142.72,164.04l-8.21.03c-1.29,0-2.34-.73-2.35-2.07l-.03-11c0-1.45.95-2.42,2.4-2.41l11,.03c3.38,0,1.82,6.98,1.95,9.69-1.74,1.81-3.16,3.6-4.76,5.73Z"/>
      <g>
        <path class="st1" d="M176.36,138.36l-11.33.02c-4.13,0-7.2-3.27-7.19-7.37l.02-11.03c0-4,3.17-7.06,7.16-7.06h11.04c4.02-.01,7.26,3.08,7.25,7.11l-.02,11.36c0,3.73-2.92,6.96-6.93,6.97ZM177.55,118.21c-4.41-.23-9.39-.53-13.69.1-1.25.75-1.67,4.5-.55,5.25,1.44.98,3.21,1.7,4.35,3.86,3.88-3,5.72-5.82,9.9-9.21ZM178.16,124.55l-9.4,8.74c2.55.25,5.26.42,8.16.03,2.31-.31,1.26-7.04,1.24-8.77ZM166.38,133.19c-1.32-1.39-1.96-2.42-3.2-3.23-.6,1.1-.37,2.34.5,3.06.65.54,1.93.72,2.7.17Z"/>
        <path class="st5" d="M177.55,118.21c-4.18,3.4-6.02,6.21-9.9,9.21-1.14-2.16-2.91-2.87-4.35-3.86-1.11-.76-.69-4.5.55-5.25,4.3-.63,9.29-.33,13.69-.1Z"/>
        <path class="st5" d="M178.16,124.55c.02,1.73,1.08,8.46-1.24,8.77-2.9.39-5.61.21-8.16-.03l9.4-8.74Z"/>
        <path class="st5" d="M166.38,133.19c-.78.55-2.05.37-2.7-.17-.87-.72-1.11-1.96-.5-3.06,1.24.81,1.88,1.84,3.2,3.23Z"/>
      </g>
      <g>
        <path class="st1" d="M206.84,138.38l-10.84.04c-4.28.02-7.58-3.1-7.57-7.4l.02-11.04c0-3.93,3.12-7.03,7.05-7.04l11.05-.03c4.07,0,7.35,3,7.36,7.08l.02,11.04c0,3.95-2.87,7.33-7.09,7.35ZM207.42,119.13c1.24.07,1.29-.63.29-1.01-4.21-.17-8.41-.24-12.65,0-2.21.12-1.92,5.29-1.17,5.77.42.27,1.39,0,1.88.45l3.28,2.97,8.38-8.17ZM208.69,124.99l-8.93,8.29c2.4.25,4.96.43,7.7.04,2.35-.33,1.41-6.69,1.23-8.33ZM197.42,133.22l-3.58-3.83c-.71.96-.52,2.48.17,3.38s2.17.98,3.41.45Z"/>
        <path class="st5" d="M207.42,119.13l-8.38,8.17-3.28-2.97c-.49-.44-1.46-.18-1.88-.45-.75-.48-1.04-5.65,1.17-5.77,4.24-.23,8.44-.17,12.65,0,1,.38.95,1.08-.29,1.01Z"/>
        <path class="st5" d="M208.69,124.99c.18,1.65,1.12,8-1.23,8.33-2.73.39-5.3.2-7.7-.04l8.93-8.29Z"/>
        <path class="st5" d="M197.42,133.22c-1.24.52-2.76.4-3.41-.45-.69-.9-.88-2.42-.17-3.38l3.58,3.83Z"/>
      </g>
      <g>
        <path class="st1" d="M84.36,169.06l-11.35.02c-3.98,0-7.14-3.1-7.15-7.06l-.03-11.03c0-4.12,3.06-7.37,7.19-7.37h11.04c3.98,0,7.23,3,7.23,6.98v11.37c.01,3.76-2.89,7.08-6.94,7.09ZM75.89,157.39l8.9-8.67c-4.56.03-8.78-.69-12.9.28-1.53.36-1.17,3.7-.85,4.75,2.28.38,2.96,1.82,4.85,3.64ZM72.24,163.86c4.18.56,7.91.07,11.81.23,3.64.14,2.01-6.87,2.1-9.65l-8.2,8c-.76.74-1.65,1.12-2.64.99-1.74-.23-2.71-2.91-4.19-3.39-.55,1.03-.51,3.61,1.11,3.82Z"/>
        <path class="st5" d="M75.89,157.39c-1.89-1.82-2.57-3.26-4.85-3.64-.32-1.05-.68-4.39.85-4.75,4.12-.97,8.34-.25,12.9-.28l-8.9,8.67Z"/>
        <path class="st5" d="M72.24,163.86c-1.62-.22-1.66-2.79-1.11-3.82,1.48.48,2.45,3.16,4.19,3.39.99.13,1.88-.25,2.64-.99l8.2-8c-.09,2.78,1.54,9.79-2.1,9.65-3.91-.15-7.64.33-11.81-.23Z"/>
      </g>
      <g>
        <path class="st1" d="M114.86,169.08l-10.84.02c-4.36,0-7.51-3.26-7.51-7.59v-10.53c.02-4.28,3.24-7.39,7.5-7.39h10.54c4.24,0,7.49,3.11,7.48,7.39l-.04,11.02c-.01,3.86-3.02,7.07-7.13,7.08ZM107.24,157.24l8.42-8.5c-4.12-.34-7.76-.06-11.63-.16-1.74-.04-2.63,1.19-2.51,2.93.05.78-.3,1.92.36,2.39.35.25,1.21.1,1.8.37,1.47.67,1.74,2.41,3.57,2.97ZM102.82,163.79c4.26.71,8.21.13,12.21.27,3.12.1,1.81-6.5,1.84-9.34l-8.46,8.16c-2.54,2.45-4.9-2.35-6.64-3.4-.4.93-.67,4.03,1.05,4.32Z"/>
        <path class="st5" d="M107.24,157.24c-1.83-.56-2.1-2.3-3.57-2.97-.58-.27-1.45-.12-1.8-.37-.65-.47-.3-1.61-.36-2.39-.11-1.74.77-2.97,2.51-2.93,3.87.1,7.51-.18,11.63.16l-8.42,8.5Z"/>
        <path class="st5" d="M102.82,163.79c-1.73-.29-1.46-3.39-1.05-4.32,1.74,1.05,4.11,5.85,6.64,3.4l8.46-8.16c-.03,2.85,1.27,9.45-1.84,9.34-4-.13-7.95.45-12.21-.27Z"/>
      </g>
      <g>
        <path class="st1" d="M53.86,169.05l-11.35.04c-4.02.01-7.26-3.11-7.25-7.12v-11.37c.01-3.98,3.27-6.99,7.24-6.99h11.04c4.13,0,7.2,3.26,7.18,7.38l-.04,11.03c-.01,3.69-2.85,7.02-6.83,7.03ZM46.19,157.04c3.19-2.76,5.63-5.47,8.44-8.32-4.71,0-8.97-.62-13.32.25-1.31.26-1.71,4.31-.67,4.85,3.65.01,4.46,4.17,5.55,3.22ZM41.37,163.7c4.13.95,8.18.12,12.13.39,3.28.23,2.15-6.09,1.97-8.9l-7.78,7.48c-3.15,3.03-5.47-2.89-7.32-3.47-.15,1.14-.68,4.12.99,4.51Z"/>
        <path class="st5" d="M46.19,157.04c-1.09.94-1.89-3.21-5.55-3.22-1.04-.53-.64-4.58.67-4.85,4.35-.88,8.61-.25,13.32-.25-2.81,2.86-5.24,5.56-8.44,8.32Z"/>
        <path class="st5" d="M41.37,163.7c-1.68-.38-1.15-3.37-.99-4.51,1.84.58,4.16,6.5,7.32,3.47l7.78-7.48c.18,2.81,1.32,9.13-1.97,8.9-3.96-.27-8,.56-12.13-.39Z"/>
      </g>
      <g>
        <path class="st1" d="M84.56,199.64l-11.42.05c-4.12.02-7.3-3.18-7.3-7.29l.02-11.21c0-3.92,3.22-6.98,7.15-6.98h11.04c4.12-.01,7.28,3.16,7.28,7.27v11.04c0,3.74-2.79,7.1-6.77,7.12ZM84.17,194.82c1.39-.21,2.17-1.16,2.17-2.39v-10.87c-.01-1.29-.96-2.24-2.29-2.24l-11.04.02c-1.25,0-2.14.88-2.14,2.13l-.02,11.04c0,1.34.95,2.28,2.24,2.28l11.08.02Z"/>
        <path class="st2" d="M84.17,194.82l-11.08-.02c-1.29,0-2.24-.95-2.24-2.28l.02-11.04c0-1.25.89-2.13,2.14-2.13l11.04-.02c1.33,0,2.28.95,2.28,2.24v10.87c.01,1.22-.76,2.18-2.15,2.39Z"/>
      </g>
      <g>
        <path class="st1" d="M53.67,199.67h-11.44c-3.92,0-6.98-3.23-6.99-7.14v-11.04c-.01-4.11,3.16-7.28,7.27-7.28h11.04c3.92.01,7.07,3.06,7.14,6.99s.12,7.69-.02,11.61-3.06,6.86-7,6.86ZM53.67,194.81c1.3-.2,2.04-1.12,2.03-2.3l-.02-11.04c0-1.25-.89-2.13-2.14-2.14l-11.04-.02c-1.33,0-2.28.95-2.28,2.24v10.88c-.01,1.36,1,2.36,2.36,2.37h11.08Z"/>
        <path class="st2" d="M53.67,194.81h-11.08c-1.37,0-2.37-1.01-2.37-2.37v-10.88c.01-1.29.96-2.24,2.29-2.24l11.04.02c1.25,0,2.13.89,2.14,2.14l.02,11.04c0,1.18-.73,2.1-2.03,2.3Z"/>
      </g>
      <g>
        <path class="st1" d="M115.07,199.66l-11.35.02c-4.01,0-7.18-3.12-7.18-7.16v-11.06c-.01-3.97,3.02-7.24,7.01-7.24h11.45c4,0,7.02,3.26,7.02,7.24l-.02,11.05c0,3.84-2.89,7.14-6.93,7.14ZM115.04,194.81c1.29-.3,1.98-1.13,1.98-2.3v-11.01c-.01-1.21-.84-1.99-2.01-2.18h-11.48c-1.18.19-2,.96-2,2.18v11.01c0,1.34.9,2.16,2.17,2.3h11.33Z"/>
        <path class="st2" d="M115.04,194.81h-11.33c-1.27-.14-2.18-.97-2.18-2.3v-11.01c0-1.22.83-1.99,2.01-2.18h11.48c1.17.19,2,.96,2,2.18v11.01c.01,1.18-.69,2.01-1.97,2.3Z"/>
      </g>
      <g>
        <path class="st1" d="M84.35,230.36l-11.34.03c-3.98,0-7.17-3.12-7.16-7.07l.02-11.51c0-3.9,3.24-6.87,7.14-6.87h11.04c4.05-.01,7.25,3.07,7.26,7.11l.02,10.99c0,3.88-2.79,7.33-6.98,7.34ZM84.03,225.4c1.29,0,2.12-.85,2.31-2.08l-.02-11.26c0-1.26-1.01-2.14-2.28-2.14h-11c-1.17.01-2.15.86-2.16,2.08l-.03,11.02c0,1.34.84,2.37,2.18,2.37h11.01Z"/>
        <path class="st2" d="M84.03,225.4h-11.01c-1.34-.01-2.18-1.04-2.18-2.38l.03-11.02c0-1.22.98-2.07,2.16-2.07h11c1.27-.01,2.28.87,2.28,2.13l.02,11.26c-.19,1.23-1.01,2.08-2.31,2.08Z"/>
      </g>
      <g>
        <path class="st1" d="M53.35,230.4h-10.85c-4.17,0-7.29-3.25-7.28-7.39l.02-10.98c0-4.03,3.22-7.12,7.27-7.12h11.04c3.9.01,7.02,2.98,7.13,6.89s.1,7.62,0,11.5-3.17,7.11-7.34,7.11ZM53.75,225.35c1.34,0,1.96-1.27,1.96-2.33l-.02-11.03c0-1.22-.98-2.07-2.16-2.07h-11c-1.27-.01-2.28.87-2.28,2.13l-.02,11.26c.19,1.22,1.01,2.09,2.31,2.08l11.23-.05Z"/>
        <path class="st2" d="M53.75,225.35l-11.23.05c-1.3,0-2.12-.86-2.31-2.08l.02-11.26c0-1.26,1.01-2.14,2.28-2.14h11c1.17.01,2.15.86,2.16,2.08l.02,11.03c0,1.06-.61,2.32-1.96,2.33Z"/>
      </g>
      <g>
        <path class="st1" d="M145.33,138.4h-10.83c-4.19,0-7.39-3.18-7.38-7.37l.02-11.03c0-4.08,3.3-7.09,7.36-7.08l11.05.02c3.95,0,7.03,3.1,7.04,7.05l.02,11.04c0,4.06-2.98,7.38-7.29,7.38ZM145.75,133.44c1.22,0,1.69-1.06,1.86-1.93l-.04-11.51c0-1.13-.93-1.98-2.04-1.98l-11-.03c-1.51,0-2.42,1.04-2.42,2.51v10.5c0,1.45.92,2.51,2.42,2.5l11.21-.07Z"/>
        <path class="st2" d="M145.75,133.44l-11.21.07c-1.5,0-2.42-1.06-2.42-2.5v-10.5c0-1.46.91-2.51,2.42-2.51l11,.03c1.11,0,2.03.85,2.04,1.98l.04,11.51c-.18.87-.64,1.92-1.86,1.93Z"/>
      </g>
      <g>
        <path class="st1" d="M114.85,230.39l-10.84.02c-4.24,0-7.49-3.13-7.48-7.39l.02-11.05c0-4.12,3.38-7.08,7.46-7.07l11.05.04c3.89.01,6.94,3.14,6.95,7.03v11.05c.02,3.97-2.93,7.35-7.15,7.36ZM114.76,225.39c1.49,0,2.28-1.15,2.28-2.39l-.04-11.01c0-1.1-.83-2.04-1.97-2.04h-11.5c-1.14,0-1.97.94-1.97,2.04l-.04,11.01c0,1.49,1.04,2.42,2.51,2.42l10.73-.03Z"/>
        <path class="st2" d="M114.76,225.39l-10.73.03c-1.46,0-2.51-.93-2.51-2.42l.04-11.01c0-1.1.83-2.04,1.97-2.04h11.5c1.14,0,1.96.94,1.97,2.04l.04,11.01c0,1.24-.79,2.38-2.28,2.39Z"/>
      </g>
      <g>
        <path class="st1" d="M114.85,138.39l-10.83.02c-4.26,0-7.49-3.13-7.49-7.39v-10.54c-.02-4.33,3.14-7.59,7.5-7.58l11.03.04c3.89.01,6.94,3.14,6.95,7.03v11.05c.02,3.97-2.93,7.35-7.15,7.36ZM117.02,131.51l-.04-11.51c0-1.05-.89-1.95-1.95-1.95h-11.51c-1.05-.02-1.95.91-1.95,1.95v11.51c0,1.04.9,1.94,1.95,1.95,2.55.03,14.81.97,13.49-1.95Z"/>
        <path class="st2" d="M117.02,131.51c1.32,2.92-10.94,1.98-13.49,1.95-1.05-.01-1.95-.91-1.95-1.95v-11.51c0-1.05.9-1.97,1.95-1.97h11.51c1.06.02,1.95.92,1.95,1.97l.04,11.51Z"/>
      </g>
    </g>
    <g>
      <path class="st5" d="M242.83,197.99c0,29.23-23.7,52.93-52.93,52.93s-52.93-23.7-52.93-52.93,23.7-52.93,52.93-52.93,52.93,23.7,52.93,52.93ZM235.32,197.99c0-25.12-20.37-45.49-45.49-45.49s-45.49,20.37-45.49,45.49,20.37,45.49,45.49,45.49,45.49-20.37,45.49-45.49Z"/>
      <path class="st1" d="M235.32,197.99c0,25.12-20.37,45.49-45.49,45.49s-45.49-20.37-45.49-45.49,20.37-45.49,45.49-45.49,45.49,20.37,45.49,45.49ZM230.33,198c0-22.37-18.13-40.5-40.5-40.5s-40.5,18.13-40.5,40.5,18.13,40.5,40.5,40.5,40.5-18.13,40.5-40.5Z"/>
      <path class="st0" d="M230.33,198c0,22.37-18.13,40.5-40.5,40.5s-40.5-18.13-40.5-40.5,18.13-40.5,40.5-40.5,40.5,18.13,40.5,40.5ZM172.4,216.05l13.69-11.43c4.21,1.94,8.72.47,10.57-3.57,1.73-3.76.04-8.26-4.26-10.12l-.06-25.91c0-1.68-1.1-2.67-2.56-2.65-1.11.01-2.4.86-2.41,2.32l-.12,26.25c-3.93,1.77-5.8,5.54-4.45,9.78l-13.99,11.98c-1.11.95-.69,2.76.24,3.51.85.69,2.16.84,3.36-.16Z"/>
      <g>
        <path class="st1" d="M172.4,216.05c-1.19,1-2.51.85-3.36.16-.92-.75-1.35-2.56-.24-3.51l13.99-11.98c-1.35-4.23.52-8.01,4.45-9.78l.12-26.25c0-1.46,1.3-2.31,2.41-2.32,1.46-.02,2.56.97,2.56,2.65l.06,25.91c4.3,1.86,5.99,6.36,4.26,10.12-1.85,4.03-6.36,5.51-10.57,3.57l-13.69,11.43ZM192.3,197.99c0-1.36-1.1-2.47-2.47-2.47s-2.47,1.1-2.47,2.47,1.1,2.47,2.47,2.47,2.47-1.1,2.47-2.47Z"/>
        <circle class="st4" cx="189.83" cy="197.99" r="2.47"/>
      </g>
    </g>
  </g>
</svg>