<?xml version="1.0" encoding="UTF-8"?>
<svg id="Objects" xmlns="http://www.w3.org/2000/svg" viewBox="0 0 256 256">
  <defs>
    <style>
      .cls-1 {
        fill: #fff;
      }

      .cls-2 {
        fill: #dd3737;
      }
    </style>
  </defs>
  <circle class="cls-2" cx="128" cy="128" r="126.5"/>
  <g>
    <path class="cls-1" d="M75.35,89.89l11.88,97.01c.7,5.7,5.54,9.98,11.28,9.98h58.98c5.74,0,10.58-4.28,11.28-9.98l11.88-97.01h-105.3ZM107.98,181.36c-.09,0-.18.01-.27.01-1.73,0-3.2-1.33-3.35-3.09l-5.62-69.26c-.15-1.85,1.23-3.47,3.08-3.62,1.85-.15,3.47,1.23,3.62,3.08l5.62,69.26c.15,1.85-1.23,3.47-3.08,3.62ZM131.36,178.01c0,1.86-1.5,3.36-3.36,3.36s-3.36-1.5-3.36-3.36v-69.26c0-1.86,1.5-3.36,3.36-3.36s3.36,1.51,3.36,3.36v69.26ZM157.25,109.02l-5.62,69.26c-.14,1.76-1.61,3.09-3.35,3.09-.09,0-.18,0-.27-.01-1.85-.15-3.23-1.77-3.08-3.62l5.62-69.26c.15-1.85,1.77-3.23,3.62-3.08,1.85.15,3.23,1.77,3.08,3.62Z"/>
    <path class="cls-1" d="M185.11,74.1h-30.56c-1.37,0-2.6-.87-3.05-2.17l-2.41-6.9c-1.23-3.53-4.57-5.91-8.31-5.91h-25.56c-3.74,0-7.08,2.37-8.31,5.91l-2.41,6.9c-.45,1.3-1.68,2.17-3.05,2.17h-30.56c-1.55,0-2.8,1.25-2.8,2.8v5.38c0,1.55,1.25,2.8,2.8,2.8h114.22c1.55,0,2.8-1.25,2.8-2.8v-5.38c0-1.55-1.25-2.8-2.8-2.8ZM114.34,67.68c.19-.56.72-.93,1.31-.93h24.7c.59,0,1.11.37,1.31.93l2.24,6.42h-31.79l2.24-6.42Z"/>
  </g>
</svg>