<?xml version="1.0" encoding="UTF-8"?>
<svg id="Layer_1" xmlns="http://www.w3.org/2000/svg" version="1.1" viewBox="0 0 256 256">
  <!-- Generator: Adobe Illustrator 30.1.0, SVG Export Plug-In . SVG Version: 2.1.1 Build 136)  -->
  <defs>
    <style>
      .st0 {
        fill: #0c5178;
      }

      .st1 {
        fill: #f9b300;
      }

      .st2 {
        fill: #009fc7;
      }

      .st3 {
        fill: #eeeced;
      }

      .st4 {
        fill: #eec7a0;
      }

      .st5 {
        fill: #c70b50;
      }
    </style>
  </defs>
  <path class="st1" d="M132.92,145.69l.02,9.44.02,13.71h84.37c6.17,1.2,11.4,5.72,11.44,11.98l.05,11.05c-3.02-.43-6.08-.43-9.1,0l-.02-9.83c-.68-1.98-2-3.41-4.13-4.06h-82.6s-.04,13.89-.04,13.89c-3.02-.43-6.08-.43-9.1,0l-.04-13.9H41.18c-2.13.65-3.45,2.09-4.13,4.07l-.02,9.83c-3.02-.43-6.08-.43-9.1,0l.05-11.05c.04-6.26,5.27-10.78,11.44-11.99h84.37s.02-13.69.02-13.69l.02-9.44c3.02.43,6.08.43,9.09,0Z"/>
  <path class="st5" d="M64.58,223.64c0-17.73-14.37-32.1-32.1-32.1S.37,205.91.37,223.64s14.37,32.1,32.1,32.1,32.1-14.37,32.1-32.1ZM13.84,236.85c4.27,6.04,11.21,9.64,18.61,9.64,7.4,0,14.35-3.57,18.63-9.6,6.73-9.47,5.28-22.49-3.38-30.24s-21.75-7.77-30.42-.03-10.15,20.74-3.44,30.23Z"/>
  <path class="st0" d="M25.02,220.76c.71.01,1.3.41,1.99.96,6.41,5.1,12.1-1.35,12.94-.99,6.42,2.73,10.34,9.06,11.14,16.17-4.29,6.03-11.23,9.61-18.63,9.6-7.4,0-14.34-3.6-18.61-9.64.85-7.1,4.74-13.39,11.18-16.1Z"/>
  <path class="st3" d="M51.09,236.89c-.79-7.11-4.72-13.44-11.14-16.17,1.81-4.72,3.02-9.43-1.8-13.34-3.16-2.57-7.7-2.68-11-.27s-4.85,7.06-2.95,11.15c.42.91.85,1.67.83,2.5-6.43,2.7-10.32,9-11.18,16.1-6.71-9.48-5.23-22.5,3.44-30.23s21.77-7.72,30.42.03,10.11,20.77,3.38,30.24Z"/>
  <path class="st4" d="M39.95,220.73c-.83-.36-6.53,6.09-12.94.99-.69-.55-1.29-.95-1.99-.96.02-.83-.4-1.59-.83-2.5-1.9-4.08-.48-8.65,2.95-11.15s7.84-2.3,11,.27c4.82,3.91,3.61,8.62,1.8,13.34Z"/>
  <path class="st5" d="M256.37,223.64c0-17.73-14.37-32.1-32.1-32.1s-32.1,14.37-32.1,32.1,14.37,32.1,32.1,32.1,32.1-14.37,32.1-32.1ZM205.64,236.85c4.27,6.04,11.21,9.63,18.61,9.64,7.4,0,14.35-3.57,18.63-9.6,6.73-9.47,5.28-22.49-3.38-30.24-8.66-7.75-21.75-7.77-30.43-.03-8.67,7.73-10.15,20.75-3.44,30.23Z"/>
  <path class="st0" d="M216.81,220.76c.71.01,1.3.41,1.99.96,6.42,5.1,12.1-1.35,12.94-.99,6.42,2.73,10.34,9.06,11.14,16.17-4.29,6.03-11.23,9.61-18.63,9.6-7.4,0-14.34-3.6-18.61-9.64.85-7.1,4.74-13.39,11.18-16.1Z"/>
  <path class="st3" d="M242.88,236.89c-.79-7.11-4.72-13.44-11.14-16.17,1.81-4.72,3.02-9.43-1.8-13.34-3.17-2.57-7.7-2.68-11-.27s-4.85,7.06-2.95,11.15c.42.91.85,1.67.83,2.5-6.43,2.7-10.32,9-11.18,16.1-6.71-9.48-5.23-22.5,3.44-30.23,8.67-7.73,21.77-7.72,30.43.03,8.66,7.75,10.11,20.77,3.38,30.24Z"/>
  <path class="st4" d="M231.75,220.73c-.84-.36-6.52,6.09-12.94.99-.69-.55-1.29-.95-1.99-.96.02-.83-.4-1.59-.83-2.5-1.9-4.08-.48-8.65,2.95-11.15s7.84-2.3,11,.27c4.82,3.91,3.61,8.62,1.8,13.34Z"/>
  <path class="st5" d="M160.48,223.64c0-17.73-14.37-32.1-32.1-32.1s-32.1,14.37-32.1,32.1,14.37,32.1,32.1,32.1,32.1-14.37,32.1-32.1ZM109.74,236.85c4.27,6.04,11.21,9.63,18.61,9.64s14.35-3.57,18.63-9.6c6.73-9.47,5.28-22.49-3.38-30.24-8.66-7.75-21.75-7.77-30.43-.03s-10.15,20.75-3.44,30.23Z"/>
  <path class="st0" d="M120.92,220.76c.71.01,1.3.41,1.99.96,6.41,5.1,12.1-1.35,12.94-.99,6.42,2.73,10.34,9.06,11.14,16.17-4.29,6.03-11.23,9.61-18.63,9.6s-14.34-3.6-18.61-9.64c.85-7.1,4.74-13.39,11.18-16.1Z"/>
  <path class="st3" d="M146.99,236.89c-.79-7.11-4.72-13.44-11.14-16.17,1.81-4.72,3.02-9.43-1.8-13.34-3.17-2.57-7.7-2.68-11-.27s-4.85,7.06-2.95,11.15c.42.91.85,1.67.83,2.5-6.43,2.7-10.32,9-11.18,16.1-6.71-9.48-5.23-22.5,3.44-30.23s21.77-7.72,30.43.03c8.66,7.75,10.11,20.77,3.38,30.24Z"/>
  <path class="st4" d="M135.85,220.73c-.83-.36-6.53,6.09-12.94.99-.69-.55-1.29-.95-1.99-.96.02-.83-.4-1.59-.83-2.5-1.9-4.08-.48-8.65,2.95-11.15s7.84-2.3,11,.27c4.82,3.91,3.61,8.62,1.8,13.34Z"/>
  <path class="st2" d="M201.44,63.8H55.31l-4.59.05c-2.26.02-4.5-1.66-4.51-4.04l-.07-13.11c1.04-1.79,2.49-2.71,4.37-3.76L125.15,1.43c2.37-1.32,4.08-1.32,6.45,0l74.65,41.51c1.88,1.04,3.33,1.97,4.37,3.76l-.07,13.11c-.01,2.38-2.25,4.07-4.51,4.04l-4.59-.05ZM146.63,36.4c0-10.08-8.17-18.25-18.25-18.25s-18.25,8.17-18.25,18.25,8.17,18.25,18.25,18.25,18.25-8.17,18.25-18.25Z"/>
  <path class="st0" d="M201.44,63.8l.03,4.6c.02,2.62-1.94,4.58-4.57,4.56l-4.6-.03h-127.86l-4.6.03c-2.62.01-4.58-1.95-4.57-4.56l.03-4.6h146.13Z"/>
  <path class="st3" d="M146.63,36.4c0,10.08-8.17,18.25-18.25,18.25s-18.25-8.17-18.25-18.25,8.17-18.25,18.25-18.25,18.25,8.17,18.25,18.25ZM137.49,36.4c0-5.04-4.08-9.12-9.12-9.12s-9.12,4.08-9.12,9.12,4.08,9.12,9.12,9.12,9.12-4.08,9.12-9.12Z"/>
  <circle class="st0" cx="128.37" cy="36.4" r="9.12"/>
  <path class="st2" d="M55.31,136.9l50.45-.25c4.89,4.88,11.23,8.06,18.07,9.04l-.02,9.44-73.51.05c-2.51-.37-4.14-2.12-4.14-4.59v-9.18c0-2.62,1.93-4.57,4.56-4.55l4.6.04Z"/>
  <path class="st2" d="M201.44,136.9l4.6-.04c2.63-.02,4.56,1.93,4.56,4.55v9.24c0,2.14-1.63,4.5-4.14,4.5h-73.51s-.02-9.45-.02-9.45c6.84-.98,13.18-4.15,18.07-9.04l50.45.24Z"/>
  <path class="st0" d="M64.44,127.74h18.27l16.74-.03c1.57,3.32,3.71,6.35,6.31,8.95l-50.45.25-.03-4.63c-.02-2.62,1.94-4.58,4.57-4.56l4.6.03Z"/>
  <path class="st0" d="M174.04,127.74h18.27l4.6-.03c2.62-.01,4.58,1.95,4.57,4.56l-.03,4.63-50.45-.24c2.6-2.6,4.74-5.63,6.31-8.95l16.74.03Z"/>
  <rect class="st1" x="64.44" y="72.94" width="18.27" height="54.8"/>
  <rect class="st1" x="174.04" y="72.94" width="18.27" height="54.8"/>
  <path class="st1" d="M119.24,72.94l-.04,10.41c-7.46,2.23-13.84,7.1-17.97,13.7l-.26-24.11h18.27Z"/>
  <path class="st1" d="M155.77,72.94l-.32,24c-4.13-6.55-10.49-11.38-17.91-13.6l-.04-10.41h18.27Z"/>
  <path class="st5" d="M160.38,114.01c0-17.68-14.33-32.01-32.01-32.01s-32.01,14.33-32.01,32.01,14.33,32.01,32.01,32.01,32.01-14.33,32.01-32.01ZM109.74,127.25c4.27,6.04,11.21,9.63,18.61,9.64,7.4,0,14.34-3.57,18.63-9.6,6.73-9.47,5.28-22.48-3.37-30.23s-21.75-7.76-30.42-.03c-8.67,7.73-10.15,20.75-3.44,30.23Z"/>
  <path class="st0" d="M120.92,111.16c.71.01,1.3.41,1.99.96,6.41,5.1,12.1-1.35,12.94-.99,6.42,2.73,10.34,9.06,11.13,16.16-4.29,6.03-11.23,9.61-18.63,9.6-7.4,0-14.33-3.6-18.61-9.64.85-7.1,4.74-13.39,11.17-16.09Z"/>
  <path class="st3" d="M146.98,127.29c-.79-7.11-4.71-13.43-11.13-16.16,1.81-4.72,3.02-9.43-1.8-13.34-3.17-2.57-7.7-2.68-11-.27s-4.85,7.06-2.95,11.15c.42.91.85,1.67.83,2.5-6.43,2.7-10.32,9-11.17,16.09-6.71-9.48-5.23-22.49,3.44-30.23,8.67-7.73,21.77-7.72,30.42.03s10.11,20.77,3.37,30.23Z"/>
  <path class="st4" d="M135.85,111.13c-.84-.36-6.53,6.09-12.94.99-.69-.55-1.29-.95-1.99-.96.02-.83-.4-1.59-.83-2.5-1.9-4.08-.48-8.65,2.95-11.15s7.84-2.3,11,.27c4.82,3.91,3.61,8.62,1.8,13.34Z"/>
</svg>