<?xml version="1.0" encoding="UTF-8"?>
<svg id="Layer_1" xmlns="http://www.w3.org/2000/svg" version="1.1" viewBox="0 0 256 256">
  <!-- Generator: Adobe Illustrator 30.1.0, SVG Export Plug-In . SVG Version: 2.1.1 Build 136)  -->
  <defs>
    <style>
      .st0 {
        fill: #867d88;
      }

      .st1 {
        fill: #99c2f6;
      }

      .st2 {
        fill: #bbd5f8;
      }

      .st3 {
        fill: #030303;
      }

      .st4 {
        fill: #c8dffb;
      }

      .st5 {
        fill: #f8edd9;
      }
    </style>
  </defs>
  <g>
    <path class="st4" d="M218.81,23.15c2.11,3.69,2.39,7.78,2.02,11.97l-84.94.13c-5.41,0-9.61,4.06-9.62,9.41l-.03,21.53c0,1.95,1.4,3.91,3.67,4.03v9.87c-2,.28-3.67,1.71-3.67,4.05v23.49c0,5.52,4.06,9.77,9.67,9.79l84.92.17v18.01c-2.85.46-9.34-1.27-9.4,3.79-.02,2.08,1.53,3.74,3.85,3.8l5.59.14v9.59c-1.76.21-3.59.1-5.59.14-2.32.05-3.86,1.71-3.85,3.79.01,1.97,1.55,3.66,3.86,3.69,1.83.02,3.51.17,5.53.1l.15,15.95c.03,3.35-.75,6.1-2.2,8.83l-104.05.16V22.99s104.1.16,104.1.16ZM147.62,143.19c2.51,0,3.86-1.83,3.85-3.81-.01-1.84-1.44-3.63-3.64-3.64h-8.98c-2.21-.01-3.72,1.77-3.74,3.63-.02,2.02,1.46,3.8,3.71,3.81h8.8ZM173.1,143.18c2.67,0,4.03-2.09,3.76-4.27-.22-1.81-1.83-3.21-4.03-3.21l-8.53.03c-2.25,0-3.73,1.77-3.75,3.7s1.5,3.76,3.76,3.76h8.8ZM198.31,143.21c2.42,0,4.05-1.59,4.02-3.81-.03-2.03-1.62-3.7-4.02-3.69l-8.52.02c-2.28,0-3.78,1.74-3.81,3.67-.03,2.08,1.5,3.79,3.8,3.8l8.53.02ZM151.44,156.37c-.2-1.72-1.53-3.28-3.61-3.29h-9.02c-2.23-.01-3.72,1.77-3.7,3.78.02,1.84,1.49,3.64,3.7,3.65,5.62.03,13.25,1.35,12.63-4.14ZM173.09,160.53c2.63,0,4.01-2.1,3.79-4.16s-1.8-3.32-4.04-3.32l-8.54.02c-2.24,0-3.78,1.75-3.75,3.79.03,1.88,1.52,3.67,3.75,3.67h8.79ZM198.57,160.52c2.61,0,3.95-2.13,3.74-4.16s-1.77-3.31-3.99-3.31h-8.53c-2.29.02-3.83,1.74-3.81,3.8.02,1.94,1.51,3.69,3.81,3.69h8.78Z"/>
    <path class="st2" d="M218.75,185.42c1.45-2.73,2.23-5.48,2.2-8.83l-.15-15.95,2.99-.11c2.36-.09,3.98-1.66,3.99-3.67.01-2.14-1.6-3.81-3.98-3.79-.99,0-1.82-.08-2.95-.15v-9.59c1.19.03,2.54-.15,3.93-.3,1.97-.21,3.01-2.01,2.99-3.64-.03-1.85-1.37-3.58-3.49-3.65l-3.48-.14v-18.01s5.5-.16,5.5-.16c5.75-.17,10.38-4.01,10.38-9.77l-.02-23.54c0-1.98-1.48-4.01-3.77-4.02v-9.97c2.05.06,3.78-1.74,3.78-3.93l.02-21.03c0-5.64-4.23-10-9.9-9.96-1.99.01-3.84.05-5.98-.08.37-4.19.09-8.29-2.02-11.97l22.49-.17c4.11-.03,7.47,2.8,7.47,7.3v148.23c-.01,4.27-3.51,7.11-7.46,7.08l-22.56-.17Z"/>
    <path class="st3" d="M198.31,143.21l-8.53-.02c-2.3,0-3.83-1.72-3.8-3.8.03-1.93,1.52-3.67,3.81-3.67l8.52-.02c2.4,0,3.99,1.66,4.02,3.69.03,2.22-1.6,3.82-4.02,3.81Z"/>
    <path class="st3" d="M220.85,152.92c1.13.07,1.96.16,2.95.15,2.38-.02,4,1.64,3.98,3.79-.01,2.01-1.63,3.58-3.99,3.67l-2.99.11c-2.02.08-3.69-.07-5.53-.1-2.3-.03-3.84-1.72-3.86-3.69-.01-2.08,1.53-3.75,3.85-3.79,2-.04,3.84.06,5.58-.14Z"/>
    <path class="st3" d="M173.1,143.18h-8.8c-2.25,0-3.78-1.76-3.76-3.76s1.51-3.69,3.75-3.7l8.53-.03c2.2,0,3.81,1.4,4.03,3.21.27,2.18-1.09,4.27-3.76,4.27Z"/>
    <path class="st3" d="M220.81,135.6l3.48.14c2.12.08,3.46,1.8,3.49,3.65.02,1.63-1.02,3.43-2.99,3.64-1.39.15-2.74.33-3.92.3l-5.59-.14c-2.32-.06-3.88-1.71-3.85-3.8.06-5.06,6.55-3.33,9.39-3.79Z"/>
    <path class="st3" d="M198.57,160.52h-8.78c-2.3.01-3.79-1.73-3.81-3.67-.02-2.06,1.52-3.78,3.81-3.78h8.53c2.22-.02,3.79,1.36,3.99,3.29.21,2.03-1.13,4.16-3.74,4.16Z"/>
    <path class="st3" d="M173.09,160.53h-8.79c-2.24,0-3.72-1.78-3.75-3.67-.03-2.04,1.51-3.79,3.75-3.79l8.54-.02c2.24,0,3.84,1.36,4.04,3.32.22,2.06-1.17,4.16-3.79,4.16Z"/>
    <path class="st3" d="M151.44,156.37c.62,5.5-7.01,4.17-12.63,4.14-2.22-.01-3.69-1.82-3.7-3.65-.02-2.01,1.47-3.79,3.7-3.78h9.02c2.08.01,3.41,1.57,3.61,3.3Z"/>
    <path class="st3" d="M147.62,143.19h-8.8c-2.25-.01-3.73-1.79-3.71-3.82.02-1.86,1.53-3.64,3.74-3.64h8.98c2.2.01,3.63,1.81,3.64,3.65.02,1.98-1.34,3.81-3.85,3.81Z"/>
    <g>
      <path class="st5" d="M232.9,70.12v9.97c-2.03-.01-3.73,1.92-3.73,4.02v23.52c0,1.16-.61,1.93-1.69,2.29l-9.55-.04c-3.55-9.9-10.43-17.84-20.4-22.55,6.1-8.57,5.06-19.88-2.41-26.86s-19.34-7.17-27.03-.29-9.12,18.37-2.66,27.12c-9.73,4.56-16.88,12.46-20.46,22.54l-9.15.05c-1.33-.08-2.09-.93-2.09-2.27v-23.5c0-2.22-1.56-3.72-3.83-4.05v-9.87c2.07.11,3.83-1.89,3.83-4.02l.04-21.54c0-1.12.91-1.94,2.14-1.94h90.78c1.36.01,2.43.69,2.44,2.01l.04,21.43c0,2.03,1.39,3.89,3.72,3.96Z"/>
      <path class="st3" d="M232.9,80.09c2.3.02,3.77,2.05,3.77,4.02l.02,23.54c0,5.76-4.63,9.6-10.38,9.77l-5.49.16-84.92-.17c-5.61-.01-9.68-4.26-9.68-9.79v-23.49c0-2.34,1.68-3.77,3.68-4.05,2.27.33,3.83,1.83,3.83,4.05v23.5c0,1.34.77,2.19,2.1,2.27l9.15-.05c3.58-10.09,10.74-17.99,20.46-22.54-6.46-8.75-4.98-20.27,2.66-27.12s19.42-6.82,27.03.29,8.51,18.29,2.41,26.86c9.97,4.71,16.85,12.65,20.4,22.55l9.55.04c1.08-.36,1.69-1.13,1.69-2.29v-23.52c0-2.11,1.69-4.04,3.72-4.02ZM194.01,75.16c0-6.94-5.62-12.56-12.56-12.56s-12.56,5.62-12.56,12.56,5.62,12.56,12.56,12.56,12.56-5.62,12.56-12.56ZM190.78,92.88c-6.41,3.41-12.92,2.87-18.95,0-8.49,2.86-15.3,8.92-18.72,17.05l56.73-.06c-3.77-8.37-10.56-14.46-19.06-17Z"/>
      <path class="st3" d="M220.82,35.12c2.14.13,3.99.09,5.98.08,5.67-.04,9.91,4.31,9.9,9.96l-.02,21.03c0,2.2-1.73,3.99-3.78,3.93-2.33-.07-3.71-1.92-3.72-3.96l-.04-21.43c0-1.32-1.07-2-2.44-2h-90.78c-1.23-.01-2.14.8-2.14,1.92l-.04,21.54c0,2.13-1.76,4.13-3.84,4.02-2.27-.12-3.67-2.07-3.67-4.03l.03-21.53c0-5.35,4.2-9.4,9.62-9.41l84.94-.13Z"/>
      <path class="st0" d="M190.78,92.88c8.5,2.53,15.29,8.63,19.06,17l-56.73.06c3.43-8.13,10.23-14.19,18.72-17.05,6.03,2.87,12.54,3.41,18.95,0Z"/>
      <circle class="st0" cx="181.45" cy="75.16" r="12.56"/>
    </g>
  </g>
  <g>
    <path class="st1" d="M93.22,77.83c0-10.45-8.14-18.48-18.32-18.48h-16.56c-10.02,0-18.17,7.98-18.17,18v24.17c-.01,8.4,5.54,15.39,13.7,17.61l.03,10.83c-7.6-2.84-15.37.9-17.48,8.93-3.08-1.11-5.86-1.3-9.24-.68V30.26c.08-4.22,3.02-7.27,7.27-7.27h72.73s0,162.58,0,162.58l-13.23-.03-.03-25.93c-.29-7.77-6.79-13.51-14.6-12.49l.02-27.94c8.25-2.17,13.69-9.09,13.86-17.51v-23.82Z"/>
    <g>
      <path class="st3" d="M256.27,26.68v154.92c-1.85,5.43-5.9,11.35-12.63,11.36l-150.19.16c-1.18,5.92-3.45,11.32-6.96,16.07l-6.29,8.5c1.79,1.52,3.21,3.43,3.13,5.89-.09,2.88.34,5.57-.08,8.56-.57,4.07-4.51,7.86-8.96,7.86H15.48c-4.24,0-8.29-3.55-8.89-7.42-.51-3.27-.13-6.29-.1-9.46.03-2.61,1.9-4.67,3.89-6.2l-8.07-19.6c-1.07-2.6-4.78-16.39,1.67-16.28,6.03.11,2.24,6.31,6.39,16.05l7.78,18.22h54.69c6.54-10.45,13.56-15.53,13.56-29.21v-25.97c.01-2.06-1.01-3.66-2.26-4.6-3.5-2.64-6.31,1.45-10.33-2.07-1.34-1.17-1.99-2.76-2-4.85l-.06-50.29c0-2.96-2.65-5-5.12-4.99s-5.12,2.02-5.13,4.98l-.07,43.34c0,2.32-1.79,3.8-3.8,3.79s-3.58-1.56-3.68-3.76c-.14-3.06-2.52-5.18-5.32-5.09-2.61.09-4.94,2.15-4.97,5.06l-.07,8.82c-.02,2.32-1.81,3.87-3.96,3.77-1.84-.08-3.43-1.56-3.54-3.7-.16-3.08-2.5-5.29-5.46-5.14-2.59.13-4.84,2.29-4.86,5.24l-.03,5c-.01,2.19-1.74,3.7-3.6,3.76-6.08.18-1.68-8.74-9.01-8.85-2.65-.04-5.19,2.13-5.19,5.13v11c-.01,2.47-1.73,4.25-4.05,4.41-1.86.13-3.66-1.92-3.53-3.91.56-8.55-2.6-18.34,7.31-23.11,3.97-1.92,8.1-1.58,11.65.59l.24-115.77c.01-6.72,6.56-13.53,13.54-13.53l209.43-.04c6.97,0,11.69,5.79,13.73,11.41ZM93.22,77.83v23.82c-.18,8.42-5.62,15.34-13.87,17.51l-.02,27.94c7.81-1.02,14.31,4.72,14.6,12.49l.03,25.93,13.23.03V22.99s-72.72,0-72.72,0c-4.26,0-7.19,3.05-7.29,7.27v107.96c3.39-.62,6.17-.43,9.25.68,2.11-8.03,9.88-11.77,17.48-8.93l-.03-10.83c-8.16-2.22-13.71-9.21-13.71-17.61v-24.17c.01-10.02,8.16-17.99,18.18-17.99h16.56c10.18,0,18.33,8.02,18.32,18.47ZM218.75,185.42l22.56.17c3.95.03,7.45-2.81,7.45-7.08V30.28c.01-4.5-3.34-7.33-7.46-7.3l-22.49.17-104.1-.16v162.59s104.05-.16,104.05-.16ZM79.25,97.84l.15,13.23c4.09-1.59,6.3-5.62,6.3-9.98v-23.4c0-5.94-4.57-10.81-10.54-10.81h-17.09c-5.87.01-10.43,4.87-10.42,10.75l.03,24.01c0,4.13,2.36,7.83,6.18,9.39.08-3.91.21-7.55.04-11.4-.33-7.25,4.69-13.29,11.75-13.84s13.51,4.57,13.59,12.05ZM13.9,222.74v9.51s61.94.02,61.94.02v-9.51s-61.94-.02-61.94-.02Z"/>
      <path class="st5" d="M3.98,181.03l-.07-9.97c2.32-.16,4.04-1.94,4.04-4.41v-11c.01-3,2.55-5.17,5.2-5.13,7.33.11,2.93,9.03,9.01,8.85,1.86-.06,3.59-1.57,3.6-3.76l.03-5c.02-2.95,2.27-5.11,4.86-5.24,2.96-.15,5.29,2.06,5.46,5.14.11,2.13,1.7,3.62,3.54,3.7,2.14.1,3.94-1.45,3.96-3.77l.07-8.82c.02-2.91,2.35-4.98,4.97-5.06,2.79-.09,5.17,2.03,5.32,5.09.1,2.21,1.77,3.75,3.68,3.76,2.02.01,3.8-1.47,3.8-3.79l.07-43.34c0-2.95,2.54-4.97,5.13-4.98s5.12,2.04,5.12,4.99l.06,50.29c0,2.09.66,3.68,2,4.85,4.02,3.53,6.83-.56,10.33,2.07,1.25.94,2.27,2.55,2.27,4.6v25.97c-.02,13.68-7.03,18.76-13.58,29.2H18.15s-7.78-18.21-7.78-18.21c-4.16-9.73-.37-15.94-6.39-16.05Z"/>
      <path class="st0" d="M79.25,97.84c-.09-7.48-6.76-12.59-13.59-12.05s-12.08,6.59-11.75,13.84c.18,3.85.04,7.49-.04,11.4-3.82-1.56-6.17-5.26-6.18-9.39l-.03-24.01c0-5.88,4.55-10.74,10.42-10.74h17.09c5.97-.01,10.54,4.86,10.54,10.8v23.4c0,4.35-2.21,8.38-6.3,9.98l-.15-13.23Z"/>
      <rect class="st0" x="40.11" y="196.54" width="9.51" height="61.94" transform="translate(-182.65 272.31) rotate(-89.98)"/>
    </g>
  </g>
</svg>