<?xml version="1.0" encoding="UTF-8"?>
<svg id="Layer_1" xmlns="http://www.w3.org/2000/svg" version="1.1" viewBox="0 0 256 256">
  <!-- Generator: Adobe Illustrator 30.1.0, SVG Export Plug-In . SVG Version: 2.1.1 Build 136)  -->
  <defs>
    <style>
      .st0 {
        fill: #867d88;
      }

      .st1 {
        fill: #99c2f6;
      }

      .st2 {
        fill: #f8edd9;
      }
    </style>
  </defs>
  <path class="st1" d="M93.22,77.83c0-10.45-8.14-18.48-18.32-18.48h-16.56c-10.02,0-18.17,7.98-18.17,18v24.17c0,8.4,5.54,15.39,13.7,17.61l.03,10.83c-7.6-2.84-15.37.9-17.48,8.93-3.08-1.11-5.86-1.3-9.24-.68V30.26c.08-4.22,3.02-7.27,7.27-7.27h72.73v162.58l-13.23-.03-.03-25.93c-.29-7.77-6.79-13.51-14.6-12.49l.02-27.94c8.25-2.17,13.69-9.09,13.86-17.51v-23.82l.02-.02Z"/>
  <g>
    <path d="M256.26,26.73c-2.04-5.62-6.76-11.41-13.73-11.41l-209.43.04c-6.98,0-13.53,6.81-13.54,13.53l-.24,115.77c-3.55-2.17-7.68-2.51-11.65-.59-9.91,4.77-6.75,14.56-7.31,23.11-.13,1.99,1.67,4.04,3.53,3.91h.02c.73-.05,1.39-.27,1.97-.62.11-.07.22-.15.33-.22.2-.15.4-.32.57-.5.37-.4.66-.87.86-1.39.1-.25.17-.51.22-.79.03-.14.05-.28.06-.43.01-.15.02-.3.02-.46v-11c0-.2.01-.39.04-.58.03-.34.1-.68.21-1,.01-.03.02-.07.04-.1.04-.14.09-.27.16-.4.06-.15.13-.29.21-.43.16-.29.35-.56.57-.81.1-.13.22-.25.34-.36.97-.93,2.28-1.47,3.62-1.45,7.33.11,2.93,9.03,9.01,8.85.94-.03,1.85-.43,2.51-1.11.33-.32.6-.71.79-1.15.04-.11.09-.22.13-.34.11-.36.17-.75.17-1.16l.03-5c.01-1.11.33-2.1.87-2.92.17-.27.37-.53.6-.76.88-.92,2.1-1.5,3.39-1.56,2.96-.15,5.3,2.06,5.46,5.14.11,2.14,1.7,3.62,3.54,3.7,1.37.06,2.59-.54,3.3-1.59.14-.2.26-.41.35-.64.2-.46.3-.98.31-1.54l.07-8.82c0-.36.04-.71.12-1.05.05-.19.09-.38.16-.56.04-.15.09-.29.16-.43.06-.14.12-.27.2-.41.87-1.56,2.54-2.55,4.33-2.61,2.8-.09,5.18,2.03,5.32,5.09.1,2.2,1.67,3.75,3.68,3.76,1.02.01,1.99-.38,2.68-1.06.34-.32.62-.71.81-1.16.2-.47.31-.99.31-1.57l.07-43.34c0-.37.04-.73.12-1.06.05-.18.09-.35.15-.53.75-2.07,2.86-3.38,4.86-3.39,2.47-.01,5.12,2.03,5.12,4.99l.06,50.29c.01,2.09.66,3.68,2,4.85,4.02,3.52,6.83-.57,10.33,2.07,1.25.94,2.27,2.54,2.26,4.6v25.97c0,4.68-.83,8.36-2.17,11.59-1.48,3.55-3.59,6.55-5.93,9.76-.38.53-.76,1.06-1.16,1.59-.01.01-.02.02-.02.03-1.4,1.92-2.85,3.95-4.28,6.24H18.15l-7.78-18.22c-.6-1.41-1.04-2.75-1.35-4.01-.24-.92-.42-1.79-.56-2.62-.06-.42-.12-.82-.17-1.21-.14-1.03-.23-1.97-.31-2.82-.09-.91-.18-1.72-.32-2.41-.12-.58-.28-1.08-.52-1.5-.54-.93-1.46-1.45-3.16-1.48-6.45-.11-2.74,13.68-1.67,16.28l8.07,19.6c-1.99,1.53-3.86,3.59-3.89,6.2-.03,3.17-.41,6.19.1,9.46.6,3.87,4.65,7.42,8.89,7.42h58.81c4.45,0,8.39-3.79,8.96-7.86.42-2.99-.01-5.68.08-8.56.08-2.46-1.34-4.37-3.13-5.89l6.29-8.5c3.51-4.75,5.78-10.15,6.96-16.07l150.19-.16c6.73-.01,10.78-5.93,12.63-11.36V26.68v.05ZM13.9,232.25v-9.51l61.94.02v9.51l-61.94-.02ZM83.94,71.66c.19.29.37.59.53.9.79,1.53,1.23,3.28,1.23,5.13v23.4c0,1.36-.21,2.69-.64,3.93-.92,2.71-2.84,4.95-5.65,6.05h0l-.15-13.23h-.01c0-.22-.01-.44-.02-.66-.04-.66-.13-1.29-.27-1.9-1.17-5.33-5.76-9-11.09-9.47-.73-.07-1.46-.08-2.2-.02-.22.02-.43.04-.65.06-6.72.86-11.43,6.75-11.11,13.78.17,3.85.04,7.49-.04,11.4-.72-.3-1.38-.67-1.99-1.09-2.63-1.87-4.19-4.94-4.19-8.3l-.03-24.01c0-2.57.87-4.95,2.35-6.81.01,0,0-.01,0-.01,1.05-1.33,2.41-2.39,3.97-3.07.78-.35,1.62-.59,2.49-.73.35-.06.7-.1,1.06-.11h.01c.18-.01.36-.02.54-.02h17.09c.57,0,1.13.04,1.67.14.7.11,1.39.29,2.04.53.31.12.62.25.92.4.31.15.62.32.92.51.28.18.56.37.82.58.41.31.8.65,1.15,1.03.47.49.89,1.02,1.26,1.59ZM107.19,185.55l-13.23-.03-.03-25.93c-.29-7.77-6.79-13.51-14.6-12.49l.02-27.94c8.25-2.17,13.69-9.09,13.87-17.51v-23.82h.01c.01-10.44-8.14-18.46-18.32-18.46h-16.56c-10.02,0-18.17,7.97-18.18,17.99v24.17c0,8.4,5.55,15.39,13.71,17.61l.03,10.83c-7.6-2.84-15.37.9-17.48,8.93-3.08-1.11-5.86-1.3-9.25-.68V30.26c.1-4.22,3.03-7.27,7.29-7.27h72.72v162.56ZM248.76,178.51c0,4.27-3.5,7.11-7.45,7.08l-22.56-.17-104.04.16V22.99l104.1.16,22.49-.17c4.12-.03,7.47,2.8,7.46,7.3v148.23Z"/>
    <path class="st1" d="M248.76,30.28v148.23c0,4.27-3.5,7.11-7.45,7.08l-22.56-.17-104.04.16V22.99l104.1.16,22.49-.17c4.12-.03,7.47,2.8,7.46,7.3Z"/>
    <g>
      <path d="M155.06,109.28h8.55c1.32,0,2.39-1.07,2.39-2.39v-56.19c0-1.32,1.07-2.39,2.39-2.39h26.7c1.32,0,2.39,1.07,2.39,2.39v56.19c0,1.32,1.07,2.39,2.39,2.39h8.55c1.84,0,2.99,1.99,2.07,3.58l-26.67,46.2c-.92,1.59-3.22,1.59-4.14,0l-26.68-46.2c-.92-1.59.23-3.58,2.07-3.58Z"/>
      <path class="st1" d="M188.8,116.44v-57.95c0-.83-.68-1.51-1.51-1.51h-11.11c-.83,0-1.51.68-1.51,1.51v57.95c0,.83-.68,1.51-1.51,1.51h-4.6c-1.16,0-1.89,1.26-1.31,2.26l13.17,22.81c.58,1.01,2.03,1.01,2.62,0l13.17-22.81c.58-1.01-.15-2.26-1.31-2.26h-4.6c-.83,0-1.51-.68-1.51-1.51Z"/>
    </g>
    <path class="st2" d="M3.98,181.03l-.07-9.97c2.32-.16,4.04-1.94,4.04-4.41v-11c.01-3,2.55-5.17,5.2-5.13,7.33.11,2.93,9.03,9.01,8.85,1.86-.06,3.59-1.57,3.6-3.76l.03-5c.02-2.95,2.27-5.11,4.86-5.24,2.96-.15,5.29,2.06,5.46,5.14.11,2.13,1.7,3.62,3.54,3.7,2.14.1,3.94-1.45,3.96-3.77l.07-8.82c.02-2.91,2.35-4.98,4.97-5.06,2.79-.09,5.17,2.03,5.32,5.09.1,2.21,1.77,3.75,3.68,3.76,2.02,0,3.8-1.47,3.8-3.79l.07-43.34c0-2.95,2.54-4.97,5.13-4.98s5.12,2.04,5.12,4.99l.06,50.29c0,2.09.66,3.68,2,4.85,4.02,3.53,6.83-.56,10.33,2.07,1.25.94,2.27,2.55,2.27,4.6v25.97c-.02,13.68-7.03,18.76-13.58,29.2H18.15l-7.78-18.21c-4.16-9.73-.37-15.94-6.39-16.05v.02Z"/>
    <path class="st0" d="M79.25,97.84c-.09-7.48-6.76-12.59-13.59-12.05s-12.08,6.59-11.75,13.84c.18,3.85.04,7.49-.04,11.4-3.82-1.56-6.17-5.26-6.18-9.39l-.03-24.01c0-5.88,4.55-10.74,10.42-10.74h17.09c5.97-.01,10.54,4.86,10.54,10.8v23.4c0,4.35-2.21,8.38-6.3,9.98l-.15-13.23h0Z"/>
    <rect class="st0" x="40.12" y="196.55" width="9.51" height="61.94" transform="translate(-182.66 272.32) rotate(-89.98)"/>
  </g>
</svg>