<?xml version="1.0" encoding="UTF-8"?>
<svg id="Layer_1" xmlns="http://www.w3.org/2000/svg" version="1.1" viewBox="0 0 256 256">
  <!-- Generator: Adobe Illustrator 30.1.0, SVG Export Plug-In . SVG Version: 2.1.1 Build 136)  -->
  <defs>
    <style>
      .st0 {
        fill: #fff;
      }

      .st1 {
        fill: #00aeef;
      }
    </style>
  </defs>
  <circle class="st1" cx="128" cy="128" r="128"/>
  <g>
    <path class="st0" d="M124.36,165.91l66.17-66.14.04,90.64c0,7.44-5.41,12.95-12.76,13.23l-113.64-.03c-6.94,0-12.65-5.69-12.65-12.67l-.03-113.4c.1-6.98,5.31-12.97,12.58-12.97l94.88-.03-68.43,68.4c-.82.82-1.26,2.1-1.53,3.15l-4.11,30.41c-.39,2.85,2.19,5.58,5.13,5.21l30.71-3.84c1.29-.31,2.42-.75,3.64-1.98Z"/>
    <polygon class="st0" points="123.55 153.32 103.52 133.41 169.31 67.62 189.27 87.6 123.55 153.32"/>
    <path class="st0" d="M204.17,72.67l-8.18,8.18-19.91-19.88,7.9-8.07c.63-.65,2.27-.51,2.96.17l16.52,16.5c.72.72,1.23,2.59.72,3.1Z"/>
    <polygon class="st0" points="115.51 158.91 95.13 161.52 97.94 141.26 115.51 158.91"/>
  </g>
</svg>