<?xml version="1.0" encoding="UTF-8"?>
<svg id="Layer_1" xmlns="http://www.w3.org/2000/svg" version="1.1" viewBox="0 0 256 256">
  <!-- Generator: Adobe Illustrator 30.1.0, SVG Export Plug-In . SVG Version: 2.1.1 Build 136)  -->
  <defs>
    <style>
      .st0 {
        fill: #7aabdd;
      }

      .st1 {
        fill: #f7f5f5;
      }

      .st2 {
        fill: #020202;
      }

      .st3 {
        fill: #dfdfdf;
      }

      .st4 {
        fill: #fde3c0;
      }

      .st5 {
        fill: #828282;
      }
    </style>
  </defs>
  <g>
    <path class="st2" d="M132.85-.41c1.42.72,3.63.71,5.48,1.07,12.79,2.47,24.6,7.93,34.14,16.82,7.82,7.29,14.53,16.84,14.65,27.65l.36,31.62c4.26-.62,8.69-.1,11.65,3.07,2.21,2.37,2.7,5.56,2.78,8.77.27,10.78-6.09,18.52-16.24,21.25-2.93,10.85-10.72,22.69-18.93,30.08l16.62,12.76c11.54,2.82,22.35,7.76,31.53,15.43,9.95,8.32,19.25,21.26,19.29,34.57l.13,45.81c0,2.86-2.25,7.08-5.6,7.08H28c-3.49,0-5.45-4.28-5.55-7-.22-6.19-.23-11.81,0-17.9.07-1.98,2.4-3.35,3.95-3.6,2.12.8,3.72,2.02,3.73,4.57l.03,16.47,27.75-.07v-25.44c0-2.5,1.39-4.39,3.7-4.43,2.12-.04,3.82,1.56,3.83,3.93l.1,25.98,42.44-.03-7.37-14.13c-.6-1.14-.95-2.31-.54-3.67l13.7-45.68-2.34-9.18-4.64,4.13c-1.78,1.83-4.26,1.83-6.28.33l-26.33-19.48c-19.24,4.44-41.37,19.67-43.85,40.71-1.04,8.8,1.92,16.41-4.01,17-1.95.2-3.82-1.29-3.9-3.59-.15-3.94-.23-7.85.02-11.84.7-11.05,5.79-20.75,13.19-28.69,5.85-6.27,12.33-10.8,19.79-14.82,5.76-3.1,11.92-4.25,17.75-6.87,6.14-2.76,10.63-8.47,16.24-11.79-9.17-8.83-15.77-18.76-19.45-30.61-7.35-2.01-14.02-7.61-15.43-15.34-.61-3.36-.31-7,0-10.36.39-4.2,4.84-7.13,8.67-7.57,1.88-.22,3.37.23,5.06-.06l.25-29.27c.05-5.64,1.66-10.77,3.47-16,3.57-10.31,11.92-17.85,22.96-19.53,6.44-7.24,15.14-10.6,24.38-12.16h13.5ZM102.06,46.04l20.28.03c8.82.01,16.83,3.49,23.31,9.26l12.71,11.32c6.62,5.9,12.83,6.54,21.57,6l-.11-24.1c-.04-8.97-4.24-17.01-10.6-23.45-12.43-12.61-30.24-19.14-47.92-17.77-7.77.6-14.98,3.55-20.1,9.06-1.49,1.6-2.37,2.76-4.68,2.96-15.33,1.35-20.48,18.99-20.56,31.77l-.17,25.52c4.59.4,8.04-2.4,9.1-6.63l3.37-13.43c1.6-6.37,6.87-10.55,13.81-10.54ZM143.62,146.92c14.39-6.71,25.66-18.4,32.3-32.58,2.29-4.89,3.89-9.87,3.91-15.21l.06-18.85c-10.65.43-18.57-.88-26.61-8.08l-12.12-10.85c-5.09-4.56-11.31-7.71-18.29-7.74l-20.52-.11c-3.52-.02-6.1,1.97-6.94,5.31l-3.37,13.48c-1.87,7.49-8.22,12.07-16.17,11.94l.07,15.38c.03,5.72,2.13,10.76,4.44,15.99,7.77,16.22,26.13,32.94,44.45,34.99,6.48.72,12.61-.79,18.79-3.67ZM68.29,100.73l-.03-16.34c-1.99.03-4.08-.53-5.66.4-1.26.75-.63,2.6-.79,3.8-.67,5.16,1.64,10.05,6.48,12.13ZM193.75,93.91c-.09-2.75,1.13-6.39-.45-8.83-.99-1.54-4.36-.57-5.83-.59l.03,16.39c3.33-1.67,4.85-4.05,6.24-6.96ZM145.93,165.3c2.01,2.64,4.77,4.53,7.54,7.25l21.84-16.2c-2.95-2.52-5.7-4.59-8.85-6.64-1.87-1.22-3.24-3.46-5.66-4.51-7.11,5.59-14.94,9.72-23.85,12.1l8.97,8.01ZM89.68,150.16c-2.91,1.56-5.38,3.89-8.28,6.18l21.76,16.15c3-2.01,4.69-4.69,7.12-6.79,2.95-2.55,6.13-4.81,9.22-8.28-8.94-2.21-16.87-6.3-24.12-11.91-2.08,1.5-3.91,2.8-5.72,4.65ZM126.1,161.92l-8.29,7.41,2.8,11.28c2.76.31,5.3.09,8.32.06,1.87-.02,3.73.22,6.11.04l3.1-12.05-9.4-8.46c-.81-.73-2.15,1.14-2.64,1.72ZM175.28,166.12l-19.08,13.74c-5.28,3.8-7.85-2.98-11.78-5.12-3.88,13.26-1.73,10.47,1.73,23.51.68,2.57-.03,4.44-2.18,5.76-1.69-.18-3.99-.25-4.64-2.37l-4.11-13.35h-14.7s-12.85,42.84-12.85,42.84l8.87,16.92h22.7s8.86-16.88,8.86-16.88l-4.08-13.75c-.56-1.95.54-4.19,2.41-4.81s4.17.72,4.77,2.69l4.51,14.91c.25,1.22.17,2.4-.4,3.48l-7.51,14.39h39.37s.09-26.44.09-26.44c0-2.17,1.98-3.48,3.84-3.44,1.67.04,3.54,1.4,3.55,3.53l.12,26.34,19.17-.11c4.18-.02,8.29.46,12.74.06l-.19-44.91c-.04-8.77-4.37-16.5-10.11-23.02-8.83-10.03-20.92-16.57-33.79-19.66-3.09,1.56-4.97,4.03-7.29,5.69Z"/>
    <path class="st0" d="M143.97,204.01l2.46,8.6c-1.87.62-2.98,2.86-2.41,4.81l4.08,13.75-8.86,16.89h-22.7s-8.87-16.93-8.87-16.93l12.85-42.84h14.7s4.11,13.35,4.11,13.35c.66,2.13,2.95,2.2,4.64,2.37Z"/>
    <path class="st3" d="M213.91,247.96l-.09-37.34c-.02-9.47-4.39-17.87-10.47-24.99-7.24-8.48-16.61-14.45-26.9-18.6-.63-.25-1.04-.4-1.18-.9,2.31-1.66,4.2-4.13,7.29-5.69,12.87,3.09,24.97,9.63,33.79,19.66,5.74,6.52,10.07,14.25,10.11,23.02l.19,44.91c-4.46.4-8.56-.08-12.74-.06Z"/>
    <path class="st3" d="M145.93,165.3c7.77-3.64,15.27-8.86,20.54-15.6,3.15,2.05,5.9,4.12,8.85,6.64l-21.84,16.2c-2.76-2.72-5.53-4.61-7.54-7.25Z"/>
    <path class="st0" d="M110.29,165.7c-7.15-3.35-13.61-7.93-19.35-13.64-.64-.63-1.27-1.11-1.25-1.91,1.81-1.85,3.64-3.15,5.72-4.65,7.24,5.62,15.18,9.7,24.12,11.91-3.09,3.47-6.27,5.73-9.22,8.28Z"/>
    <path class="st0" d="M166.46,149.71c-5.26,6.74-12.77,11.96-20.54,15.6l-8.97-8.01c8.9-2.38,16.74-6.51,23.85-12.1,2.42,1.06,3.8,3.3,5.66,4.51Z"/>
    <path class="st3" d="M89.68,150.16c-.02.8.62,1.27,1.25,1.91,5.74,5.71,12.2,10.29,19.35,13.64-2.43,2.1-4.12,4.78-7.12,6.79l-21.76-16.15c2.89-2.3,5.36-4.62,8.28-6.18Z"/>
    <path class="st0" d="M128.93,180.68c-3.02.03-5.57.25-8.32-.06l-2.8-11.28,8.29-7.41,6.03,5.62-3.2,13.14Z"/>
    <path class="st5" d="M128.93,180.68l3.2-13.14-6.03-5.62c.49-.58,1.83-2.45,2.64-1.72l9.4,8.46-3.1,12.05c-2.38.18-4.24-.06-6.11-.04Z"/>
    <g>
      <path class="st1" d="M26.4,227.09l-.07-9c5.93-.59,2.97-8.2,4.01-17,2.48-21.04,24.61-36.26,43.85-40.71l26.33,19.48c2.02,1.5,4.5,1.5,6.28-.33l4.64-4.13,2.34,9.18-13.7,45.68c-.41,1.36-.06,2.53.54,3.67l7.37,14.13-42.44.03-.1-25.98c0-2.38-1.72-3.97-3.83-3.93-2.31.04-3.7,1.93-3.7,4.43v25.44s-27.75.07-27.75.07l-.03-16.47c0-2.55-1.61-3.77-3.73-4.57Z"/>
      <path class="st1" d="M175.28,166.12c.13.5.55.64,1.18.9,10.29,4.16,19.67,10.13,26.9,18.6,6.08,7.12,10.44,15.52,10.47,24.99l.09,37.34-19.17.11-.12-26.34c0-2.13-1.88-3.48-3.55-3.53-1.86-.05-3.83,1.27-3.84,3.44l-.09,26.44h-39.37s7.51-14.39,7.51-14.39c.57-1.08.65-2.26.4-3.48l-4.51-14.91c-.6-1.97-2.84-3.32-4.77-2.69l-2.46-8.6c2.15-1.32,2.86-3.19,2.18-5.76-3.46-13.04-5.61-10.25-1.73-23.51,3.93,2.14,6.51,8.91,11.78,5.12l19.08-13.74Z"/>
    </g>
  </g>
  <g>
    <path class="st5" d="M102.06,46.04c-6.94,0-12.21,4.17-13.81,10.54l-3.37,13.43c-1.06,4.23-4.51,7.03-9.1,6.63l.17-25.52c.09-12.78,5.23-30.42,20.56-31.77,2.31-.2,3.19-1.36,4.68-2.96,5.13-5.52,12.33-8.46,20.1-9.06,17.68-1.36,35.49,5.17,47.92,17.77,6.36,6.44,10.56,14.49,10.6,23.45l.11,24.1c-8.73.54-14.94-.1-21.57-6l-12.71-11.32c-6.48-5.77-14.5-9.25-23.31-9.26l-20.28-.03Z"/>
    <path class="st4" d="M193.75,93.91c-1.39,2.91-2.92,5.3-6.24,6.96l-.03-16.39c1.47.02,4.83-.95,5.83.59,1.58,2.44.36,6.08.45,8.83Z"/>
    <path class="st4" d="M68.29,100.73c-4.84-2.08-7.16-6.97-6.48-12.13.16-1.2-.47-3.06.79-3.8,1.58-.93,3.68-.38,5.66-.4l.03,16.34Z"/>
    <g>
      <path class="st4" d="M143.62,146.92c-6.18,2.88-12.31,4.4-18.79,3.67-18.32-2.05-36.68-18.77-44.45-34.99-2.32-5.23-4.42-10.28-4.44-15.99l-.07-15.38c7.95.13,14.3-4.45,16.17-11.94l3.37-13.48c.83-3.34,3.42-5.33,6.94-5.31l20.52.11c6.98.04,13.2,3.18,18.29,7.74l12.12,10.85c8.04,7.2,15.97,8.51,26.61,8.08l-.06,18.85c-.02,5.34-1.62,10.32-3.91,15.21-6.64,14.17-17.91,25.86-32.3,32.58ZM113.71,95.32c1.08-1.25,1.34-3.47-.11-4.97-4.28-4.43-11.29-4.49-15.75-.26-1.63,1.55-1.54,3.8-.36,5.2,1.39,1.64,3.79,1.74,5.4.32,4.44-3.92,6.94,4.19,10.81-.3ZM158.26,95.31c1.11-1.26,1.31-3.51-.17-5.02-4.38-4.44-11.59-4.43-15.95.08-1.52,1.57-1.17,4.05.29,5.34,1.32,1.17,3.51,1.24,4.99-.08,4.43-3.97,6.89,4.17,10.84-.32ZM140.12,136.14c5.49-3.36,8.25-8.91,8.34-15.06.06-4.07-2.99-7.37-7.11-7.38l-26.52-.04c-3.55,0-6.94,2.29-7.35,5.97-.77,6.74,2.51,13.08,8.29,16.58,7.42,4.49,16.75,4.58,24.36-.07Z"/>
      <path class="st2" d="M140.12,136.14c-7.61,4.65-16.94,4.56-24.36.07-5.78-3.5-9.06-9.85-8.29-16.58.42-3.68,3.8-5.97,7.35-5.97l26.52.04c4.12,0,7.17,3.31,7.11,7.38-.08,6.15-2.85,11.7-8.34,15.06ZM135.94,129.94c3.28-1.89,5.01-5.14,4.91-8.71l-25.97-.02c-.09,3.81,1.95,7.2,5.37,8.99,4.83,2.53,10.76,2.58,15.69-.26Z"/>
      <path class="st2" d="M113.71,95.32c-3.87,4.49-6.37-3.62-10.81.3-1.6,1.42-4.01,1.32-5.4-.32-1.18-1.4-1.28-3.65.36-5.2,4.45-4.23,11.47-4.18,15.75.26,1.45,1.5,1.19,3.72.11,4.97Z"/>
      <path class="st2" d="M158.26,95.31c-3.96,4.49-6.41-3.64-10.84.32-1.48,1.32-3.66,1.25-4.99.08-1.46-1.28-1.8-3.77-.29-5.34,4.35-4.51,11.56-4.52,15.95-.08,1.48,1.5,1.27,3.76.17,5.02Z"/>
      <path class="st1" d="M135.94,129.94c-4.93,2.84-10.85,2.79-15.69.26-3.43-1.79-5.47-5.18-5.37-8.99l25.97.02c.09,3.57-1.63,6.82-4.91,8.71Z"/>
    </g>
  </g>
</svg>