<?xml version="1.0" encoding="UTF-8"?>
<svg id="Layer_1" xmlns="http://www.w3.org/2000/svg" version="1.1" viewBox="0 0 256 256">
  <!-- Generator: Adobe Illustrator 30.1.0, SVG Export Plug-In . SVG Version: 2.1.1 Build 136)  -->
  <defs>
    <style>
      .st0 {
        fill: #fff;
      }

      .st1 {
        fill: #217346;
      }
    </style>
  </defs>
  <path class="st1" d="M256.39,21.04v213.37h-106.54s-.2,21.3-.2,21.3L.39,220.74V34.73S149.7-.25,149.7-.25l.09,21.28h106.59ZM171.08,127.68l-.04,21.35-21.25.03v10.6s21.26,0,21.26,0v21.33s-21.28.09-21.28.09v31.95s85.32-.02,85.32-.02V42.41s-85.31,0-85.31,0v21.25s21.27,0,21.27,0l.02,21.34-21.28.08v10.59s21.26,0,21.26,0l.02,21.34-21.28.08v10.58s21.29.03,21.29.03ZM57.2,179.18l14.24-31.34,1.75-5.7.58,3.75,17.32,35.16,24.47,1.4-28.29-53.56,27.57-53.28-23.11,1.34-15.04,33.86-1.54,6.07-2.9-8.25-12.38-29.29-22.4,1.18,23.83,48.82-25.93,48.64,21.82,1.2Z"/>
  <path class="st0" d="M171.08,127.68l-21.3-.03v-10.58s21.29-.08,21.29-.08l-.02-21.34h-21.28s.01-10.59.01-10.59l21.28-.08-.02-21.34h-21.29s.01-21.26.01-21.26h85.31s0,170.61,0,170.61l-85.33.02v-31.95s21.31-.09,21.31-.09v-21.33s-21.29,0-21.29,0v-10.6s21.26-.03,21.26-.03l.04-21.35ZM213.76,63.66h-32v21.38h32v-21.38ZM213.76,95.66h-32v21.38h32v-21.38ZM213.76,127.66h-32v21.38h32v-21.38ZM213.76,159.66h-32v21.38h32v-21.38Z"/>
  <polygon class="st0" points="57.2 179.18 35.37 177.98 61.3 129.34 37.47 80.53 59.87 79.35 72.24 108.64 75.14 116.89 76.68 110.82 91.72 76.96 114.83 75.62 87.26 128.89 115.56 182.45 91.09 181.06 73.77 145.9 73.19 142.14 71.44 147.85 57.2 179.18"/>
  <rect class="st1" x="181.76" y="63.66" width="32" height="21.38"/>
  <rect class="st1" x="181.76" y="95.66" width="32" height="21.38"/>
  <rect class="st1" x="181.76" y="127.66" width="32" height="21.38"/>
  <rect class="st1" x="181.76" y="159.66" width="32" height="21.38"/>
</svg>