<?xml version="1.0" encoding="UTF-8"?>
<svg id="Layer_1" xmlns="http://www.w3.org/2000/svg" version="1.1" viewBox="0 0 256 256">
  <!-- Generator: Adobe Illustrator 30.1.0, SVG Export Plug-In . SVG Version: 2.1.1 Build 136)  -->
  <defs>
    <style>
      .st0 {
        fill: #fff;
      }

      .st1 {
        fill: #ff7b79;
      }

      .st2 {
        fill: #8aa8bd;
      }

      .st3 {
        fill: #ffd576;
      }
    </style>
  </defs>
  <polygon class="st3" points="251.64 5.41 251.64 250.58 193.02 237.01 193.02 18.99 251.64 5.41"/>
  <path d="M254.35,2c-1.04-.82-2.4-1.13-3.69-.83l-58.13,13.46H52.19c-2.41,0-4.36,1.95-4.36,4.36v218.03c0,2.41,1.95,4.36,4.36,4.36h140.33l58.13,13.46c.33.08.66.11.99.11.97,0,1.93-.33,2.71-.95,1.05-.82,1.65-2.09,1.65-3.41V5.41c0-1.33-.6-2.59-1.65-3.41ZM188.66,149.44v83.21H56.55V23.34h132.11v81.88c0,2.41,1.95,4.36,4.36,4.36s4.36-1.95,4.36-4.36V22.45l49.91-11.55v234.2l-49.91-11.55v-84.1c0-2.41-1.95-4.36-4.36-4.36s-4.36,1.95-4.36,4.36Z"/>
  <path class="st0" d="M193.02,109.59v35.5c-2.41,0-4.36,1.95-4.36,4.36v83.21H56.55V23.34h132.11v81.88c0,2.41,1.95,4.36,4.36,4.36Z"/>
  <circle cx="193.02" cy="127.28" r="5.41"/>
  <g>
    <rect class="st1" x="4.36" y="39.45" width="168.19" height="82.42" rx=".67" ry=".67"/>
    <path d="M171.88,126.23H5.03c-2.77,0-5.03-2.26-5.03-5.03V40.13c0-2.77,2.26-5.03,5.03-5.03h166.85c2.77,0,5.03,2.26,5.03,5.03v81.07c0,2.77-2.26,5.03-5.03,5.03ZM8.72,117.51h159.48V43.81H8.72v73.7Z"/>
  </g>
  <g>
    <path d="M20.38,104.03c-.45,0-.82-.16-1.14-.47-.31-.31-.47-.69-.47-1.14v-43.47c0-.49.16-.89.47-1.2s.69-.47,1.14-.47h29.38c.49,0,.89.16,1.2.47.31.31.47.71.47,1.2v4.41c0,.45-.16.82-.47,1.14s-.71.47-1.2.47h-21.97v11.82h20.5c.49,0,.89.15,1.2.43.31.29.47.68.47,1.17v4.14c0,.49-.16.88-.47,1.17-.31.29-.71.43-1.2.43h-20.5v12.22h22.5c.49,0,.89.16,1.2.47.31.31.47.71.47,1.2v4.41c0,.45-.16.82-.47,1.14-.31.31-.71.47-1.2.47h-29.91Z"/>
    <path d="M57.71,104.03c-.4,0-.73-.13-1-.4-.27-.27-.4-.6-.4-1,0-.13.02-.27.07-.4.04-.13.09-.27.13-.4l14.96-21.63-14.02-20.7c-.13-.27-.2-.53-.2-.8,0-.4.13-.73.4-1s.6-.4,1-.4h6.81c.53,0,.96.13,1.27.4.31.27.58.56.8.87l9.82,14.42,9.88-14.42c.18-.31.43-.6.77-.87s.77-.4,1.3-.4h6.48c.4,0,.73.13,1,.4s.4.6.4,1c0,.27-.09.53-.27.8l-13.96,20.7,14.96,21.63c.09.13.16.27.2.4.04.13.07.27.07.4,0,.4-.15.73-.43,1-.29.27-.61.4-.97.4h-7.08c-.53,0-.96-.13-1.27-.4-.31-.27-.56-.53-.73-.8l-10.68-15.09-10.48,15.09c-.18.27-.42.53-.73.8-.31.27-.76.4-1.34.4h-6.74Z"/>
    <path d="M106.12,104.03c-.45,0-.82-.16-1.14-.47-.31-.31-.47-.69-.47-1.14v-43.53c0-.44.16-.82.47-1.14s.69-.47,1.14-.47h6.28c.49,0,.88.16,1.17.47.29.31.43.69.43,1.14v43.53c0,.45-.15.82-.43,1.14-.29.31-.68.47-1.17.47h-6.28Z"/>
    <path d="M136.36,104.03c-.45,0-.82-.16-1.13-.47-.31-.31-.47-.69-.47-1.14v-36.92h-12.35c-.45,0-.82-.16-1.14-.47-.31-.31-.47-.69-.47-1.13v-4.94c0-.49.16-.89.47-1.2s.69-.47,1.14-.47h34.05c.49,0,.89.16,1.2.47.31.31.47.71.47,1.2v4.94c0,.45-.16.82-.47,1.13-.31.31-.71.47-1.2.47h-12.29v36.92c0,.45-.16.82-.47,1.14-.31.31-.71.47-1.2.47h-6.14Z"/>
  </g>
  <g>
    <path d="M76.78,196.79H16.61c-1.75,0-3.17-1.42-3.17-3.17v-28.15c0-1.75,1.42-3.17,3.17-3.17h60.18c1.75,0,3.17-1.42,3.17-3.17v-6.87c0-2.44,2.64-3.97,4.76-2.75l47.27,27.29c2.12,1.22,2.12,4.27,0,5.5l-47.27,27.29c-2.12,1.22-4.76-.31-4.76-2.75v-6.87c0-1.75-1.42-3.17-3.17-3.17Z"/>
    <path class="st2" d="M116.54,178.71l-25.75-14.87c-.64-.37-1.44.09-1.44.83v6.05c0,.53-.43.96-.96.96H23.78c-.53,0-.96.43-.96.96v13.8c0,.53.43.96.96.96h64.6c.53,0,.96.43.96.96v6.05c0,.74.8,1.2,1.44.83l25.75-14.87c.64-.37.64-1.29,0-1.66Z"/>
  </g>
</svg>