<?xml version="1.0" encoding="UTF-8"?>
<svg id="Layer_1" xmlns="http://www.w3.org/2000/svg" version="1.1" viewBox="0 0 256 256">
  <!-- Generator: Adobe Illustrator 30.1.0, SVG Export Plug-In . SVG Version: 2.1.1 Build 136)  -->
  <defs>
    <style>
      .st0 {
        fill: #c6ecfb;
      }

      .st1 {
        fill: #00c179;
      }

      .st2 {
        fill: #f4a86b;
      }

      .st3 {
        fill: #fb636e;
      }

      .st4 {
        fill: #dcf3fa;
      }

      .st5 {
        fill: #020101;
      }
    </style>
  </defs>
  <path class="st5" d="M227.32,233.89c-4.57.36-8.95.28-13.27.04-2.13-.12-3.67-1.54-4.14-3.26s.79-4.33,3-4.46c5-.3,9.86-.08,14.91-.09,2.06,0,3.53,2,3.52,3.71-.02,1.9-1.58,3.87-4.02,4.06Z"/>
  <path class="st5" d="M29.01,226.27c2.31-.79,4.35.32,5.1,2.36.66,1.8-.2,4.08-2.1,4.77-2.08.76-4.18.14-5.26-1.94-.83-1.6.17-4.47,2.26-5.19Z"/>
  <path class="st5" d="M16.07,226.23c2.17-.78,4.05.6,4.84,2.59.73,1.84-.32,4.03-2.01,4.56-2.36.74-4.15.07-5.14-1.94s-.02-4.36,2.32-5.21Z"/>
  <path class="st5" d="M41.5,184.09l-18.63.03c-2.37,0-3.87-1.74-4.04-3.77-.18-2.24,1.32-3.56,3.7-4.26l18.76.12c1.88.01,3.3,2.23,3.41,3.68.13,1.79-1.2,3.33-3.19,4.2Z"/>
  <path class="st5" d="M31.94,209.54h-15.61c-1.92,0-3.14-2.64-2.94-4.11.26-1.92,1.86-3.35,3.97-3.35h13.54c2.11,0,3.71,1.43,3.97,3.35.2,1.47-1.02,4.11-2.94,4.11Z"/>
  <path class="st5" d="M102.94,176.34c2.17-.62,4.15,1.18,4.63,2.88.58,2.05-1.08,4.13-2.77,4.66-2.13.66-4.17-.71-4.73-2.3-.8-2.22.33-4.51,2.87-5.24Z"/>
  <path class="st5" d="M10.94,176.29c2.24-.71,4.09,1.2,4.64,2.93.62,1.98-1,4.08-2.76,4.67-1.85.62-4.2-.84-4.71-2.3-.74-2.12.45-4.54,2.84-5.3Z"/>
  <path class="st5" d="M256.32,99.12v8c-1.25,1.19-2.23,3.19-4.21,3.95l-70.78.05.03,30.24c7.75,3.96,13.22,10.62,14.51,19.21l8.32.03c2.36-3.11,5.81-3.88,9.36-4.11,3.35-.22,6.28,2.57,8.8,4.65,3.08-1.83,6.37-2.19,9.49.59l4.42,3.94c2.85,2.53,10.17,7.69,5.74,12.72l-39.23,44.55c-2.64,3-5.95,4.24-9.83,4.79l-3.12.44.02,13.39,47.36.13c1.87,0,2.95,2.84,2.63,4.07-.39,1.48-1.4,3.32-3.65,3.32H4.99c-1.95,0-3.03-2.12-3.15-3.29s.34-4.08,2.24-4.09l51.78-.14.02-13.36c-3.45.04-8.8-1.87-8.86-5.19l-.26-14.36c-.07-3.8,2.38-5.32,4.9-6.97.2-4.62,2.39-13.27,9.02-13.29l113.15-.36v-19.43s-167.79,0-167.79,0c-2.88,0-4.22-2.02-4.24-4.24-.02-2.44,1.98-3.77,4.66-3.77l91.28.04c1.42-13.75,11.17-24.81,23.37-28.83,13.95-4.6,28.15-.17,37.46,10.52,4.86-2.88,9.9-3.59,15.27-3.1v-28.07s-69.41-.06-69.41-.06c-3.65,0-5.79-3.69-5.64-6.89.42-8.74,1.95-16.79,5.37-25.46l-55.2-.17c-1.46,0-2.97-2.28-3.04-3.41-.12-1.99,2.08-4.25,4.45-4.25l57.38.09c3.38-6.36,7.27-11.91,12.32-17.37-6.37-3.43-13.47-3.64-20.03-1.19-2.08.77-4.33-.36-5.01-2.4-1.02-3.04-2.87-5.13-4.67-7.31-5.87-7.13-15.33-10.41-24.87-8.43-8.3,1.72-15.81,7.84-18.98,16.48-.72,1.97-2.95,3.1-4.99,2.22-7.14-3.06-14.97-3.08-22.2,1.1-5.62,3.25-10.52,9.47-11.42,16.77,3.14.35,5.84.04,8.52.05l15.5.05c2.49,0,4.26,1.83,4.4,4.19.07,1.14-1.72,3.37-3,3.38l-23.94.19c-2.79.02-5-.8-6.82-2.58-1.73-1.68-2.55-4.32-2.15-7.01,1.2-8.16,5.87-14.66,12.23-19.79-2.36-5-3.77-9.85-3.58-14.99.55-14.42,11.11-25.91,24.91-27.93s27.38,6.33,31.71,19.77c3.42.16,6.39-.34,9.57.12,11,1.61,20.48,8.16,25.46,17.91,8.72-2.34,17.66-.91,24.92,3.87,13.59-11.8,30.25-18.64,48.16-19.51.33-2.29-.35-4.58.18-6.81.45-1.88,2.43-2.89,4.1-2.68,1.28.16,3.2,1.36,3.22,3.04l.07,6.44c18.06.88,34.92,7.77,48.37,19.62,13.76,12.13,26.58,35.3,26.58,50.96ZM41.01,44.72c3.82-7.61,9.84-12.88,17.41-16.11-3.91-12.4-17.48-18.05-28.92-13.05s-16.32,19.14-9.9,30.11c7.08-2.85,14.2-3.07,21.41-.95ZM188.64,103.47c-.24-18.12-1.78-43.19-7.06-59.46-.89-2.72-1.83-5.3-3.83-7.75-1.9,1.66-2.71,3.95-3.53,6.24-5.74,16.05-7.47,43.66-7.55,61.07l21.97-.11ZM217.25,79.7c1.62.12,3.87.56,4.34,2.6,1.61,6.99,2.07,13.95,2.44,21.24h24.72c-1.49-27.77-19.05-52.52-45.61-62.62,5.86,7.61,10.47,15.07,13.6,23.74.81,2.24.5,4.41-1.99,5.57-2.1.58-4.09-.41-4.93-2.63-4.01-10.64-11.07-23.52-22.01-28.84,6.77,20.49,7.84,43.41,8.35,64.82h20.27c0-6.4-.83-12.48-1.87-18.73-.62-2.29.61-4.16,2.7-5.13ZM159.14,103.47c.2-15.59,1.09-30.2,3.5-45.02,1.09-6.72,2.53-12.81,4.78-19.61-11.4,5.22-19.39,20.61-23.09,31.74-3.5,10.71-5.27,21.57-5.56,32.98l20.36-.09ZM138.03,66.01c3.22-9.37,7.86-17.03,14.08-25.09-26.52,10.02-44.25,35-45.58,62.63h24.69c.48-12.95,2.36-25.25,6.81-37.54ZM145.8,160.69c.83-5.94,3.43-9.87,6.63-13.78-7.48-8.33-18.47-11.4-29.12-7.82-8.97,3.01-16.47,11.21-17.89,21.66l40.38-.06ZM173.89,160.67l-.07-13.64c-9.32-1.68-18.5,4.38-20.36,13.74l20.43-.1ZM188.09,160.4c-1.11-4.15-3.05-7.31-6.48-9.9-.44,3.5-.26,6.79-.1,10.24,2.46-.03,4.3.46,6.59-.34ZM155.11,205.69c-.12,1.55-1.2,3.76-3.41,3.76l-97.18.06v10.65s136.71.02,136.71.02c2.07,0,3.86-.13,5.2-1.64l38.6-43.73-7.98-7.04-35.64,40.3c-.83.94-1.89,1.42-3.09,1.42l-19.48-.02c-1.96,0-3.76-1.57-3.77-3.77s1.95-3.73,4.23-3.73h17.48s30.47-34.55,30.47-34.55c-.79-2.2-4.61-4.68-6.56-2.45l-25.39,29.03c-1,1.14-1.88,1.5-3.56,1.5l-119.26.14c-2.84,0-3.46,4.92-2.29,6.32l91.08.04c2.22,0,3.46,1.55,3.84,3.68ZM197.21,168.69l-15.89-.11.11,18.26,15.79-18.15ZM69.87,227.67h-6.15v13.89h6.15v-13.89ZM182.1,227.67h-6.2v13.89h6.2v-13.89ZM168.34,228.08h-90.97v13.5h90.97v-13.5Z"/>
  <path class="st5" d="M130.85,184.06l-13.93.05c-1.64-.56-2.73-1.62-3.49-3.23-.1-2.17,1.48-4.72,3.92-4.72h12.95c2.42-.01,4.02,1.61,4.1,3.72.08,1.94-1.21,4.18-3.55,4.19Z"/>
  <path class="st5" d="M90.33,176.3c2.58-.52,4.23,1.28,4.56,3.1.42,2.33-.84,4.01-2.93,4.59s-4.02-.94-4.49-2.79c-.53-2.08.38-4.41,2.86-4.91Z"/>
  <rect class="st2" x="175.9" y="227.67" width="6.2" height="13.89"/>
  <path class="st2" d="M155.11,205.69h9.96c0,2.2,1.81,3.77,3.77,3.77l19.48.02c1.2,0,2.25-.48,3.09-1.42l35.64-40.3,7.98,7.04-38.6,43.73c-1.34,1.52-3.13,1.64-5.2,1.64l-136.7-.02v-10.65s97.17-.06,97.17-.06c2.21,0,3.3-2.2,3.41-3.76Z"/>
  <path class="st0" d="M165.08,205.69h-9.96c-.37-2.13-1.61-3.68-3.84-3.68l-91.08-.04c-1.17-1.4-.55-6.31,2.29-6.32l119.26-.14c1.68,0,2.57-.36,3.56-1.5l25.39-29.03c1.95-2.23,5.77.25,6.56,2.45l-30.47,34.55h-17.48c-2.28,0-4.24,1.51-4.23,3.73Z"/>
  <rect class="st2" x="63.72" y="227.67" width="6.15" height="13.89"/>
  <path class="st5" d="M67.53,121.17c2.32,0,3.63,2.15,3.8,3.78.15,1.43-1.6,4.07-3.71,4.07l-42.04-.11c-8.07-.02-14.2-7.42-13.55-15.13.59-7.07,6.11-12.25,13.15-12.94,4.75-.46,9.78,2.08,12.33,6.01,1.22,1.88.02,4.26-1.38,5.18-4.73,3.12-6.31-6.33-12.81-2.78-2.51,1.37-4.08,3.94-3.39,7.03.61,2.7,3.25,4.87,6.46,4.87l41.15.02Z"/>
  <path class="st5" d="M57.78,103.46l30.56.19c2.09.01,3.6,1.95,3.48,3.65-.15,2.1-1.57,3.89-3.95,3.86l-31.84-.3c-4.4-.04-8.07-4.3-9.41-7.33-2.08-4.69-1.35-9.34,1.61-13.01s6.5-5.21,10.89-4.98c3.91.2,8.05,2.27,10.07,6.28.89,1.76-.84,4.15-2.17,4.62-5.12,1.82-5.72-5.83-11.08-2.55-1.74,1.07-2.95,3.45-2.57,5.25.34,1.64,1.94,4.29,4.42,4.31Z"/>
  <path class="st5" d="M93.32,124.92c.53,5.67-11.26,4.31-15.74,4.01-1.92-.13-3.56-2.08-3.66-3.61-.12-1.82,1.43-3.98,3.55-4.09,4.12-.22,8.17-.2,12.29,0,2.02.1,3.41,2.02,3.56,3.7Z"/>
  <path class="st4" d="M90.38,42.7c1.8,2.18,3.65,4.27,4.67,7.31.68,2.04,2.93,3.18,5.01,2.4,6.56-2.44,13.67-2.24,20.03,1.19-5.05,5.45-8.94,11.01-12.32,17.37l-57.38-.09c-2.38,0-4.57,2.25-4.45,4.25h-9.6c-.14-2.37-1.91-4.18-4.4-4.19l-15.5-.05c5.99-10.34,18.66-15.33,30.44-12.21,2.52.67,4.96-.03,6.24-2.38,7.34-13.49,23.18-19,37.27-13.6Z"/>
  <path class="st2" d="M41.01,44.72c-7.21-2.12-14.34-1.9-21.41.95-6.42-10.97-1.63-25.06,9.9-30.11s25.01.65,28.92,13.05c-7.58,3.23-13.59,8.5-17.41,16.11Z"/>
  <path class="st0" d="M90.38,42.7c-14.09-5.41-29.93.11-37.27,13.6-1.28,2.36-3.72,3.05-6.24,2.38-11.78-3.12-24.45,1.86-30.44,12.21-2.67,0-5.38.3-8.52-.05.9-7.3,5.81-13.52,11.42-16.77,7.23-4.18,15.06-4.16,22.2-1.1,2.04.88,4.26-.25,4.99-2.22,3.17-8.64,10.68-14.76,18.98-16.48,9.54-1.97,19,1.31,24.87,8.43Z"/>
  <path class="st3" d="M217.25,79.7c-.55-3.23-1.61-6.33-2.5-9.48,2.49-1.16,2.79-3.33,1.99-5.57-3.12-8.67-7.74-16.13-13.6-23.74,26.57,10.1,44.12,34.85,45.61,62.62h-24.72c-.37-7.29-.83-14.25-2.44-21.24-.47-2.04-2.71-2.48-4.34-2.6Z"/>
  <path class="st3" d="M138.03,66.01c-4.45,12.28-6.33,24.59-6.81,37.54h-24.69c1.33-27.62,19.05-52.6,45.58-62.63-6.22,8.06-10.86,15.72-14.08,25.09Z"/>
  <path class="st3" d="M188.64,103.47l-21.97.11c.08-17.41,1.81-45.02,7.55-61.07.82-2.29,1.64-4.58,3.53-6.24,2.01,2.44,2.95,5.02,3.83,7.75,5.29,16.27,6.82,41.34,7.06,59.46Z"/>
  <path class="st4" d="M214.75,70.22c.89,3.15,1.95,6.25,2.5,9.48-2.09.97-3.31,2.84-2.7,5.13,1.04,6.24,1.87,12.33,1.87,18.73h-20.27c-.5-21.4-1.58-44.33-8.35-64.82,10.94,5.32,18,18.2,22.01,28.84.84,2.22,2.83,3.21,4.93,2.63Z"/>
  <path class="st4" d="M159.14,103.47l-20.36.09c.29-11.41,2.06-22.26,5.56-32.98,3.69-11.13,11.69-26.52,23.09-31.74-2.26,6.79-3.69,12.89-4.78,19.61-2.41,14.82-3.3,29.43-3.5,45.02Z"/>
  <path class="st1" d="M145.8,160.69l-40.38.06c1.43-10.45,8.93-18.65,17.89-21.66,10.65-3.58,21.64-.51,29.12,7.82-3.21,3.92-5.8,7.84-6.63,13.78Z"/>
  <path class="st2" d="M173.89,160.67l-20.43.1c1.86-9.35,11.04-15.42,20.36-13.74l.07,13.64Z"/>
  <path class="st2" d="M188.09,160.4c-2.29.8-4.12.31-6.59.34-.15-3.45-.34-6.74.1-10.24,3.43,2.59,5.37,5.75,6.48,9.9Z"/>
</svg>