<?xml version="1.0" encoding="UTF-8"?>
<svg id="Layer_1" xmlns="http://www.w3.org/2000/svg" version="1.1" viewBox="0 0 256 256">
  <!-- Generator: Adobe Illustrator 30.1.0, SVG Export Plug-In . SVG Version: 2.1.1 Build 136)  -->
  <defs>
    <style>
      .st0 {
        fill: #2780ef;
      }

      .st1 {
        fill: #fdfdfe;
      }
    </style>
  </defs>
  <path class="st0" d="M185.42,57.05c0,31.17-25.27,56.44-56.44,56.44s-56.44-25.27-56.44-56.44S97.81.61,128.98.61s56.44,25.27,56.44,56.44ZM168.51,57.02c0-21.83-17.7-39.53-39.53-39.53s-39.53,17.7-39.53,39.53,17.7,39.53,39.53,39.53,39.53-17.7,39.53-39.53Z"/>
  <circle class="st1" cx="128.98" cy="57.02" r="39.53"/>
  <path class="st0" d="M28.09,239.45l124.48.21c4.48,0,5.57,4.73,5.61,8.22.04,4.04-1.19,8.67-6.12,8.67l-142.41.06c-.32-40.23,20.75-77.35,53.05-98.45,35.92-23.46,80.7-25.5,118.09-6.34,3.09,1.58,5.69,3.92,6.67,6.84,1.41,4.18-5.38,12.96-10.31,10.22-29.66-16.45-65.2-18.05-96.88-1.47-25.99,13.6-46.89,39.96-52.18,72.04Z"/>
  <path class="st0" d="M210.72,250.68c-.06,7.48-12.02,6.23-14.34,4.47-1.53-1.16-2.52-2.98-2.53-5.41l-.07-29.24-29.95-.15c-4.29-.02-6.47-4.21-5.78-8.25-.66-3.72.99-8.45,5.2-8.49l30.55-.29.14-30.06c.02-4.27,4.2-6.4,8.2-5.72,3.65-.65,8.49.93,8.52,5.13l.27,30.66,30.64.29c4.19.04,5.75,4.85,5.09,8.47.71,3.97-1.4,8.21-5.67,8.23l-30.03.16-.23,30.19Z"/>
</svg>