<?xml version="1.0" encoding="UTF-8"?>
<svg id="Layer_1" xmlns="http://www.w3.org/2000/svg" version="1.1" viewBox="0 0 256 256">
  <!-- Generator: Adobe Illustrator 30.1.0, SVG Export Plug-In . SVG Version: 2.1.1 Build 136)  -->
  <defs>
    <style>
      .st0 {
        fill: #89c4da;
      }

      .st1 {
        fill: #f8e4c8;
      }

      .st2 {
        fill: #3d342c;
      }

      .st3 {
        fill: #d6df57;
      }

      .st4 {
        fill: #ef6b79;
      }

      .st5 {
        fill: #86786e;
      }
    </style>
  </defs>
  <path class="st2" d="M252.64,29.9c-15.96,7.23-10.86,14.54-13.95,15.67-2.62.96-2.63-4.48-5.46-9.33-4.94-8.46-11.39-4.82-11.69-8.42-.24-2.87,13.98-1.78,14.97-15.75.07-.98,1.64-.97,2.25-.9,2.1.22,1.27,6,8.05,12.06,4.76,4.25,8.82.98,7.99,5.05-.19.95-1.1,1.16-2.14,1.63ZM237.96,37.41c2.7-4.1,5.61-6.6,9.85-9.09-4.11-2.4-6.77-5.56-9.21-9.69-2.01,4.15-4.98,6.92-8.98,9.03,3.82,2.49,6.22,5.68,8.34,9.76Z"/>
  <path class="st2" d="M219.29,17.37c-4.91,3.48-3.03,7.73-5.41,8.46-.6.18-1.43-.59-1.71-1.29l-2.05-5.2c-2.23-5.65-8.79-4.01-8.65-6.71s8.18-2.73,9.57-7.42l1.16-3.93c.19-.63.76-1.2,1.28-1.28s1.64.32,1.91,1.07c5.01,13.76,10.86,6.84,10.73,11.52-.04,1.37-3.07,2.1-6.84,4.77ZM213.62,18.24c1.81-2.38,3.46-3.7,5.84-5.42-2.32-1.6-3.73-3.35-5.41-5.64-1.44,2.13-2.92,3.65-5.27,5.28,2.1,1.81,3.38,3.4,4.84,5.78Z"/>
  <path class="st2" d="M223.29,45.04c-9.77,4.41-6.45,9.63-9.02,10.53-3.08,1.08-1.94-4.06-6.18-8.88-2.58-2.93-6.48-1.22-6.62-4.19s9.55-.75,10.68-11.41c.09-.87,1.7-.84,2.25-.66,1.69.53,2.3,7.24,7.65,9.65,1.33.6,3.71.23,4,2.25.2,1.4-1.64,2.19-2.77,2.7ZM213.66,48.15c2.11-2.51,3.61-3.69,5.79-5.25-2.38-1.7-3.76-3.43-5.38-5.65-1.55,2.26-3.16,3.73-5.28,5.32,2.14,1.63,3.22,3.52,4.88,5.58Z"/>
  <path class="st3" d="M237.96,37.41c-2.12-4.08-4.51-7.27-8.34-9.76,4.01-2.11,6.97-4.87,8.98-9.03,2.43,4.13,5.1,7.29,9.21,9.69-4.25,2.49-7.15,4.99-9.85,9.09Z"/>
  <path class="st3" d="M213.62,18.24c-1.46-2.39-2.74-3.97-4.84-5.78,2.35-1.63,3.83-3.15,5.27-5.28,1.69,2.29,3.09,4.05,5.41,5.64-2.38,1.71-4.03,3.04-5.84,5.42Z"/>
  <path class="st3" d="M213.66,48.15c-1.66-2.06-2.74-3.95-4.88-5.58,2.12-1.59,3.73-3.06,5.28-5.32,1.63,2.22,3.01,3.95,5.38,5.65-2.18,1.56-3.68,2.74-5.79,5.25Z"/>
  <path class="st2" d="M2.76,104.86c1.01.21,1.68.81,1.68,2.31l.05,131.25c0,7.91,6.33,13.87,14.14,13.87h153.79c7.87,0,14.13-6.02,14.13-13.8l.02-36.07c-4.01,2.49-7.53,4.51-11.95,6.24l-.11,23.57c-.03,5.49-4.36,9.61-9.93,9.61h-56.33c-1.28,0-1.94-.82-2.27-1.63.31-.88.95-1.73,2.28-1.73l57.42.07c3.31-.55,5.29-3.09,5.66-6.32l-.16-22.26c-17.91,5.48-36.13,2.56-51.07-7.53H40.06c-1.19,0-1.71-.75-1.81-1.47-.14-1.01.39-1.85,1.79-1.9l75.45-.07c-8.48-7.63-14.74-16.53-18.1-27.35h-48.92c-6.03-.04-10.44-4.6-10.47-10.6l-.18-64.08c-.02-6.02,4.03-11.09,10.06-11.12l21.38-.12.03-9.75c.01-4.33,3.21-8.91,7.93-8.91h36.63c4.46,0,7.85,4.21,7.89,8.34l.08,10.34,20.83.04c5.76.01,9.98,4.17,10.59,9.86,6.23.07,11.68.93,18.03,2.75l.05-56.7c0-3.57-2.72-6.44-6.23-6.54-9.45-.27-15.77.07-25.24.21-1.23,3.15-3.55,4.67-6.88,4.67H58.1c-3.33,0-5.64-1.53-6.9-4.67l-24.78-.05c-3.42,0-6.5,2.28-6.5,6.12v190.63c0,3.85,3,6.42,6.62,6.42h66.43c1.25,0,2.03.45,2.31,1.73-.22.94-.98,1.62-2.32,1.62H26.48c-5.51,0-9.94-4.04-9.94-9.71l-.05-189.8c0-6.37,4.27-10.58,10.57-10.58h23.79s0-12.09,0-12.09l-32.31.04c-7.87,0-14.07,6.16-14.07,14.09l-.02,56.37c0,1.36-.68,2.1-1.69,2.23-.39.01-.89.02-1.15-.22-.3-.27-.66-.76-.66-1.47l.47-60.13c.06-6.98,7.18-13.82,13.84-13.91l35.85-.48c.79-2.65,3.03-4.78,5.93-4.83l13.18-.22C76.81,3.72,82.49,1.36,92.27.24c6.98-.8,19.27,1.78,23.67,6.09l4.89,4.78,13.17.24c2.9.05,5.15,2.06,5.92,4.92l35.9.06c6.46,1.7,13.79,6.69,13.83,14.31l.35,77.67c23.88,19.24,29.21,53.79,11.47,79.33l14.68,14.67c2.41-.74,5.94-.64,8.07,1.49l28.98,28.97c2.42,2.42,2.37,8.05.29,10.42-3.62,4.13-7.03,7.51-11.08,11.12-2.6,2.31-7.84,2.26-10.5-.37l-29.11-28.79c-2.33-2.3-.65-5.61-1.82-7.95-2.51-4.52-7.64-7.52-10.77-11.63l-.65,36.16c-.13,7.46-8.34,14.11-16.03,14.11H17.51c-7.42-.01-16.14-6.91-16.16-14.61l-.36-134.62c0-.84.28-1.24.62-1.53.27-.23.75-.23,1.15-.22ZM133.73,36.57c2.11,0,2.94-1.87,2.94-3.32l-.02-15.29c0-1.75-1.32-3.01-3.04-3.02l-11.26-.04c-5.67-.02-4.74-5.08-13.78-8.7-8.37-3.35-17.71-3.35-26.08,0-9.14,3.66-8.04,8.68-13.78,8.7l-11.26.04c-1.7,0-3.05,1.26-3.04,3.02l.05,15.81c0,1.69,1.41,2.74,3.09,2.82l76.2-.03ZM174.64,99.73c4.9,1.7,7.98,3.8,11.98,6.14l-.15-73.12c-.02-7.83-7.14-13.13-14.46-13.1l-31.92.11.13,11.97,24.86.12c5.06.02,9.39,4.1,9.4,9.33l.16,58.55ZM112.13,74.89c1.01,0,1.56.94,1.58,1.74l.15,8.89c1.59.37,2.89.33,4.49.05l.03-9.52c.01-3.27-2.29-5.81-5.64-5.81h-34.41c-3.08,0-5.58,2.23-5.59,5.28l-.03,10.05c1.63.27,2.92.31,4.5-.05l.23-9.36c.01-.61.76-1.28,1.5-1.28h33.2ZM110.37,78.31h-29.68v7.46h29.68v-7.46ZM65.95,111.02l.02,9.09,24.57,10.78c2.86,1.26,6.07,1.32,8.87.2,8.9-20.28,27.83-33.85,50.1-35.35-.08-3.83-3.16-6.49-7.09-6.49l-94.27.03c-3.99,0-6.75,3.32-6.74,7.03.02,4.47-.15,8.55.11,12.97l10.88,4.77c.18-3.12-.22-5.85,2.22-7.44,1.64-1.07,3.73-.73,5.65-.83,3.31-.19,5.67,1.9,5.67,5.23ZM208.42,154.13c0-30.46-24.69-55.15-55.15-55.15s-55.15,24.69-55.15,55.15,24.69,55.15,55.15,55.15,55.15-24.69,55.15-55.15ZM62.35,127.79l.09-18.14c-2.37-.7-4.6-.85-6.51.24l.14,18.22c1.76.6,5.17,1.11,6.28-.32ZM66,123.89c-.11,3.11.07,4.91-1.27,6.5-1.99,2.36-11.98,2.86-12.1-2.55l-.22-9.99-10.96-4.76-.05,46.95c-.4,4.47,2.48,8.16,7.07,8.16l47.93-.03c-2.63-11.23-2.11-22.09,1.38-32.91-3.33-.11-6.01-.12-8.71-1.3l-23.08-10.09ZM199.22,190.62l-9.47,9.47,13.47,13.47,9.47-9.47-13.47-13.47ZM242,250.26l7.79-7.86c2.26-2.28,2.26-6.05-.1-8.41l-26.73-26.74c-2.48-2.48-6.35-2.18-8.69.16l-7.69,7.66c-2.39,2.39-2.67,6.24-.17,8.74l26.73,26.72c2.47,2.47,6.35,2.25,8.85-.27Z"/>
  <path class="st5" d="M95.27,240.22h10.71c.34.8,1,1.61,2.27,1.61h56.33c5.56,0,9.9-4.11,9.93-9.6l.11-23.57c4.41-1.73,7.93-3.76,11.95-6.24l-.02,36.07c0,7.78-6.26,13.8-14.13,13.8H18.63c-7.82,0-14.14-5.97-14.14-13.88l-.05-131.25c0-1.5-.67-2.1-1.68-2.31v-12.48c1.01-.14,1.69-.88,1.69-2.23l.02-56.37c0-7.93,6.21-14.08,14.07-14.09l32.31-.04v12.1s-23.8-.01-23.8-.01c-6.3,0-10.57,4.21-10.57,10.58l.05,189.8c0,5.67,4.43,9.7,9.94,9.7h66.47c1.34,0,2.1-.67,2.32-1.61Z"/>
  <path class="st1" d="M105.98,240.21h-10.71c-.27-1.27-1.06-1.72-2.31-1.72H26.53c-3.62,0-6.62-2.58-6.62-6.43V41.44c0-3.84,3.08-6.13,6.51-6.12l24.78.05c1.26,3.14,3.57,4.67,6.9,4.67h74.86c3.33,0,5.65-1.52,6.88-4.67,9.46-.14,15.78-.48,25.24-.21,3.5.1,6.23,2.97,6.23,6.54l-.05,56.7c-6.35-1.82-11.8-2.68-18.03-2.75-.61-5.68-4.83-9.84-10.59-9.86l-20.83-.04-.08-10.34c-.03-4.13-3.42-8.35-7.89-8.35h-36.63c-4.72,0-7.92,4.58-7.93,8.91l-.03,9.75-21.38.12c-6.03.03-10.08,5.1-10.06,11.12l.18,64.08c.03,5.99,4.44,10.55,10.47,10.6h48.92c3.36,10.82,9.62,19.72,18.1,27.35l-75.45.07c-1.4.05-1.93.89-1.79,1.9.1.72.63,1.47,1.81,1.47h80.05c14.94,10.09,33.16,13.01,51.07,7.53l.16,22.26c-.37,3.23-2.35,5.77-5.66,6.32l-57.42-.07c-1.33,0-1.97.85-2.28,1.73ZM152.83,218.79H38.22v3.38h114.61v-3.38Z"/>
  <path class="st4" d="M133.73,36.57l-76.2.03c-1.68-.08-3.09-1.13-3.09-2.82l-.05-15.81c0-1.76,1.34-3.02,3.04-3.02l11.26-.04c5.74-.02,4.64-5.04,13.78-8.7,8.37-3.35,17.71-3.35,26.08,0,9.04,3.62,8.11,8.68,13.78,8.7l11.26.04c1.72,0,3.04,1.27,3.04,3.02l.02,15.29c0,1.45-.82,3.32-2.94,3.32Z"/>
  <path class="st5" d="M174.64,99.73l-.16-58.55c-.01-5.23-4.34-9.31-9.4-9.33l-24.86-.12-.13-11.97,31.92-.11c7.32-.02,14.44,5.27,14.46,13.1l.15,73.12c-4-2.35-7.08-4.44-11.98-6.14Z"/>
  <rect class="st2" x="38.22" y="218.79" width="114.61" height="3.38"/>
  <path class="st4" d="M65.95,111.02c0-3.33-2.36-5.42-5.67-5.23-1.92.11-4-.24-5.65.83-2.44,1.59-2.03,4.32-2.22,7.44l-10.88-4.77c-.26-4.42-.09-8.5-.11-12.97-.02-3.71,2.75-7.03,6.74-7.03l94.27-.03c3.93,0,7.01,2.66,7.09,6.49-22.27,1.5-41.21,15.07-50.1,35.35-2.8,1.11-6.01,1.05-8.87-.2l-24.57-10.78-.02-9.09ZM100.26,121.27c0-2.61-2.12-4.73-4.73-4.73s-4.73,2.12-4.73,4.73,2.12,4.73,4.73,4.73,4.73-2.12,4.73-4.73Z"/>
  <path class="st3" d="M66,123.89l23.08,10.09c2.7,1.18,5.38,1.19,8.71,1.3-3.49,10.81-4.01,21.68-1.38,32.91l-47.93.03c-4.59,0-7.47-3.69-7.07-8.16l.05-46.95,10.96,4.76.22,9.99c.12,5.41,10.11,4.91,12.1,2.55,1.35-1.6,1.16-3.39,1.27-6.5Z"/>
  <path class="st0" d="M62.35,127.79c-1.1,1.43-4.52.92-6.28.32l-.14-18.22c1.92-1.09,4.14-.94,6.51-.24l-.09,18.14Z"/>
  <circle class="st2" cx="95.53" cy="121.27" r="4.73"/>
  <path class="st5" d="M112.13,74.89h-33.2c-.73,0-1.48.67-1.5,1.28l-.23,9.36c-1.58.36-2.87.32-4.5.05l.03-10.05c0-3.05,2.51-5.28,5.59-5.28h34.41c3.35,0,5.65,2.54,5.64,5.81l-.03,9.52c-1.6.28-2.9.31-4.49-.05l-.15-8.89c-.01-.8-.57-1.74-1.58-1.74Z"/>
  <rect class="st1" x="80.69" y="78.31" width="29.68" height="7.46"/>
  <path class="st5" d="M208.42,154.13c0,30.46-24.69,55.15-55.15,55.15s-55.15-24.69-55.15-55.15,24.69-55.15,55.15-55.15,55.15,24.69,55.15,55.15ZM198.91,154.13c0-25.2-20.43-45.63-45.63-45.63s-45.63,20.43-45.63,45.63,20.43,45.63,45.63,45.63,45.63-20.43,45.63-45.63Z"/>
  <path class="st4" d="M242,250.26c-2.51,2.53-6.38,2.75-8.85.27l-26.73-26.72c-2.5-2.5-2.23-6.36.17-8.74l7.69-7.66c2.34-2.33,6.22-2.63,8.69-.16l26.73,26.74c2.36,2.36,2.36,6.13.1,8.41l-7.79,7.86Z"/>
  <rect class="st5" x="194.52" y="192.56" width="13.39" height="19.04" transform="translate(-83.96 201.47) rotate(-45)"/>
  <path class="st2" d="M198.91,154.13c0,25.2-20.43,45.63-45.63,45.63s-45.63-20.43-45.63-45.63,20.43-45.63,45.63-45.63,45.63,20.43,45.63,45.63ZM195.52,154.14c0-23.33-18.91-42.24-42.24-42.24s-42.24,18.91-42.24,42.24,18.91,42.24,42.24,42.24,42.24-18.91,42.24-42.24Z"/>
  <path class="st0" d="M195.52,154.14c0,23.33-18.91,42.24-42.24,42.24s-42.24-18.91-42.24-42.24,18.91-42.24,42.24-42.24,42.24,18.91,42.24,42.24ZM119.21,162.44c.42,5.03,4.42,6.53,8.78,6.51,3.86-.02,8.34-1.5,8.38-6.06l.17-21.4c.01-1.33-.97-2.06-1.96-1.92-.82.12-1.39.82-1.4,1.94l-.23,21.35c-.03,2.7-3.54,2.59-5.47,2.64-2.75.07-4.67-.71-4.98-3.52-.11-1.05-1.15-1.61-2.13-1.37-.54.13-1.24.87-1.16,1.84ZM161.94,159.9v-11.69c0-4.99-4.01-8.78-8.8-8.71-4.32.07-8.35,3.53-8.48,8.29-.12,4.3-.14,8.45,0,12.75.16,4.87,4.48,8.39,8.85,8.23,4.65-.17,8.43-3.81,8.43-8.88ZM179.87,168.78c5.63-.02,7.45-4.61,7.75-9.23.2-3.17-1.53-5.72-1.98-8.19-.06-2.1,3.33-4.9,1.12-8.12-1.24-1.8-3.15-3.79-6.39-3.77l-8.37.03c-1.23,0-1.97.84-1.97,2.07v25.21c0,1.17.8,2.03,1.99,2.03l7.85-.03Z"/>
  <path class="st2" d="M179.87,168.78l-7.85.03c-1.19,0-1.99-.86-1.99-2.03v-25.21c0-1.22.74-2.06,1.97-2.07l8.37-.03c3.24-.01,5.15,1.98,6.39,3.77,2.21,3.22-1.18,6.02-1.12,8.12.45,2.47,2.19,5.02,1.98,8.19-.3,4.63-2.12,9.21-7.75,9.23ZM181.71,149.17c1.99-.38,2.46-2.49,2.11-3.95-.86-3.56-7.07-2.17-10.27-2.17-.13,2.32-.28,4.11.06,6.34,2.72-.15,5.28.32,8.1-.21ZM182.77,154.09c-1.9-1.78-6.62-1.28-9.31-.94l.07,12.11c2.69.19,5.36.52,7.79-.21,3.99-1.21,3.03-9.47,1.45-10.95Z"/>
  <path class="st2" d="M161.94,159.9c0,5.06-3.77,8.71-8.43,8.88-4.37.16-8.68-3.36-8.85-8.23-.14-4.3-.12-8.45,0-12.75.13-4.77,4.16-8.22,8.48-8.29,4.79-.08,8.79,3.72,8.8,8.71v11.69ZM158.56,159.84l-.02-11.62c0-3.25-2.59-5.43-5.5-5.31-2.71.11-5.03,2.23-5.02,5.3v11.9c.01,3.23,2.62,5.4,5.58,5.24,2.6-.13,4.96-2.23,4.96-5.52Z"/>
  <path class="st2" d="M119.21,162.44c-.08-.97.62-1.71,1.16-1.84.99-.24,2.02.33,2.13,1.37.3,2.81,2.23,3.59,4.98,3.52,1.93-.05,5.44.06,5.47-2.64l.23-21.35c.01-1.12.58-1.82,1.4-1.94.99-.15,1.97.59,1.96,1.92l-.17,21.4c-.04,4.55-4.52,6.03-8.38,6.06-4.36.03-8.36-1.48-8.78-6.51Z"/>
  <path class="st0" d="M182.77,154.09c1.58,1.48,2.54,9.75-1.45,10.95-2.44.74-5.1.41-7.79.21l-.07-12.11c2.69-.34,7.41-.83,9.31.94Z"/>
  <path class="st0" d="M181.71,149.17c-2.82.53-5.38.06-8.1.21-.34-2.23-.19-4.02-.06-6.34,3.21,0,9.42-1.39,10.27,2.17.35,1.47-.13,3.58-2.11,3.95Z"/>
  <path class="st0" d="M158.56,159.84c0,3.29-2.36,5.39-4.96,5.52-2.95.15-5.57-2.02-5.57-5.24v-11.9c-.01-3.07,2.3-5.19,5.01-5.3,2.91-.12,5.49,2.06,5.5,5.31l.02,11.62Z"/>
</svg>