<?xml version="1.0" encoding="UTF-8"?>
<svg id="Layer_1" xmlns="http://www.w3.org/2000/svg" version="1.1" viewBox="0 0 256 256">
  <!-- Generator: Adobe Illustrator 30.1.0, SVG Export Plug-In . SVG Version: 2.1.1 Build 136)  -->
  <defs>
    <style>
      .st0 {
        fill: #524e53;
      }

      .st1 {
        fill: #020202;
      }

      .st2 {
        fill: #2aa2f2;
      }

      .st3 {
        fill: #e5ecf7;
      }

      .st4 {
        fill: #020303;
      }

      .st5 {
        fill: #f2d0af;
      }
    </style>
  </defs>
  <path class="st1" d="M232.81,255.84H23.47C10.85,253.97.05,244.43.04,230.98L0,25C0,12.32,9.81,2.72,21.62.16h212.75c11.81,2.56,21.63,12.17,21.62,24.84l-.04,205.98c0,13.25-10.46,22.74-23.15,24.86ZM245.43,44.14l.11-18.31c-.11-8.31-6.46-15.49-15.23-15.49H25.68c-8.72,0-15.24,7.18-15.2,15.48l.1,18.33,234.85-.02ZM230.3,245.42c8.84-.36,14.98-6.81,15.25-15.4l-.08-175.45H10.53s-.07,174.24-.07,174.24c-.41,9.45,6.58,16.72,15.97,16.61h203.86Z"/>
  <g>
    <path class="st1" d="M125.76,32.34H38.95c-3.04,0-4.91-2.69-4.94-4.95-.04-3,2.12-5.24,5.42-5.24l86.12.02c2.99,0,4.95,2.14,5.15,4.73.18,2.32-1.52,5.44-4.94,5.44Z"/>
    <path class="st1" d="M201.74,29.86c0,3.32-2.4,5.38-5.16,5.36s-5.04-2.09-5.05-5.11v-5.45c-.02-3.1,2.3-5.31,5.05-5.32s5.15,2.18,5.15,5.31v5.2Z"/>
    <path class="st1" d="M222.06,29.23c.02,3.38-1.86,5.56-4.55,5.84-2.91.3-5.65-1.71-5.67-4.95l-.03-5.44c-.02-3.22,2.24-5.42,5.12-5.41,2.85,0,5.09,2.24,5.11,5.42l.02,4.55Z"/>
    <path class="st1" d="M181.45,29.86c.01,3.36-2.44,5.45-5.18,5.46s-5.02-2.21-5.04-5.26c-.01-1.99-.1-3.89.04-5.86.21-2.84,2.51-4.73,5-4.74,2.82-.02,5.15,2.12,5.16,5.21l.02,5.19Z"/>
    <path class="st0" d="M245.43,44.14l-234.85.02-.1-18.33c-.04-8.31,6.48-15.48,15.2-15.48h204.64c8.76,0,15.12,7.17,15.23,15.48l-.11,18.31ZM181.45,29.86l-.02-5.19c-.01-3.1-2.33-5.23-5.16-5.21-2.5.01-4.79,1.9-5,4.74-.14,1.97-.06,3.87-.04,5.86.02,3.04,2.29,5.26,5.04,5.26s5.19-2.09,5.18-5.46ZM201.74,29.86v-5.2c-.02-3.13-2.31-5.32-5.16-5.31s-5.07,2.22-5.06,5.32v5.45c.02,3.02,2.4,5.1,5.07,5.11s5.17-2.05,5.16-5.36ZM222.06,29.23l-.02-4.55c-.02-3.18-2.26-5.41-5.11-5.42-2.88,0-5.14,2.19-5.12,5.41l.03,5.44c.02,3.23,2.76,5.25,5.67,4.95,2.7-.28,4.57-2.45,4.55-5.84ZM125.76,32.34c3.42,0,5.12-3.12,4.94-5.44-.2-2.59-2.16-4.73-5.15-4.73l-86.12-.02c-3.3,0-5.46,2.24-5.42,5.24.03,2.26,1.9,4.96,4.94,4.96h86.81Z"/>
  </g>
  <g>
    <path class="st3" d="M230.3,245.42H26.43c-9.39.1-16.38-7.16-15.97-16.61l.07-174.24h234.94s.08,175.45.08,175.45c-.26,8.59-6.41,15.04-15.25,15.4ZM182.71,124.87c0-30.2-24.49-54.69-54.69-54.69s-54.69,24.49-54.69,54.69,24.49,54.69,54.69,54.69,54.69-24.49,54.69-54.69ZM62.61,218.21c1.82-.44,3.24-.08,4.82-.31,2.97-.43,4.67-2.92,4.44-5.49-.5-5.6-6.1-4.3-9.36-4.93.65-1.8,1.57-2.7,2.15-4.06,1.13-2.66.24-5.51-2.24-6.79-2.22-1.15-5.14-.53-6.71,1.86-.74,1.13-1.18,2.26-2.26,3.68-1.21-1.02-1.59-2.32-2.42-3.59-1.57-2.44-4.54-3.26-7.03-1.81-2.16,1.25-3.25,4.17-1.93,6.77.68,1.34,1.47,2.34,2.12,4.02-1.35.34-2.71.19-4.26.23-3.1.07-5.2,2.36-5.16,5.19.04,2.66,2.2,4.94,5.22,5.01,1.41.04,2.65-.16,4.09.26-.41,1.28-1.14,2.26-1.8,3.46-1.52,2.73-.65,6,2.01,7.34,4.82,2.43,6.96-2.62,9.08-5.55,1.12,1.15,1.55,2.61,2.52,3.93,1.71,2.31,4.85,2.76,7.04,1.31,4.37-2.9,1.28-7.15-.32-10.52ZM114.38,222.07c-.64-1.38-1.63-2.35-2.02-3.9,1.8-.37,3.2-.07,4.78-.27,2.92-.36,4.73-2.95,4.53-5.4-.47-5.65-6.12-4.42-9.39-5.02.54-1.46,1.34-2.42,1.97-3.68,1.3-2.57.68-5.54-1.76-7.01-1.93-1.16-4.82-.98-6.52,1.11-1.24,1.53-1.9,3.18-2.83,4.72l-2.35-4.04c-1.55-2.66-4.87-3.2-7.14-1.76-4.78,3.04-1.05,7.67.23,10.72-1.25.27-2.36.26-3.63.21-3.08-.12-5.44,1.79-5.69,4.7-.22,2.52,1.63,5.13,4.59,5.46,1.58.17,2.95-.07,4.77.28-.52,1.49-1.43,2.52-2.08,3.92-1.24,2.68-.27,5.65,2.18,6.91,2.21,1.13,5.06.5,6.62-1.75.85-1.22,1.32-2.46,2.42-3.88,1.16,1.14,1.58,2.62,2.56,3.96,1.71,2.35,4.83,2.84,7.05,1.39s2.86-4.19,1.71-6.68ZM164.11,221.92c-.71-1.42-1.56-2.41-1.91-3.7,1.64-.43,3.06-.13,4.64-.29,3.01-.31,4.87-2.9,4.65-5.46-.48-5.53-6-4.45-9.39-4.92l2.29-4.47c1.33-2.59-.22-5.61-2.79-6.64-5.05-2.01-6.85,3.33-8.78,6.19-.76-1.64-1.41-2.81-2.23-4.1-1.55-2.43-4.47-3.07-6.76-1.88-2.44,1.27-3.38,4.12-2.2,6.79.61,1.38,1.58,2.39,2.14,4.09-1.46.42-2.85.17-4.41.26-3.04.17-5,2.39-4.95,5.23.04,2.53,2.02,4.76,5,4.95,1.41.09,2.65-.2,4.31.28-.56,1.74-1.64,2.74-2.21,4.25-1.04,2.77.2,5.62,2.62,6.64,5.05,2.13,6.79-2.99,8.84-5.76,1.14,1.39,1.58,2.64,2.41,3.86,1.65,2.43,4.79,2.96,7,1.57s3.07-4.2,1.73-6.9ZM212.02,218.21c1.52-.42,2.96-.12,4.51-.27,3.03-.29,4.95-2.79,4.73-5.45-.46-5.56-6.04-4.51-9.39-4.93.57-1.53,1.25-2.44,1.91-3.59,1.53-2.69.61-5.89-1.74-7.2-2.51-1.4-5.5-.6-7.04,1.86-.74,1.19-1.26,2.37-2.2,3.56-1.22-1.04-1.6-2.43-2.45-3.69-1.62-2.38-4.49-3.05-6.74-1.85-2.44,1.3-3.4,4.11-2.23,6.78.61,1.38,1.61,2.37,2.15,4.12-1.53.41-2.91.14-4.48.25-3.21.23-5.21,2.74-4.84,5.81.59,4.9,5.61,4.22,9.19,4.65-.41,1.72-1.56,2.74-2.15,4.29-1.04,2.74.22,5.58,2.6,6.59,5,2.13,6.76-2.71,8.82-5.66,1.33,1.27,1.68,2.82,2.74,4.12,1.76,2.16,4.73,2.64,7.01,1.06,4.46-3.09.77-7.51-.41-10.44Z"/>
    <g>
      <path class="st2" d="M145,132.62c10-10.11,10.09-25.36.42-35.13s-24.87-9.67-34.46-.3-10.14,25.25.17,35.42c-8.25,4.03-14.39,9.69-19.17,17.9-13.48-18.77-9.95-44.2,6.79-58.95s42.12-14.75,58.89.23c16.61,14.83,19.92,40.17,6.53,58.77-4.51-7.99-10.56-13.78-19.17-17.94Z"/>
      <path class="st5" d="M156.6,158.78c-16.51,13.99-40.64,13.86-57.11.09,4.68-12.01,16.03-19.33,28.23-19.42,12.32-.09,23.74,6.89,28.88,19.33Z"/>
      <path class="st4" d="M182.71,124.87c0,30.2-24.49,54.69-54.69,54.69s-54.69-24.49-54.69-54.69,24.49-54.69,54.69-54.69,54.69,24.49,54.69,54.69ZM145,132.62c8.61,4.16,14.67,9.95,19.17,17.94,13.38-18.6,10.07-43.94-6.53-58.77-16.77-14.97-42.06-15.05-58.89-.23s-20.27,40.18-6.79,58.95c4.79-8.2,10.92-13.87,19.17-17.9-10.31-10.17-9.98-25.83-.17-35.42s25.09-9.16,34.46.3,9.58,25.02-.42,35.13ZM142.22,114.81c0-7.84-6.36-14.2-14.2-14.2s-14.2,6.36-14.2,14.2,6.36,14.2,14.2,14.2,14.2-6.36,14.2-14.2ZM156.6,158.78c-5.14-12.45-16.57-19.42-28.88-19.33-12.2.09-23.55,7.41-28.23,19.42,16.48,13.77,40.61,13.9,57.11-.09Z"/>
      <circle class="st5" cx="128.02" cy="114.81" r="14.2"/>
    </g>
    <g>
      <path class="st4" d="M212.02,218.21c1.17,2.93,4.86,7.35.41,10.44-2.28,1.58-5.25,1.1-7.01-1.06-1.06-1.3-1.42-2.85-2.74-4.12-2.06,2.95-3.82,7.79-8.82,5.66-2.37-1.01-3.64-3.86-2.6-6.59.59-1.55,1.73-2.57,2.15-4.29-3.58-.43-8.59.25-9.19-4.65-.37-3.07,1.63-5.59,4.84-5.81,1.57-.11,2.95.17,4.48-.25-.55-1.76-1.54-2.74-2.15-4.12-1.18-2.67-.22-5.48,2.23-6.78,2.26-1.2,5.12-.54,6.74,1.85.85,1.26,1.24,2.64,2.45,3.69.94-1.18,1.45-2.36,2.2-3.56,1.53-2.47,4.52-3.26,7.04-1.86,2.35,1.31,3.27,4.51,1.74,7.2-.65,1.15-1.34,2.06-1.91,3.59,3.35.42,8.93-.62,9.39,4.93.22,2.66-1.7,5.16-4.73,5.45-1.55.15-2.99-.15-4.51.27Z"/>
      <path class="st4" d="M62.61,218.21c1.6,3.37,4.69,7.62.32,10.52-2.19,1.46-5.33,1-7.04-1.31-.97-1.32-1.4-2.78-2.52-3.93-2.12,2.93-4.26,7.98-9.08,5.55-2.66-1.34-3.53-4.61-2.01-7.34.67-1.2,1.39-2.18,1.8-3.46-1.44-.42-2.68-.23-4.09-.26-3.03-.08-5.19-2.35-5.22-5.01-.04-2.83,2.06-5.12,5.16-5.19,1.54-.03,2.91.11,4.26-.23-.65-1.68-1.44-2.68-2.12-4.02-1.32-2.6-.23-5.52,1.93-6.77,2.49-1.44,5.46-.63,7.03,1.81.82,1.27,1.21,2.57,2.42,3.59,1.08-1.42,1.52-2.55,2.26-3.68,1.57-2.38,4.49-3.01,6.71-1.86,2.48,1.28,3.37,4.13,2.24,6.79-.58,1.36-1.49,2.26-2.15,4.06,3.26.63,8.86-.66,9.36,4.93.23,2.56-1.48,5.06-4.44,5.49-1.57.23-2.99-.14-4.82.31Z"/>
      <path class="st4" d="M164.11,221.92c1.34,2.7.48,5.52-1.73,6.9s-5.35.85-7-1.57c-.84-1.23-1.28-2.47-2.41-3.86-2.05,2.77-3.79,7.89-8.84,5.76-2.43-1.02-3.67-3.87-2.62-6.64.57-1.51,1.65-2.51,2.21-4.25-1.67-.48-2.9-.19-4.31-.28-2.98-.19-4.96-2.42-5-4.95-.05-2.83,1.91-5.06,4.95-5.23,1.56-.09,2.95.16,4.41-.26-.56-1.7-1.53-2.71-2.14-4.09-1.18-2.68-.24-5.52,2.2-6.79,2.29-1.19,5.21-.55,6.76,1.88.82,1.29,1.48,2.47,2.23,4.1,1.93-2.86,3.73-8.2,8.78-6.19,2.57,1.02,4.12,4.05,2.79,6.64l-2.29,4.47c3.39.47,8.91-.61,9.39,4.92.22,2.57-1.63,5.15-4.65,5.46-1.58.17-3-.13-4.64.29.35,1.3,1.2,2.28,1.91,3.7Z"/>
      <path class="st4" d="M114.38,222.07c1.16,2.49.44,5.28-1.71,6.68s-5.34.96-7.05-1.39c-.98-1.34-1.4-2.81-2.56-3.96-1.1,1.42-1.57,2.66-2.42,3.88-1.56,2.25-4.41,2.88-6.62,1.75-2.45-1.26-3.42-4.23-2.18-6.91.65-1.39,1.56-2.43,2.08-3.92-1.83-.35-3.19-.11-4.77-.28-2.96-.33-4.81-2.93-4.59-5.46.25-2.91,2.61-4.82,5.69-4.7,1.27.05,2.38.06,3.63-.21-1.29-3.05-5.01-7.68-.23-10.72,2.27-1.44,5.6-.91,7.14,1.76l2.35,4.04c.93-1.55,1.58-3.2,2.83-4.72,1.7-2.09,4.59-2.27,6.52-1.11,2.45,1.47,3.06,4.44,1.76,7.01-.64,1.26-1.43,2.22-1.97,3.68,3.27.6,8.92-.62,9.39,5.02.2,2.45-1.61,5.04-4.53,5.4-1.58.2-2.98-.1-4.78.27.39,1.55,1.38,2.52,2.02,3.9Z"/>
    </g>
  </g>
</svg>