<?xml version="1.0" encoding="UTF-8"?>
<svg id="Layer_1" xmlns="http://www.w3.org/2000/svg" version="1.1" viewBox="0 0 256 256">
  <!-- Generator: Adobe Illustrator 30.1.0, SVG Export Plug-In . SVG Version: 2.1.1 Build 136)  -->
  <defs>
    <style>
      .st0 {
        fill: #fff;
      }
    </style>
  </defs>
  <path d="M160.64,180.69c-12.13,11.27-7.69,39.9-2.54,54.14,1.01,2.81,2.64,5.48,3.82,8.16,1.78,4.04.56,8.04-3.45,9.97-5.39,2.6-11.21,3.02-17.26,3.03-25,.06-39.71-15.09-50.54-35.86-5.45-10.45-10.21-21.69-14.93-32.34-.21-.48-1.14-1.43-1.39-1.17s-.82,1.16-.83,1.58c-.14,11.37,4.45,17.93,5.81,27.98,1.55,11.47-21.97,9.76-31.47,5.62-13.87-6.04-21.39-26.92-26.18-40.45-6.99-19.73-1.35-26.2-4.84-40.68-8.76-36.26.06-74.39,31.54-96.58,2.92-2.06,12.32-8.4,15.07-7.93.29.05-.39,1.04-.75,1.29-10.32,7.11-19.54,16.75-25.38,28.16-13.87,27.15-8.29,60.05,10.46,83.26,2.41,2.98,14.31,15.05,16.51,13.38.28-.21.32-1.12.21-1.48-7.54-26.45-2.49-20.17-2.39-44.23l.06-13.71c.12-25.8,15.98-49.19,37.51-63.16-5.28-6.11-8.02-13.91-5.15-21.55,3.31-8.82,11.27-15.3,20.28-17.53,8.31-2.06,16.17,1.29,20.64,8.39,2.59,4.13,4.4,8.68,5.51,13.45s-1.11,8.75-5.49,10.52c-20.15,8.11-18.56,19.07-31.06,11.19-16.39,19.69-24.64,48.64-14.5,73.1,5.5,13.25,16.19,22.98,30.11,26.46,9,2.25,7.36,9.2,13.65,14.9,5.7,5.17,13.42-2.51,21.3,1.64,7.05,3.71,13.88,5.71,18.88-1.71,2.45-3.65,5.45-4.7,9.59-4.77,32.81-.56,52.54-29.38,51.31-60.18-.01-.36.5-1.4.78-1.28.37.17,1.23.86,1.35,1.27,9.79,33.53,1.47,79.63-10.58,112-3.38,9.08-9.98,23.68-17.61,29.43-7.13,5.37-19.01,10.17-28.15,9-5.52-.71-9.47-4.74-10.48-10.18s-.17-11.11,1.05-16.72c2.17-9.97,4.44-26.03-1.2-34.88-.89-1.4-2.64-2.67-3.85-2.97-1.65-.42-4.12.24-5.42,1.45ZM163.88,166.16c-9.22-.28-17.53-1.46-26.38-3.36-.05,2.37,1.04,4.6,2.88,6.16,6.88,5.86,20.47,6.11,23.5-2.8Z"/>
  <path d="M216.31,55.43c-4.57-6.04-10.42-10.65-17.25-13.89-3.21-1.52-4.52-5.15-3.68-8.51,3.12-12.47,13.77-22.76,27.62-19.19,12.09,3.12,22.33,17,18.59,28.43-2.07,6.33-6.7,11.75-12.2,15.12-4.61,2.82-9.91,2.24-13.09-1.97Z"/>
  <path d="M195.54,133.91c-14.79,4.79-16.07-16.61-23.26-25.24,2.07-7.76,8.19-20.38,18.42-17.54,13.54,3.76,19.09,20.52,14.96,32.93-1.67,5.01-5.06,8.22-10.12,9.85Z"/>
  <path d="M144.56,104.98c-7.7,7.02-12.92,21.95-24.82,19.43-11.34-2.4-13.72-17.91-7.91-28.07,3.18-5.56,8.07-9.93,13.9-12.31s12.05-.43,15.26,4.98c2.79,4.71,4.28,10.44,3.58,15.97Z"/>
  <path d="M168.15,145.39c1.05,6.28-8.42,2.67-14.87,8.89-.32.31-1.38.9-1.71.65s-.96-.92-1.19-1.3c-4.48-7.32-12.64-5.43-13.42-9.7-1.73-9.51,20.73-4.95,25.72-3.72,2.63.65,5.01,2.43,5.47,5.18Z"/>
  <path class="st0" d="M163.88,166.16c-3.03,8.92-16.62,8.66-23.5,2.8-1.84-1.57-2.93-3.79-2.88-6.16,8.85,1.9,17.16,3.08,26.38,3.36Z"/>
</svg>