<?xml version="1.0" encoding="UTF-8"?>
<svg id="Layer_1" xmlns="http://www.w3.org/2000/svg" version="1.1" viewBox="0 0 256 256">
  <!-- Generator: Adobe Illustrator 30.1.0, SVG Export Plug-In . SVG Version: 2.1.1 Build 136)  -->
  <defs>
    <style>
      .st0 {
        fill: #67b7d6;
      }

      .st1 {
        fill: #fdc69e;
      }

      .st2 {
        fill: #ef454e;
      }

      .st3 {
        fill: #eee6e3;
      }

      .st4 {
        fill: #cf323b;
      }

      .st5 {
        fill: #020101;
      }
    </style>
  </defs>
  <g>
    <path class="st5" d="M256.3,226.48v29.99h-89.96c-1.75-.81-3.18-1.99-2.98-4s1.52-3.71,4.05-3.71h81.33s.07-15.8.07-15.8c.12-25.5-18.56-47.25-42.17-54.59l-5.98,11.68,8.02,34.99c.37,1.6-.21,2.96-1.34,3.99l-15.11,13.82c-1.73,1.58-3.98,1.48-5.68-.07l-15.12-13.85c-1.17-1.07-1.57-2.5-1.21-4.08l7.98-34.8-6-11.71c-23.63,7.49-42.25,29.11-42.16,54.6l.06,15.77,24.26.06c2.4,0,3.8,1.68,3.98,3.71s-1.22,3.18-2.98,4h-29.99c-2.12-1.1-3.1-2.89-3.07-5.5l.25-21.34c.09-8.11,2.34-15.59,6-23.04-49.2,11.67-99.14-13.86-119.47-59.81-11.71-26.45-11.68-57.03,0-83.49,4.47-10.13,10.24-18.93,17.39-27.15C41.95,18.32,67.98,3.47,91.3,1.61l4.62-.37,17.42-.24c1.35.78,2.59.38,3.95.54,45.47,5.55,81.86,40.08,90,85.13,8.82,5.41,14.45,14.51,16.01,24.92l-.05,34.23c-1.72,10.26-6.91,18.92-15.87,24.61,18.06,5.55,33.08,17.26,41.71,33.73,3.65,6.96,7.19,14.64,7.21,22.31ZM128.34,198.54c1.74-.46,4.34-.39,5.89-1.67,5.64-7.36,12.06-13.75,20.04-18.53.69-.41,1.23-.81,1.55-1.36,5-1.73,9.48-4.79,14.64-6.14.24-.06.61-.09.98-.52-2.72-1.81-4.96-3.92-7.29-6.16-1.07-.34-1.67,1.41-2.25,1.87-3.76,2.98-10.99,9.18-15.43,11.12-2.33,1.01-3.64-.34-5.01-1.27-.13-1.92-.43-3.92,1.65-5.26,5.73-3.69,11.92-7.73,16.24-13.18-2.11-5.09-3.92-10.69-3.91-16.4l.04-25.01c.02-14.69,9.1-26.81,21.92-32.38-6.73-24.89-27.37-44.47-50.53-51.33-27.71-8.2-56.03-.75-75.71,18.72-2.23,2.2-4.03,2.23-6.75,1.51.29-1.31-1.69-3.49-.23-5.02,21.25-22.4,52.83-31.36,83.62-22.73,26.62,7.47,49.1,29.25,57.03,57.13l7.44-.39,6.43,1.25c-6.93-29.61-27.71-54.4-55.38-66.24-11.67-5-23.97-7.99-36.65-8.21C47.96,7.33,2.03,58.06,8.56,115.87c6.56,58.09,63.57,97.59,119.78,82.67ZM215.86,141.03l-.08-12.83c-9.63-1.52-16.46-8.74-20.57-17.29-7.38,10.87-19.22,16.65-32.18,17.47l-.03,13.18c-.04,13.88,10.86,25.45,24.82,26.28,15.47.93,28.15-11.46,28.05-26.82ZM194.52,185.66l4.55-9.27c-6.56-1.29-12.82-1.31-19.39.02l4.81,9.35,10.03-.1ZM187.35,233c.22.49,1.55,2.37,2.27,1.86l11.32-10.1-7.19-31.21c-1.75-.56-4.53-.22-5.95-.1-.64.06-2.4-.66-2.63.21l-7.25,30.97,9.43,8.38Z"/>
    <path class="st1" d="M215.86,141.03c.1,15.36-12.57,27.75-28.05,26.82-13.96-.84-24.86-12.41-24.82-26.28l.03-13.18c12.96-.82,24.8-6.61,32.18-17.47,4.11,8.55,10.94,15.77,20.57,17.29l.08,12.83Z"/>
    <g>
      <path class="st0" d="M163.36,252.47h-5.03c-.18-2.02-1.58-3.7-3.98-3.71l-24.26-.06-.06-15.77c-.09-25.49,18.52-47.11,42.16-54.6l6,11.71-7.98,34.8c-.36,1.58.04,3.01,1.21,4.08l15.12,13.85c1.7,1.56,3.95,1.65,5.68.07l15.11-13.82c1.13-1.03,1.71-2.39,1.34-3.99l-8.02-34.99,5.98-11.68c23.61,7.34,42.29,29.09,42.17,54.59l-.07,15.81h-81.33c-2.53,0-3.85,1.68-4.05,3.7Z"/>
      <path class="st2" d="M187.8,193.45l7.26,32.53-7.71,7.02-9.43-8.38,7.25-30.97c.23-.86,2-.15,2.63-.21Z"/>
      <path class="st4" d="M187.35,233l7.71-7.02-7.26-32.53c1.43-.13,4.21-.47,5.95.1l7.19,31.21-11.32,10.1c-.71.51-2.05-1.37-2.27-1.86Z"/>
      <path class="st4" d="M194.52,185.66l-10.03.1-4.81-9.35c6.57-1.32,12.84-1.31,19.39-.02l-4.55,9.27Z"/>
    </g>
    <path class="st4" d="M170.46,170.85c-.05-.16-.15-.72-.53-.83-3.04-.85-5.51-2.43-8.03-3.98.58-.46,1.17-2.21,2.25-1.87,2.34,2.23,4.57,4.35,7.29,6.16-.37.43-.75.46-.98.52Z"/>
  </g>
  <g>
    <path class="st2" d="M143.32,16.57c-.18.86.52.92,1.29,1.36,24.02,13.8,41.29,36.88,47.66,63.62l-7.44.39c-7.93-27.87-30.41-49.66-57.03-57.13-30.79-8.63-62.37.33-83.62,22.73-1.45,1.53.52,3.71.23,5.02-.62,1.41-3.53,3.43-2.94,4.99-.97-.73-2-1.26-3.31-1.09-1.16.15-2.04.81-2.81,1.95-20.39,30.24-18.59,70.11,3.86,98.41,22.42,28.27,60.66,39.23,94.92,26.28,1.38-.52,2.66-3.34,1.77-4.96,1.94-.07,3.75-1.55,5.55-2.25,1.37.93,2.68,2.28,5.01,1.27,4.44-1.93,11.67-8.13,15.43-11.12,2.51,1.55,4.99,3.13,8.03,3.98.38.11.48.67.53.83-5.16,1.35-9.65,4.41-14.64,6.14-10.24,3.54-19.09,10.71-26.22,19.17-.67.8-1.15,1.54-1.26,2.38-56.21,14.92-113.22-24.58-119.78-82.67C2.03,58.06,47.96,7.33,106.66,8.36c12.68.22,24.98,3.21,36.65,8.21Z"/>
    <path class="st4" d="M192.27,81.56c-6.37-26.74-23.65-49.82-47.66-63.62-.78-.45-1.47-.51-1.29-1.36,27.67,11.84,48.45,36.63,55.38,66.24l-6.43-1.25Z"/>
    <path class="st4" d="M155.81,176.99c-.31.54-.86.95-1.55,1.36-7.97,4.78-14.39,11.16-20.04,18.53-1.55,1.28-4.15,1.21-5.89,1.67.1-.84.58-1.58,1.26-2.38,7.12-8.46,15.97-15.63,26.22-19.17Z"/>
    <path class="st5" d="M41.48,57.56c.98,1.49,1.22,3.34.22,4.81-18.59,27.38-17.15,63.6,3.06,89.42,20.13,25.72,54.56,35.99,85.75,24.7,1.85-.67,4.38-.21,5.41,1.65.89,1.62-.39,4.44-1.77,4.96-34.27,12.96-72.5,1.99-94.92-26.28-22.45-28.31-24.26-68.17-3.86-98.41.77-1.13,1.65-1.8,2.81-1.95,1.31-.17,2.35.36,3.31,1.09Z"/>
    <g>
      <path class="st3" d="M141.46,175.89c-1.8.7-3.6,2.18-5.55,2.25-1.03-1.86-3.56-2.32-5.41-1.65-31.19,11.29-65.62,1.02-85.75-24.7-20.21-25.82-21.65-62.04-3.06-89.42,1-1.47.76-3.33-.22-4.81-.6-1.56,2.32-3.58,2.94-4.99,2.72.72,4.52.7,6.75-1.51,19.68-19.48,48-26.92,75.71-18.72,23.16,6.85,43.79,26.44,50.53,51.33-12.82,5.57-21.89,17.68-21.92,32.38l-.04,25.01c0,5.71,1.79,11.31,3.91,16.4-4.32,5.45-10.51,9.5-16.24,13.18-2.08,1.34-1.78,3.34-1.65,5.26ZM78.18,140.49l19.67-21.36c8.82,3.91,18.5-.37,21.51-9.22,2.83-8.34-1.86-17.65-11.01-20.07l-.06-41.75c0-2.35-1.74-3.83-3.69-3.85s-3.75,1.51-3.75,3.86l-.06,41.7c-5.3,1.44-9.12,5.23-10.73,9.41-2.05,5.32-1.25,10.53,1.95,15.11l-19.67,21.58c-1.53,1.68-.95,4.2.57,5.34s3.68.98,5.26-.74Z"/>
      <g>
        <path class="st5" d="M78.18,140.49c-1.59,1.72-3.7,1.91-5.26.74s-2.11-3.66-.57-5.34l19.67-21.58c-3.2-4.58-4-9.79-1.95-15.11,1.61-4.18,5.43-7.96,10.73-9.41l.06-41.7c0-2.35,1.73-3.88,3.75-3.86s3.68,1.5,3.69,3.85l.06,41.75c9.15,2.43,13.85,11.73,11.01,20.07-3.01,8.85-12.69,13.14-21.51,9.22l-19.67,21.36ZM103.47,112.92c4.75.94,9.12-2.94,9.24-7.66.13-5.01-3.98-8.94-9.19-8.26-3.97.52-7.01,3.6-7.11,7.8-.09,3.89,2.74,7.55,7.05,8.11Z"/>
        <path class="st1" d="M103.52,97.01c3.89,4.78,3.98,11.23-.05,15.91-4.32-.56-7.14-4.22-7.05-8.11.1-4.21,3.14-7.28,7.11-7.8Z"/>
        <path class="st2" d="M103.47,112.92c4.03-4.68,3.94-11.13.05-15.91,5.2-.68,9.31,3.25,9.19,8.26-.12,4.72-4.48,8.6-9.24,7.66Z"/>
      </g>
    </g>
  </g>
</svg>