<?xml version="1.0" encoding="UTF-8"?>
<svg id="Layer_1" xmlns="http://www.w3.org/2000/svg" version="1.1" viewBox="0 0 256 256">
  <!-- Generator: Adobe Illustrator 30.1.0, SVG Export Plug-In . SVG Version: 2.1.1 Build 136)  -->
  <defs>
    <style>
      .st0 {
        fill: #3692bb;
      }

      .st1 {
        fill: #d2f1f5;
      }

      .st2 {
        fill: #0881af;
      }

      .st3 {
        fill: #fec244;
      }

      .st4 {
        fill: #fc6930;
      }

      .st5 {
        fill: #05bed6;
      }
    </style>
  </defs>
  <g>
    <path class="st1" d="M90.03,16.93l-1.55,2.12c-4.65,6.35-8.19,13.33-9.9,20.92-27.52,13.98-47.42,40.54-54.09,70.87-.65,2.97,1.35,5.46,3.86,6.01,2.39.53,5.18-.89,5.84-3.79,5.66-25.2,21.24-47.96,43.41-60.99l.04,20.3-8.64.05c-4.12.03-7.88,2.65-7.88,7.09l-.04,77.98-11.45.17c-3.5.05-6.91,3.01-6.97,6.7l-.19,12.03c-4.96-8.89-7.81-18.98-9.38-29.21l6.49-.12c1.13-.02,2.07-.6,2.5-1.39.4-.73.64-2.02,0-2.89l-11.37-15.48c-.64-.87-1.26-1.62-2.03-1.75-1.12-.2-2.38-.15-3.13.85l-12.09,16.29c-.65.88-.44,2.14-.03,3.02.38.81,1.5,1.55,2.73,1.54l6.77-.04c2.42,17.72,9.06,34.44,19.62,48.66.02,4.24-.12,8.48.11,12.98.18,3.5,3.43,6.45,6.83,6.46l11.55.04c38.54,31.98,95.14,31.98,133.78.17l11.17-.25c4.13-.09,7.43-3.37,7.44-7.37l.03-12.05c8.76-11.74,14.88-25.34,18.06-39.91.64-2.93-1.32-5.39-3.8-5.9-2.79-.58-5.29,1.06-6,4.03-1.88,7.84-4.23,15.51-8.15,22.29l-.13-11.02c-.05-4.47-3.56-7.64-7.95-7.67l-10.61-.07-.06-78.09c0-4.15-3.32-7.04-7.3-7.08l-9.15-.08.06-20.34c23.99,14.37,40.45,39.71,44.51,67.46l-6.3.2c-1.35.04-2.38.78-2.78,1.86-.37.97-.18,2.02.54,2.99l11.47,15.44c.76,1.02,1.65,1.54,2.83,1.48,1.05-.06,1.81-.76,2.55-1.78l11.44-15.59c.69-.95.44-2.2-.04-3.1-1.14-2.14-6.94-.59-9.55-1.35-4.49-33.95-25.44-64.26-55.65-79.71-2.03-8.47-6.04-16.14-11.46-22.92,5.56,1.36,10.69,3.8,16.06,6.42,45.01,21.98,71.91,69.33,68.22,119.1-4.48,60.34-52.75,108.6-113.09,113.09-67.19,4.99-126.35-45.49-131.38-113.09C1.57,86.19,36.45,34.42,90.03,16.93Z"/>
    <g>
      <path class="st5" d="M178.42,52.05c.01-3.85-.1-8.34-1-12.09,30.22,15.45,51.16,45.76,55.65,79.71,2.6.76,8.4-.79,9.55,1.35.48.9.73,2.15.04,3.1l-11.44,15.59c-.74,1.01-1.5,1.72-2.55,1.78-1.17.07-2.07-.45-2.83-1.48l-11.47-15.44c-.72-.97-.9-2.02-.54-2.99.41-1.08,1.44-1.81,2.78-1.86l6.3-.2c-4.06-27.76-20.51-53.09-44.51-67.46Z"/>
      <path class="st5" d="M78.58,39.96c-.87,3.86-1,8.17-.99,12.11-22.17,13.04-37.75,35.79-43.41,60.99-.65,2.9-3.44,4.31-5.84,3.79-2.51-.55-4.51-3.04-3.86-6.01,6.67-30.33,26.57-56.89,54.09-70.87Z"/>
    </g>
    <path class="st5" d="M78.5,215.43c29.86,18.66,69.15,18.61,99.02,0l17.31.12c-38.64,31.8-95.24,31.8-133.78-.17l17.45.05Z"/>
    <g>
      <path class="st5" d="M42.46,176.4l.09,19.49c-10.56-14.22-17.2-30.94-19.62-48.66l-6.77.04c-1.23,0-2.34-.74-2.73-1.54-.42-.88-.63-2.14.03-3.02l12.09-16.29c.74-1,2-1.05,3.13-.85.76.14,1.39.88,2.03,1.75l11.37,15.48c.64.87.4,2.16,0,2.89-.43.79-1.37,1.37-2.5,1.39l-6.49.12c1.58,10.22,4.42,20.31,9.38,29.21Z"/>
      <path class="st5" d="M213.46,195.89l.1-19.49c3.93-6.78,6.28-14.45,8.15-22.29.71-2.97,3.21-4.61,6-4.03,2.49.51,4.44,2.97,3.8,5.9-3.18,14.57-9.3,28.17-18.06,39.91Z"/>
    </g>
    <g>
      <path class="st1" d="M135.45,21.34c13.12,3.48,22.35,15.27,22.37,29.08l.04,21.94-59.75.02v-21.91c0-9.47,4.34-18.11,11.35-23.58,7.45-5.81,17.03-7.94,25.99-5.56Z"/>
      <g>
        <path class="st0" d="M134.5,0c1.1,1.13,2.85.65,4.49,1.04,7.41,1.77,14.3,4.89,20.24,9.78,2.29,1.89,4.95,4.01,6.72,6.22,5.43,6.77,9.43,14.44,11.46,22.92.9,3.75,1.01,8.24,1,12.09l-.06,20.34h-8.76s.08-21.9.08-21.9c.06-18.18-15.71-32.1-33.66-29.87-.47.06-.68.51-.57.71-8.95-2.38-18.54-.25-25.99,5.56-7.01,5.46-11.35,14.1-11.35,23.58v21.91s-8.52,0-8.52,0v-23.42c.02-24.63,19.67-44.81,43.41-48.97h1.5Z"/>
        <path class="st2" d="M133,0c-23.73,4.16-43.39,24.34-43.4,48.97v23.42s-11.97-.02-11.97-.02l-.04-20.3c0-3.94.12-8.25.99-12.11,1.71-7.59,5.24-14.56,9.9-20.92l1.55-2.12C95.6,9.32,113.45,0,121.51,0h11.49Z"/>
        <path class="st2" d="M169.6,72.4c-3.9,0-7.83.27-11.73-.04l-.04-21.94c-.03-13.81-9.26-25.6-22.37-29.08-.11-.2.1-.65.57-.71,17.95-2.23,33.72,11.69,33.66,29.87l-.08,21.9Z"/>
      </g>
      <g>
        <path class="st3" d="M77.64,72.38l11.96.02h8.52s59.75-.03,59.75-.03c3.9.31,7.82.04,11.73.04h8.76s9.15.08,9.15.08c3.98.04,7.3,2.92,7.3,7.08l.06,78.09-121.56.05-12.24-.2.04-77.98c0-4.44,3.76-7.06,7.88-7.09l8.64-.05ZM131.42,146.19c1.89-.4,3.36-2.19,3.37-4.37l.05-17.4c0-1.02.51-1.85,1.31-2.38,5.11-3.37,7.63-9.25,6.54-15.34-1.01-5.59-5.19-10.05-11.17-11.66-6.88-1.85-14.08,1.65-17.11,8.14s-.9,14.73,5.42,18.89c.81.54,1.27,1.3,1.28,2.34l.06,17.49c0,2,1.44,3.95,3.39,4.36,2.29.48,4.47.27,6.87-.08Z"/>
        <g>
          <path class="st0" d="M131.42,146.19c-.95-1.06-2.44-2.03-2.44-3.8l-.09-17.95c0-1.11-.56-1.88-1.42-2.47-5.04-3.43-7.6-9.14-6.42-15.46.97-5.17,5.05-9.6,10.46-11.47,5.98,1.61,10.16,6.07,11.17,11.66,1.1,6.09-1.43,11.98-6.54,15.34-.8.53-1.31,1.36-1.31,2.38l-.05,17.4c0,2.18-1.47,3.96-3.37,4.37Z"/>
          <path class="st2" d="M131.51,95.05c-5.41,1.87-9.5,6.3-10.46,11.47-1.18,6.32,1.38,12.02,6.42,15.46.86.59,1.41,1.36,1.42,2.47l.09,17.95c0,1.77,1.5,2.74,2.44,3.8-2.41.35-4.59.55-6.87.08-1.95-.41-3.38-2.36-3.39-4.36l-.06-17.49c0-1.04-.47-1.8-1.28-2.34-6.31-4.16-8.57-12.16-5.42-18.89s10.23-9.98,17.11-8.14Z"/>
        </g>
      </g>
    </g>
    <path class="st1" d="M177.52,215.43c-29.87,18.61-69.16,18.65-99.02,0h99.02Z"/>
  </g>
  <g>
    <path class="st4" d="M61.07,157.49l12.24.2,121.56-.05,10.61.07c4.39.03,7.9,3.2,7.95,7.67l.13,11.02-.1,19.49-.03,12.05c0,4-3.31,7.28-7.44,7.37l-11.17.25-17.31-.12h-99.02s-17.45-.05-17.45-.05l-11.55-.04c-3.41-.01-6.66-2.96-6.83-6.46-.23-4.5-.09-8.75-.11-12.98l-.09-19.49.19-12.03c.06-3.69,3.47-6.65,6.97-6.7l11.45-.17ZM86.88,191.98c2.46.95,6.43,4.7,8.33,1.35.9-1.6.37-3.4-1.19-4.32-1.39-.82-2.77-1.46-4.01-2.43l4.66-3.03c1.31-.85,1.22-2.79.43-3.97-2.09-3.12-5.75.68-8.18,1.53-.74-2.53,1.07-7.71-3.14-7.92-1.4-.07-2.87,1.02-3.06,2.78s.19,3.19-.23,5.09c-2.41-.81-6.53-4.87-8.46-1.03-1.78,3.55,3.27,4.72,5.41,6.55-1.89,1.73-7.35,2.9-5.37,6.52s5.97-.21,8.42-1.06c.44,1.8,0,3.49.26,5.29.27,1.89,2,2.78,3.51,2.52,3.63-.62,1.94-5.4,2.62-7.87ZM116.38,192c1.72.66,2.88,1.54,4.29,2.29,1.63.86,3.42.27,4.21-1.21,1.87-3.54-3.44-4.87-5.36-6.5l4.64-3c1.39-.9,1.24-2.73.61-3.78-2.13-3.51-5.85.5-8.34,1.28-.71-2.5,1.07-7.78-3.15-7.89s-2.62,5.55-3.3,7.86c-1.74-.65-2.81-1.62-4.23-2.27-1.64-.75-3.43-.31-4.22,1.33-1.7,3.53,3.54,4.69,5.43,6.48-1.72,1.6-7.34,2.96-5.36,6.49.89,1.59,2.64,2.07,4.31,1.19,1.38-.73,2.6-1.6,4.1-2.23.51,1.76.05,3.43.28,5.18.25,1.91,1.91,2.9,3.47,2.65,3.65-.6,2.03-5.29,2.63-7.86ZM145.8,196.64c.04-1.59-.17-2.88.2-4.47,1.64.39,2.73,1.36,4.13,2.09,1.66.86,3.46.39,4.29-1.18,1.86-3.52-3.44-4.86-5.37-6.51l4.63-2.97c1.38-.88,1.29-2.79.6-3.86-.77-1.2-2.33-1.81-3.65-1.11l-4.62,2.41c-.45-1.85-.11-3.4-.27-5.08-.18-1.79-1.64-2.82-3.03-2.77-4.19.14-2.49,5.4-3.13,7.88-2.32-.73-6.58-4.82-8.4-1.18-1.91,3.83,3.1,4.73,5.3,6.68-1.21.97-2.56,1.61-3.93,2.4-1.6.92-2.27,2.61-1.28,4.36,1.91,3.37,5.92-.44,8.35-1.34.52,2.48-1.04,7.8,3.08,7.91,1.49.04,3.03-1.04,3.09-3.26ZM175.31,196.88c.08-1.67-.15-3.21.21-4.83,2.41.71,6.38,4.89,8.42,1.05,1.9-3.58-3.41-4.86-5.37-6.53l4.64-2.95c1.4-.89,1.29-2.8.58-3.92-2.18-3.43-5.91.77-8.28,1.32-.38-1.88-.07-3.39-.23-5.07-.17-1.77-1.64-2.84-3.05-2.77-4.25.2-2.39,5.51-3.14,7.91l-4.4-2.38c-1.56-.84-3.33-.13-3.98,1.2-1.9,3.86,3.26,4.71,5.28,6.63-1.8,1.85-7.42,2.85-5.18,6.77,1.89,3.32,5.83-.31,8.34-1.35.61,2.35-1.05,7.79,3.07,7.92,1.54.05,3.01-1.07,3.1-3.01Z"/>
    <path class="st1" d="M86.88,191.98c-.68,2.47,1.01,7.25-2.62,7.87-1.51.26-3.24-.63-3.51-2.52s.18-3.49-.26-5.29c-2.45.85-6.36,4.82-8.42,1.06s3.48-4.79,5.37-6.52c-2.15-1.83-7.19-3-5.41-6.55,1.93-3.84,6.05.21,8.46,1.03.42-1.89.05-3.41.23-5.09s1.66-2.84,3.06-2.78c4.21.2,2.39,5.38,3.14,7.92,2.44-.85,6.1-4.64,8.18-1.53.79,1.18.88,3.12-.43,3.97l-4.66,3.03c1.24.97,2.62,1.61,4.01,2.43,1.56.92,2.1,2.72,1.19,4.32-1.9,3.35-5.87-.39-8.33-1.35Z"/>
    <path class="st1" d="M116.38,192c-.6,2.57,1.02,7.26-2.63,7.86-1.57.26-3.22-.74-3.47-2.65-.23-1.75.23-3.42-.28-5.18-1.51.63-2.72,1.5-4.1,2.23-1.66.88-3.41.4-4.31-1.19-1.97-3.53,3.64-4.89,5.36-6.49-1.88-1.79-7.13-2.94-5.43-6.48.79-1.64,2.59-2.08,4.22-1.33,1.43.66,2.49,1.62,4.23,2.27.68-2.31-.94-7.98,3.3-7.86s2.45,5.4,3.15,7.89c2.49-.78,6.21-4.79,8.34-1.28.63,1.05.79,2.88-.61,3.78l-4.64,3c1.92,1.64,7.23,2.97,5.36,6.5-.78,1.48-2.58,2.07-4.21,1.21-1.42-.75-2.57-1.63-4.29-2.29Z"/>
    <path class="st1" d="M175.31,196.88c-.09,1.94-1.57,3.06-3.1,3.01-4.12-.13-2.46-5.57-3.07-7.92-2.51,1.03-6.44,4.67-8.34,1.35-2.24-3.93,3.37-4.92,5.18-6.77-2.02-1.92-7.18-2.77-5.28-6.63.65-1.33,2.42-2.04,3.98-1.2l4.4,2.38c.75-2.4-1.1-7.71,3.14-7.91,1.41-.07,2.88,1,3.05,2.77.16,1.68-.15,3.19.23,5.07,2.37-.55,6.11-4.75,8.28-1.32.71,1.12.81,3.03-.58,3.92l-4.64,2.95c1.96,1.66,7.27,2.95,5.37,6.53-2.04,3.84-6.01-.34-8.42-1.05-.36,1.63-.13,3.17-.21,4.83Z"/>
    <path class="st1" d="M145.8,196.64c-.06,2.21-1.6,3.3-3.09,3.26-4.12-.11-2.56-5.43-3.08-7.91-2.43.91-6.44,4.72-8.35,1.34-.99-1.75-.32-3.44,1.28-4.36,1.37-.79,2.72-1.43,3.93-2.4-2.2-1.96-7.22-2.86-5.3-6.68s6.07.45,8.4,1.18c.64-2.48-1.05-7.75,3.13-7.88,1.39-.05,2.85.98,3.03,2.77.17,1.68-.17,3.24.27,5.08l4.62-2.41c1.33-.69,2.88-.08,3.65,1.11.69,1.06.78,2.97-.6,3.86l-4.63,2.97c1.93,1.65,7.23,2.99,5.37,6.51-.83,1.57-2.63,2.04-4.29,1.18-1.4-.72-2.49-1.7-4.13-2.09-.37,1.59-.16,2.87-.2,4.47Z"/>
  </g>
</svg>