<?xml version="1.0" encoding="UTF-8"?>
<svg id="Layer_1" xmlns="http://www.w3.org/2000/svg" version="1.1" viewBox="0 0 256 256">
  <!-- Generator: Adobe Illustrator 30.1.0, SVG Export Plug-In . SVG Version: 2.1.1 Build 136)  -->
  <defs>
    <style>
      .st0 {
        fill: #010101;
      }

      .st1 {
        fill: #010102;
      }

      .st2 {
        fill: #eec6a3;
      }

      .st3 {
        fill: #4fbfe7;
      }

      .st4 {
        fill: #66d3f0;
      }

      .st5 {
        fill: #f3f5f7;
      }
    </style>
  </defs>
  <path d="M203.45,107.11l-14.65-18.08c-1.08-1.33-.25-3.78.7-4.61s3.62-1.54,4.71-.25l8.72,10.27-.2-26.88c-.05-6.86-6.23-14.06-13.44-14.14l-38.62-.43c-2.19-.02-3.66-1.84-3.67-3.83,0-1.64,1.5-3.89,3.66-3.87l37.2.24c11.95.08,22.45,10.36,22.61,22.17l.35,26.48,8.35-9.8c1.26-1.48,4.19-.88,5.17.27,1.45,1.69,1.05,3.91-.33,5.58l-13.79,16.69c-.92,1.11-1.63,1.98-2.95,2.09-1.44.11-2.68-.49-3.81-1.89Z"/>
  <path d="M106.87,202.77c1.84.01,2.84,2.08,2.88,3.27s-1.08,3.81-2.68,3.81l-40.1.04c-11.47-2.11-20.58-10.73-20.72-22.4l-.31-26.4-8.37,9.79c-1.26,1.47-4.19.88-5.17-.27-1.44-1.69-1.05-3.92.33-5.58l13.57-16.41c.99-1.2,1.71-2.26,3.18-2.38,1.61-.13,2.84.68,3.92,2.02l14.54,17.96c1.08,1.33.25,3.78-.7,4.61s-3.62,1.54-4.71.25l-8.76-10.3.2,26.93c.06,8.26,7.85,14.75,16.02,14.81l36.87.25Z"/>
  <g>
    <circle cx="187.92" cy="187.16" r="68.46"/>
    <g>
      <circle class="st5" cx="187.91" cy="187.16" r="61.08"/>
      <g>
        <path d="M208.44,231.33c-13.16,3.38-26.65,3.38-39.63.37-7.04-1.63-17.36-6.13-17.55-14.48-.48-20.62,16.24-37.25,36.41-37.38,20.39-.13,37.36,16.57,36.91,37.38-.17,7.71-9.2,12.33-16.13,14.11Z"/>
        <path class="st4" d="M216.91,213.14c-.61,2.95-5.95,4.58-8.83,5.28-13.97,3.41-26.53,3.33-40.49-.06-2.83-.69-8.13-2.32-8.68-5.23,1.72-15.15,14.45-26.14,29.28-26.03,14.53.1,27.68,11.44,28.72,26.04Z"/>
        <path class="st3" d="M216.91,213.14c1.18,3.1.27,6.07-2.51,7.82-12.02,7.59-40.81,7.61-52.98,0-2.88-1.8-3.59-4.89-2.5-7.83,2.71,2.09,5.94,3.47,9.59,4.4,12.45,3.17,25.48,3.18,38,.22,3.94-.93,7.47-2.36,10.4-4.61Z"/>
      </g>
      <g>
        <circle cx="187.92" cy="159.36" r="18.9"/>
        <circle class="st2" cx="187.92" cy="159.36" r="11.65"/>
      </g>
    </g>
  </g>
  <g>
    <circle cx="68.83" cy="68.08" r="68.46"/>
    <g>
      <circle class="st4" cx="68.83" cy="68.07" r="61.08"/>
      <circle cx="68.83" cy="68.08" r="54.62"/>
      <g>
        <circle class="st5" cx="68.83" cy="68.08" r="47.37"/>
        <g>
          <path d="M75.47,67.24c3.34,3.77,12.96,5.3,10.37,10.35-2.95,5.76-10.38-2.91-14.32-3.38-3.3.22-6.54.26-8.25-3.04-1.41-2.73-.94-6.21,1.92-8.36l.06-16.98c0-2.02,1.69-3.38,3.36-3.46,1.92-.1,3.77,1.22,3.8,3.51l.2,16.84c1.29,1.08,1.89,3.44,2.85,4.53Z"/>
          <path class="st0" d="M70.57,25.68c2.72,1.45,2.45,7.14.44,8.57-1.18.83-2.73.93-4.05.2-2.47-1.37-2.28-6.78-.5-8.33,1.05-.91,2.71-1.19,4.1-.44Z"/>
          <path class="st0" d="M33.23,64.72c2.24.61,2.79,2.89,2.29,4.54-.58,1.89-2.42,2.52-4.5,2.51s-3.93-.33-4.74-2.26c-.67-1.6-.15-3.97,1.98-4.72,1.43-.5,3.27-.53,4.97-.07Z"/>
          <path class="st0" d="M109.22,64.74c2.19.64,2.73,2.89,2.28,4.39-.64,2.17-2.69,2.65-4.87,2.64s-3.92-.62-4.5-2.52c-.5-1.67.08-3.83,2.1-4.49,1.46-.48,3.31-.51,4.98-.03Z"/>
          <path class="st0" d="M70.7,101.7c2.44,1.34,2.45,7.03.18,8.58-1.26.86-2.96.8-4.12,0-2.25-1.57-2.12-6.93-.11-8.36,1.19-.84,2.73-.93,4.05-.21Z"/>
          <path class="st1" d="M40.68,36.75c2.22-.31,6.62,3.36,5.62,6.49-.43,1.33-1.65,2.33-3.13,2.48-2.34.25-6.25-3.47-5.62-6.13.36-1.5,1.6-2.63,3.12-2.84Z"/>
          <path class="st0" d="M100,39.23c1.03,2.9-3.21,6.73-5.51,6.49-1.62-.17-2.9-1.32-3.24-2.87-.6-2.75,3.42-6.41,5.73-6.1,1.38.19,2.55,1.15,3.02,2.48Z"/>
          <path class="st0" d="M46.3,92.92c1.01,3.09-3.36,6.79-5.62,6.49-1.51-.2-2.76-1.33-3.12-2.83-.65-2.67,3.3-6.39,5.61-6.14,1.47.15,2.69,1.14,3.13,2.48Z"/>
          <path class="st0" d="M94.07,90.5c2.71-.6,6.67,3.48,6.04,6.08-.33,1.36-1.39,2.43-2.77,2.77-2.64.65-6.38-3.27-6.14-5.61.16-1.62,1.33-2.9,2.88-3.24Z"/>
        </g>
      </g>
    </g>
  </g>
</svg>