<?xml version="1.0" encoding="UTF-8"?>
<svg id="Layer_1" xmlns="http://www.w3.org/2000/svg" version="1.1" viewBox="0 0 256 256">
  <!-- Generator: Adobe Illustrator 30.1.0, SVG Export Plug-In . SVG Version: 2.1.1 Build 136)  -->
  <defs>
    <style>
      .st0 {
        fill: #08e;
      }

      .st1 {
        fill: #3b2f63;
      }

      .st2 {
        fill: #f7749d;
      }

      .st3 {
        fill: #fdd6e4;
      }

      .st4 {
        fill: #6dc8f6;
      }

      .st5 {
        fill: #d2f9fd;
      }
    </style>
  </defs>
  <path class="st1" d="M79.37,9.67c.89,2.31.19,5.17.7,7.76,2.45.29,4.92.08,7.19.08l62.59.09c-1.61-7.85,2.96-15.21,10.32-17.12,7.47-1.94,14.8,2,17.48,9.18.56,2.46.71,5,.69,7.74,2.56.4,4.88.08,7.18.11l21.13.27c6.44.08,11.4,5.12,14.28,10.37,1.12,3.45,1.65,6.62,1.65,10.67l-.04,101.12c24.5,25.2,23.67,64.97-.99,89.25-24.81,24.42-64.76,24.36-89.46-.63l-103.28.04c-4.03,0-7.2-.42-10.67-1.37-5.22-3.14-10.85-7.97-10.87-14.82l-.28-66.42c0-1.44,1.19-2.17,2.17-2.12,1.07.37,2.12.95,2.12,2.63v61.68c-.55,9.59,6.5,16.26,15.94,16.24l100.85-.16c-17.72-22.11-18.85-51.36-4.33-74.6,4.59-7.35,11.12-13.06,17.9-18.32,23.87-15.44,54.4-14.28,76.64,4.53l.02-68.01H11.32s-.06,32.65-.06,32.65c0,1.53-.99,2.22-2.11,2.57-.92.09-2.23-.67-2.22-2.1l.51-67.86c.06-8.16,8.44-15.25,15.82-15.33l27.58-.3c-.1-8.76,4.23-16.37,12.97-17.39,7.03-.82,13.05,3.05,15.55,9.55ZM75.71,35.34l-.02-20.95c0-5.84-4.79-10.17-10.28-10.06s-9.87,4.37-9.88,10.07v21.18c-.01,5.86,4.76,10.32,10.37,10.17,5.31-.15,9.82-4.44,9.81-10.4ZM174.06,35.35l-.03-20.96c0-5.85-4.78-10.21-10.39-10.06-5.23.14-9.76,4.4-9.76,10.07v21.18c-.01,5.85,4.74,10.3,10.29,10.17s9.89-4.44,9.89-10.4ZM178.21,36.42c-.07,8.25-7.42,13.97-15.06,13.53s-13.48-6.57-13.51-14.38l-.04-13.8h-69.63s-.04,13.8-.04,13.8c-.02,8.2-6.64,14.52-14.54,14.4s-14.08-6.38-14.1-14.41l-.03-13.76-25.76-.04c-8.02.37-14.23,6.73-14.23,14.82l.02,27.06h206.99s-.04-27.58-.04-27.58c-.01-8.1-6.73-14.22-14.69-14.31l-25.23.05-.12,14.61ZM123.24,160.2c-1.68,1.9-2.13,4.52-2.89,7.14-7.2,24.65,2.26,50.71,22.89,65.16,21.03,14.73,49.21,14.16,69.6-1.34,20.25-15.4,28.69-42.2,20.1-66.58-.34-.98-.56-2.03-.89-2.8-8.95-21.16-28.89-35.62-51.71-36.81-23.67-1.24-45.68,11.64-56.25,32.9-.45.91-.4,1.71-.84,2.32Z"/>
  <path class="st3" d="M18.13,227.23c3.47.95,6.65,1.37,10.67,1.37l103.28-.04c24.7,25,64.65,25.06,89.46.63,24.66-24.28,25.49-64.05.99-89.25l.04-101.12c0-4.05-.53-7.22-1.65-10.67,5.24,2.32,8.19,7.11,10.04,13.06l.04,107.05c23.41,23.53,24.08,62.12,2.01,86.29-1.47,2.28-3.28,3.58-5.28,5.36-24.01,21.27-59.67,21.45-83.74.5-1.35-1.17-2.32-2.22-3.94-3.07l-106.87-.17c-5.51,0-13.94-5.17-15.04-9.95Z"/>
  <path class="st1" d="M9.15,109c1.43.29,2.12,1.26,2.12,2.59l-.02,24.3c0,1.32-1.01,2.08-2,2.15-1.06.07-2.2-.09-2.2-1.11l-.03-25.85c0-1.33,1.09-2.18,2.12-2.08Z"/>
  <path class="st3" d="M185.5,17.52c-2.3-.03-4.62.29-7.18-.11.02-2.74-.12-5.28-.69-7.74,2.61.05,7.88,5.24,7.86,7.85Z"/>
  <path class="st3" d="M87.25,17.51c-2.27,0-4.73.21-7.19-.08-.51-2.59.19-5.45-.7-7.76,3.72.87,6.78,4.22,7.89,7.85Z"/>
  <path class="st0" d="M178.21,36.42l.12-14.61,25.23-.05c7.96.08,14.68,6.21,14.69,14.31l.04,27.58H11.29s-.02-27.06-.02-27.06c0-8.1,6.2-14.45,14.23-14.82l25.76.04.03,13.76c.02,8.02,6.38,14.29,14.1,14.41s14.51-6.2,14.54-14.4l.04-13.8h69.63s.04,13.8.04,13.8c.02,7.81,6.05,13.96,13.51,14.38s14.99-5.29,15.06-13.53Z"/>
  <path class="st5" d="M75.71,35.34c0,5.96-4.5,10.26-9.81,10.4-5.61.15-10.38-4.31-10.38-10.17V14.4c.01-5.7,4.52-9.96,9.88-10.07s10.27,4.23,10.28,10.06l.02,20.95Z"/>
  <path class="st5" d="M174.06,35.35c0,5.97-4.52,10.28-9.89,10.4s-10.3-4.32-10.3-10.17V14.4c.01-5.66,4.54-9.93,9.77-10.07,5.61-.15,10.38,4.21,10.39,10.06l.03,20.96Z"/>
  <g>
    <path class="st4" d="M141.64,131.34l-14.07-.04c-2.42.37-3.82,2.15-3.83,4.58v13.78c-14.53,23.24-13.4,52.49,4.32,74.6l-100.85.16c-9.44.02-16.49-6.66-15.95-16.24v-61.68c0-1.67-1.04-2.25-2.11-2.63l.1-5.84c.99-.06,2-.82,2-2.15l.02-24.3c0-1.33-.69-2.31-2.12-2.59v-5.91c1.11-.36,2.1-1.04,2.11-2.57l.06-32.65h206.98s-.02,68.01-.02,68.01c-22.24-18.82-52.77-19.97-76.64-4.53ZM54.34,114.94c2.42-.38,3.89-2.16,3.89-4.38l-.02-21.13c0-2.28-1.9-4.11-4.18-4.11l-21.11-.02c-2.41,0-4.17,1.73-4.31,4.11v21.16c.01,2.46,1.85,4.36,4.3,4.36h21.43ZM101.84,114.94c2.44-.35,3.97-2.13,3.97-4.38l-.02-21.16c0-2.34-1.92-4.09-4.23-4.09h-21.1c-2.31-.01-4.23,1.75-4.23,4.1l-.03,21.15c0,2.41,1.84,4.36,4.25,4.36l21.4.02ZM149.41,114.95c2.44-.31,3.98-2.16,3.97-4.39l-.02-21.16c0-2.07-1.68-4.03-3.82-4.03l-21.51-.05c-2.32,0-4.23,1.77-4.24,4.09l-.02,21.17c0,2.39,1.82,4.33,4.23,4.34l21.42.04ZM196.95,114.95c2.5-.29,4.01-2.13,4.01-4.39l.02-21.15c-.16-2.38-1.91-4.11-4.31-4.11l-21.11.02c-2.29,0-4.18,1.82-4.19,4.11l-.02,21.14c0,2.37,1.78,4.33,4.18,4.34l21.42.05ZM54.3,160.92c2.47-.37,3.92-2.16,3.92-4.41l.03-20.63c0-2.46-1.65-4.58-4.24-4.58l-21.51.04c-2.22,0-3.75,1.92-3.91,4.01v21.17c.01,2.47,1.82,4.38,4.3,4.38h21.4ZM101.88,160.93c2.48-.33,3.92-2.19,3.92-4.41l.03-20.64c0-2.52-1.67-4.57-4.29-4.57h-21.05c-2.64,0-4.34,2.04-4.33,4.58l.03,20.63c0,2.43,1.78,4.39,4.25,4.39l21.44.02ZM54.35,206.9c2.48-.35,3.87-2.22,3.87-4.44l.02-20.63c0-2.45-1.67-4.56-4.22-4.55l-21.53.04c-2.12,0-3.85,1.89-3.85,3.98l-.03,21.17c0,2.48,1.81,4.41,4.29,4.41h21.45ZM101.89,206.91c2.5-.33,3.91-2.21,3.91-4.44l.02-20.64c0-2.5-1.69-4.54-4.28-4.54h-21.05c-2.63,0-4.34,2-4.33,4.55l.02,20.64c0,2.44,1.77,4.41,4.24,4.41l21.46.02Z"/>
    <path class="st5" d="M54.35,206.9h-21.45c-2.48-.01-4.3-1.94-4.29-4.42l.03-21.17c0-2.09,1.73-3.98,3.85-3.98l21.53-.04c2.55,0,4.23,2.1,4.22,4.55l-.02,20.63c0,2.22-1.39,4.09-3.87,4.44ZM40.57,201.35c1.13,1,2.64.29,3.27-.68l9.88-15.33c.65-1.01-.05-2.42-.74-2.74s-2.06-.48-2.62.36l-8.87,13.37-5.51-4.84c-.8-.7-2.28-.13-2.69.45-.32.46-.69,1.79-.1,2.41,2.31,2.43,4.72,4.64,7.38,6.99Z"/>
    <path class="st5" d="M54.3,160.92h-21.4c-2.48-.01-4.29-1.93-4.29-4.4v-21.17c.14-2.09,1.67-4,3.9-4.01l21.51-.04c2.58,0,4.24,2.12,4.24,4.58l-.03,20.63c0,2.25-1.45,4.04-3.92,4.41ZM40.59,155.37c1.1.95,2.58.33,3.2-.63l9.91-15.36c.65-1.01,0-2.44-.68-2.74-.74-.33-2.13-.5-2.7.35l-8.85,13.36c-2.74-1.67-5.27-6.49-7.76-4.78-.92.63-1.18,2.23-.3,3.09,2.33,2.28,4.56,4.48,7.17,6.72Z"/>
    <path class="st5" d="M141.64,131.34c-6.77,5.26-13.31,10.97-17.9,18.32v-13.78c0-2.43,1.42-4.21,3.83-4.58l14.07.04Z"/>
    <path class="st1" d="M40.57,201.35c-2.66-2.35-5.07-4.57-7.38-6.99-.59-.62-.22-1.95.1-2.41.41-.58,1.89-1.15,2.69-.45l5.51,4.84,8.87-13.37c.56-.85,1.92-.7,2.62-.36s1.39,1.73.74,2.74l-9.88,15.33c-.63.97-2.14,1.68-3.27.68Z"/>
    <g>
      <path class="st5" d="M149.41,114.95l-21.42-.04c-2.41,0-4.23-1.95-4.23-4.34l.02-21.17c0-2.32,1.92-4.1,4.24-4.09l21.51.05c2.14,0,3.82,1.96,3.82,4.03l.02,21.16c0,2.23-1.53,4.08-3.97,4.39ZM135.53,109.5c.98.83,2.44.18,2.95-.61l9.95-15.4c.68-1.06.07-2.59-.72-2.9-.85-.32-2.1-.38-2.71.55l-8.67,13.23c-2.54-1.37-5.47-6.71-7.93-4.71-.71.57-1.13,2.06-.28,2.9,2.37,2.36,4.69,4.64,7.42,6.94Z"/>
      <path class="st1" d="M135.53,109.5c-2.72-2.3-5.04-4.58-7.42-6.94-.84-.84-.42-2.33.28-2.9,2.46-2,5.39,3.34,7.93,4.71l8.67-13.23c.61-.93,1.86-.87,2.71-.55.79.3,1.4,1.84.72,2.9l-9.95,15.4c-.51.79-1.97,1.43-2.95.61Z"/>
    </g>
    <path class="st1" d="M40.59,155.37c-2.61-2.24-4.84-4.44-7.17-6.72-.87-.86-.62-2.45.3-3.09,2.49-1.71,5.02,3.11,7.76,4.78l8.85-13.36c.56-.85,1.96-.68,2.7-.35.68.3,1.33,1.72.68,2.74l-9.91,15.36c-.62.96-2.1,1.58-3.2.63Z"/>
    <g>
      <path class="st5" d="M196.95,114.95l-21.42-.05c-2.4,0-4.19-1.97-4.18-4.34l.02-21.14c0-2.29,1.89-4.11,4.19-4.11l21.11-.02c2.41,0,4.16,1.73,4.31,4.11l-.02,21.15c0,2.27-1.51,4.11-4.01,4.39ZM183.81,109.32c1.07.96,2.59.53,3.23-.46l9.94-15.36c.67-1.04.09-2.58-.69-2.89-.82-.32-2.11-.42-2.72.5l-8.69,13.24c-2.33-1.08-5.86-7.2-8.16-4.46-.55.65-.79,1.96-.05,2.7,2.29,2.3,4.58,4.42,7.14,6.73Z"/>
      <path class="st1" d="M183.81,109.32c-2.56-2.31-4.85-4.44-7.14-6.73-.73-.74-.5-2.05.05-2.7,2.31-2.74,5.83,3.38,8.16,4.46l8.69-13.24c.6-.92,1.89-.82,2.72-.5s1.37,1.84.69,2.89l-9.94,15.36c-.64.99-2.16,1.43-3.23.46Z"/>
    </g>
    <g>
      <path class="st5" d="M101.84,114.94l-21.4-.02c-2.41,0-4.26-1.95-4.25-4.36l.03-21.15c0-2.35,1.91-4.11,4.23-4.11h21.1c2.32.01,4.23,1.76,4.23,4.1l.02,21.16c0,2.26-1.52,4.03-3.97,4.38ZM88.14,109.38c1.09.99,2.6.34,3.22-.61l9.9-15.33c.66-1.03.04-2.48-.66-2.79-.78-.34-2.12-.49-2.7.39l-8.85,13.35-5.41-4.84c-.83-.75-2.13-.24-2.6.27-.5.54-.86,1.92-.23,2.59,2.28,2.43,4.73,4.59,7.34,6.96Z"/>
      <path class="st1" d="M88.14,109.38c-2.62-2.37-5.06-4.53-7.34-6.96-.63-.67-.28-2.05.23-2.59.47-.51,1.77-1.02,2.6-.27l5.41,4.84,8.85-13.35c.58-.88,1.92-.73,2.7-.39.7.31,1.33,1.76.66,2.79l-9.9,15.33c-.61.95-2.13,1.6-3.22.61Z"/>
    </g>
    <g>
      <path class="st5" d="M101.89,206.91l-21.46-.02c-2.47,0-4.24-1.97-4.24-4.41l-.02-20.64c0-2.55,1.71-4.55,4.33-4.55h21.05c2.58,0,4.28,2.05,4.28,4.54l-.02,20.64c0,2.23-1.41,4.11-3.91,4.44ZM88.13,201.33c1.1.95,2.61.39,3.26-.61l9.91-15.37c.65-1.01-.03-2.46-.72-2.76-.75-.33-2.09-.47-2.66.4l-8.85,13.37c-2.22-1.37-6.19-7.37-8.19-4.4-.39.58-.61,1.95.1,2.65,2.32,2.29,4.54,4.47,7.16,6.72Z"/>
      <path class="st1" d="M88.13,201.33c-2.62-2.25-4.84-4.43-7.16-6.72-.71-.7-.49-2.07-.1-2.65,2.01-2.97,5.98,3.03,8.19,4.4l8.85-13.37c.58-.87,1.91-.72,2.66-.4.69.3,1.37,1.74.72,2.76l-9.91,15.37c-.64,1-2.15,1.56-3.26.61Z"/>
    </g>
    <g>
      <path class="st5" d="M101.88,160.93l-21.44-.02c-2.47,0-4.25-1.96-4.25-4.39l-.03-20.63c0-2.54,1.69-4.58,4.33-4.58h21.05c2.62,0,4.29,2.06,4.29,4.58l-.03,20.64c0,2.23-1.44,4.08-3.92,4.41ZM88.14,155.35c1.09.94,2.58.39,3.21-.58l9.92-15.37c.67-1.03,0-2.47-.7-2.78-.78-.35-2.1-.46-2.68.41l-8.84,13.34c-2.71-1.73-5.33-6.53-7.76-4.79-.88.63-1.14,2.21-.29,3.06,2.29,2.31,4.55,4.45,7.15,6.71Z"/>
      <path class="st1" d="M88.14,155.35c-2.6-2.26-4.86-4.4-7.15-6.71-.84-.85-.59-2.43.29-3.06,2.43-1.74,5.05,3.05,7.76,4.79l8.84-13.34c.58-.88,1.9-.76,2.68-.41.7.31,1.36,1.75.7,2.78l-9.92,15.37c-.63.97-2.12,1.52-3.21.58Z"/>
    </g>
    <g>
      <path class="st5" d="M54.34,114.94h-21.43c-2.46-.01-4.29-1.91-4.29-4.37v-21.16c.13-2.38,1.9-4.11,4.3-4.11l21.11.02c2.28,0,4.18,1.83,4.18,4.11l.02,21.13c0,2.22-1.47,4-3.89,4.38ZM40.6,109.4c1.08.96,2.57.3,3.17-.63l9.92-15.34c.66-1.02.03-2.45-.66-2.77-.77-.36-2.15-.48-2.72.37l-8.86,13.34-5.37-4.79c-.86-.77-2.12-.29-2.61.21-.52.53-.9,1.94-.25,2.63,2.3,2.43,4.72,4.63,7.37,6.98Z"/>
      <path class="st1" d="M40.6,109.4c-2.66-2.35-5.08-4.55-7.37-6.98-.65-.69-.27-2.1.25-2.63s1.75-.98,2.61-.21l5.37,4.79,8.86-13.34c.57-.85,1.95-.73,2.72-.37.69.32,1.32,1.75.66,2.77l-9.92,15.34c-.6.93-2.09,1.59-3.17.63Z"/>
    </g>
  </g>
  <g>
    <path class="st2" d="M232.04,161.78c.32.77.54,1.82.89,2.8,8.59,24.38.15,51.18-20.1,66.58-20.39,15.5-48.57,16.07-69.6,1.34-20.63-14.45-30.09-40.51-22.89-65.16.77-2.62,1.22-5.24,2.89-7.14l1.76-2c14.43-16.38,32.3-29.81,54.34-29.03,21.29.75,41,12.65,51.46,31.73.35.63.64.99,1.24.88ZM224.32,184.04c0-26.07-21.13-47.2-47.2-47.2s-47.2,21.13-47.2,47.2,21.13,47.2,47.2,47.2,47.2-21.13,47.2-47.2Z"/>
    <path class="st3" d="M232.04,161.78c-.6.1-.89-.25-1.24-.88-10.46-19.08-30.17-30.99-51.46-31.73-22.04-.77-39.91,12.65-54.34,29.03l-1.76,2c.44-.61.39-1.41.84-2.32,10.57-21.26,32.58-34.14,56.25-32.9,22.82,1.19,42.76,15.65,51.71,36.81Z"/>
    <path class="st1" d="M224.32,184.04c0,26.07-21.13,47.2-47.2,47.2s-47.2-21.13-47.2-47.2,21.13-47.2,47.2-47.2,47.2,21.13,47.2,47.2ZM220.08,184.04c0-23.73-19.24-42.97-42.97-42.97s-42.97,19.24-42.97,42.97,19.24,42.97,42.97,42.97,42.97-19.24,42.97-42.97Z"/>
    <g>
      <path class="st3" d="M220.08,184.04c0,23.73-19.24,42.97-42.97,42.97s-42.97-19.24-42.97-42.97,19.24-42.97,42.97-42.97,42.97,19.24,42.97,42.97ZM155.2,190.45l21.9-.04c1.24,0,2.12-.99,2.12-2.23v-33.78c0-1.6-.99-2.57-2.32-2.45-1.11.1-1.9,1.02-1.9,2.44v31.77s-20.54.09-20.54.09c-1.41,0-2.09,1.29-2.04,2.21.07,1.31,1.09,1.99,2.78,1.98Z"/>
      <path class="st1" d="M155.2,190.45c-1.69,0-2.72-.67-2.78-1.98-.05-.91.64-2.2,2.04-2.21l20.53-.09v-31.77c0-1.42.8-2.34,1.9-2.44,1.33-.12,2.33.85,2.33,2.45v33.78c0,1.24-.89,2.23-2.13,2.23l-21.9.04Z"/>
    </g>
  </g>
</svg>