<?xml version="1.0" encoding="UTF-8"?>
<svg id="Layer_1" xmlns="http://www.w3.org/2000/svg" version="1.1" viewBox="0 0 256 256">
  <!-- Generator: Adobe Illustrator 30.1.0, SVG Export Plug-In . SVG Version: 2.1.1 Build 136)  -->
  <defs>
    <style>
      .st0 {
        fill: #050506;
      }

      .st1 {
        fill: #bdbdea;
      }

      .st2 {
        fill: #040304;
      }

      .st3 {
        fill: #020202;
      }

      .st4 {
        fill: #f6e868;
      }

      .st5 {
        fill: #eceafc;
      }

      .st6 {
        fill: #d6d6f6;
      }

      .st7 {
        fill: #fab8ab;
      }

      .st8 {
        fill: #fbd0a2;
      }

      .st9 {
        fill: #c68569;
      }

      .st10 {
        fill: #fddcce;
      }

      .st11 {
        fill: #5a768e;
      }

      .st12 {
        fill: #fccabd;
      }

      .st13 {
        fill: #59d3fb;
      }

      .st14 {
        fill: #788da2;
      }

      .st15 {
        fill: #da9d81;
      }
    </style>
  </defs>
  <g>
    <path class="st5" d="M117.81,76.2c-3.84-1.73-10.79-8.75-10.41-13.04,2.02,1.37,4.92.15,5.76-2.03l1.88-4.86,19.13-.04,2.09,5.17c.79,1.97,2.91,2.65,4.66,2.05s3.09-2.63,2.29-4.72l-14.16-37.12c-.78-2.05-2.55-3.02-4.44-3.01s-3.52,1.13-4.31,3.16l-14,35.91c-.2-.33-.54-.81-.54-1.47l.05-30.01c1.68-.09,3.23-1.53,3.55-2.79.51-1.98-.4-3.62-2.12-4.76.93-4.66,4.52-8.09,8-11.23l92.02-.15c10.46-.02,18.89,8.05,18.89,18.47l.03,30.51c0,10.51-8.37,18.78-18.92,18.78h-85.35c-1.78,0-2.91.41-4.11,1.18ZM158.54,37.26v-11.08s15.22-.15,15.22-.15c2.32-.02,3.68-2.1,3.51-4.04s-1.73-3.4-3.92-3.4l-18.52.02c-2.05,0-3.81,1.53-3.81,3.67v37.42c-.01,2.25,1.8,3.74,3.66,3.78,2.01.04,3.77-1.49,3.79-3.73l.1-14.74,8.24-.26c2.12-.07,3.15-2.36,2.9-4.18-.67-4.89-7.58-2.52-11.17-3.3ZM192.41,37.27v-11.1s15.34-.16,15.34-.16c2.04-.02,3.36-1.9,3.4-3.57s-1.21-3.76-3.32-3.77l-19.03-.09c-2.09,0-3.91,1.5-3.91,3.7v37.44c0,2.3,1.83,3.72,3.69,3.73,2.01.02,3.74-1.45,3.75-3.7l.12-14.78,7.4-.09c2.28-.03,3.82-1.74,3.77-3.88-.11-5.37-7.81-3-11.22-3.73Z"/>
    <path class="st6" d="M115.25,7.42c-3.48,3.14-7.07,6.58-8,11.23l-24.86.13c-1.93.01-2.91,2.26-2.87,3.64.06,1.84,1.39,3.62,3.44,3.66l7.79.17.05,33.46c0,2.3,1.8,3.77,3.79,3.75,1.86-.02,3.66-1.51,3.66-3.77l.04-33.45c2.61-.3,4.87.1,7.52-.04l-.05,30.01c0,.66.34,1.14.54,1.47-.59,1.62-.79,4.2,1.1,5.48-.38,4.29,6.57,11.31,10.41,13.04-.1.81-.91,1.71-.85,2.53h-7.43c-.08-1.9-1.48-3.56-3.66-3.57l-57.33-.19c-10.21-.03-18.04-8.76-18.05-18.7l-.02-30.05c0-10.7,8.24-18.97,18.94-18.95l65.82.13ZM60.12,63.69c5.54.36,10.33-2.12,13.38-6.25,3.23-4.36,2.76-9.98-.8-14.06-5.54-6.35-12.23-6.26-16.22-10.22-.97-.96-1.64-2.24-1.35-3.44.26-1.1,1.2-2.24,2.49-2.84,3.35-1.56,7.34-.45,10.22,1.88,1.92,1.55,4.46,1.62,5.9-.35,1.26-1.72.81-4.07-1.02-5.48-5.31-4.1-12.39-5.73-18.47-2.79-3.31,1.6-5.59,4.53-6.35,7.49-.97,3.73.16,7.23,2.55,10.05,4.98,5.87,11.51,5.53,16.21,10.21,1.22,1.22,2.01,3.07,1.04,4.69-1.77,2.95-5.26,4.13-8.52,3.46-2.98-.61-5.24-2.15-7.26-4.28-1.49-1.58-4.1-1.33-5.44.22-3.88,4.48,5.9,11.22,13.64,11.72Z"/>
    <path class="st2" d="M107.4,63.16c-1.89-1.28-1.69-3.85-1.1-5.48l14-35.91c.78-2.03,2.38-3.15,4.31-3.16s3.65.96,4.44,3.01l14.16,37.12c.8,2.09-.53,4.12-2.29,4.72s-3.87-.09-4.66-2.05l-2.09-5.17-19.13.04-1.88,4.86c-.84,2.18-3.74,3.39-5.76,2.03ZM131.31,48.55l-6.61-17.02-6.67,17.01c4.58.28,8.72.25,13.29.02Z"/>
    <path class="st0" d="M158.54,37.26c3.6.78,10.5-1.59,11.17,3.3.25,1.83-.79,4.12-2.9,4.18l-8.24.26-.1,14.74c-.02,2.23-1.78,3.76-3.79,3.73-1.86-.03-3.67-1.53-3.67-3.78V22.27c.01-2.14,1.77-3.67,3.82-3.67l18.52-.02c2.19,0,3.75,1.45,3.92,3.4s-1.19,4.02-3.51,4.04l-15.21.15v11.08Z"/>
    <path class="st2" d="M192.41,37.27c3.41.73,11.1-1.64,11.22,3.73.04,2.15-1.5,3.86-3.77,3.88l-7.4.09-.12,14.78c-.02,2.26-1.74,3.72-3.75,3.7-1.86-.01-3.7-1.44-3.7-3.73V22.28c0-2.2,1.83-3.71,3.92-3.7l19.03.09c2.11,0,3.36,2.01,3.32,3.77s-1.37,3.55-3.4,3.57l-15.33.16v11.1Z"/>
    <path class="st2" d="M107.25,18.65c1.72,1.15,2.63,2.78,2.12,4.76-.32,1.26-1.87,2.7-3.55,2.79-2.65.14-4.9-.27-7.52.04l-.04,33.45c0,2.26-1.8,3.75-3.66,3.77-2,.02-3.79-1.44-3.79-3.75l-.05-33.46-7.79-.17c-2.05-.04-3.38-1.82-3.44-3.66-.05-1.39.94-3.63,2.87-3.64l24.86-.13Z"/>
    <path class="st2" d="M60.12,63.69c-7.74-.5-17.52-7.24-13.64-11.72,1.34-1.55,3.94-1.79,5.44-.22,2.02,2.13,4.28,3.67,7.26,4.28,3.27.67,6.75-.51,8.52-3.46.97-1.61.18-3.47-1.04-4.69-4.7-4.67-11.23-4.34-16.21-10.21-2.39-2.82-3.52-6.32-2.55-10.05.77-2.95,3.04-5.89,6.35-7.49,6.08-2.94,13.16-1.31,18.47,2.79,1.83,1.41,2.28,3.76,1.02,5.48-1.44,1.97-3.98,1.9-5.9.35-2.89-2.33-6.88-3.44-10.22-1.88-1.28.6-2.22,1.74-2.49,2.84-.29,1.2.38,2.49,1.35,3.44,4,3.96,10.68,3.88,16.22,10.22,3.56,4.07,4.03,9.69.8,14.06-3.05,4.13-7.84,6.61-13.38,6.25Z"/>
    <path class="st5" d="M131.31,48.55c-4.57.24-8.71.26-13.29-.02l6.67-17.01,6.61,17.02Z"/>
  </g>
  <g>
    <path class="st3" d="M211.32-.25c11.39,2.3,21.29,10.72,22.14,23.23s.39,24.34.1,36.53c-.2,8.07-7.62,17.64-14.89,20.51,6.89,4.21,12.49,8.98,17.17,15.2,1.21,1.61,1.15,4.24-.6,5.48-1.83,1.3-4.39.53-5.74-1.15-6-7.51-13.62-13.43-22.69-16.81-2.19-.82-4.71.1-7.01-.11.32,6.93-1.07,13.05-4.1,19.04-.67,1.33-.93,3.11-.4,4.57,3.09,8.53,4.63,17.18,4.55,26.22,3.67,1.31,6.17,3.55,8.46,6.43,7.27.41,14.23-.4,21.31-1.82,2.9-3.59,6.87-5.4,11.54-5.62-.08-5.99-1.33-11.74-3.36-17.27-.84-2.28.24-3.96,2-4.92,7.41-4.02,9.24,20.22,9.04,24.22,4.07,2.17,5.94,5.83,7.45,9.72v7c-2.73,7.45-9.09,12.58-17.53,11.39-4.32,12.64-12.44,22.93-23.67,29.83,7.57,5.85,13.15,13.06,16.27,21.66,2.74,6.81.77,14.18-4.99,18.71-3.32,3.2-8.04,3.71-12.58,4.02l-6.52.45c-2.83.2-5.54.7-8.46.4-2.41-.24-4.65.4-6.98.43l-9.38.12c-.87,9.19-8.11,16-17.29,16.78l-6.34.54-5.99.51-8.18.43c-10.61.55-21.12.75-31.81.09l-8.06-.5-6.95-.53c-2.13-.16-4.23-.34-6.33-.53-9.18-.83-16.42-7.59-17.29-16.77l-9.38-.12c-2.33-.03-4.57-.67-6.98-.43-2.92.3-5.63-.21-8.46-.4l-6.52-.45c-4.53-.32-9.28-.83-12.56-4.02-5.87-4.57-7.63-11.87-5.05-18.73,3.28-8.7,8.92-15.97,16.28-21.64-11.44-7.06-19.31-17.38-23.65-29.79-7.58.96-14.38-3.25-16.73-10.01-2.38-6.87.16-14.32,6.61-18.14-.04-21.7,11.24-42.1,30.19-53.44-7.24-2.99-14.62-12.44-14.84-20.45-.34-12.55-.64-23.42.06-36.71C23.71,13.33,33.62-.25,44.88-.25h166.44ZM109.53,78.73c.07,1.7-1.76,3.98-3.67,3.96l-18.59-.14c-14.52,12.16-22.94,29.98-22.89,49.01,3.87.45,7.2,2.37,9.82,4.5,5.26-1.48,7.85-6.12,11.69-8.9s9.55-3.6,14.45-2.88c18.96,2.79,37.57,2.78,56.46-.07,6.09-.92,11.77.91,16.1,5.01,2.8,2.82,5.75,5.21,9.51,6.98,2.85-2.45,5.95-4.08,9.89-4.62.08-7.77-1.33-15.17-3.95-22.41-1.4-3.88-.97-7.82.89-11.45,2.37-4.64,3.4-9.68,2.99-15.17h-70.84c-2.59,0-4.16-1.51-4.43-3.8-.06-.83.75-1.72.85-2.53,1.2-.77,2.33-1.19,4.11-1.19h85.35c10.55,0,18.93-8.26,18.92-18.78l-.03-30.51c0-10.42-8.44-18.48-18.89-18.47l-92.02.15-65.82-.13c-10.7-.02-18.95,8.25-18.94,18.95l.02,30.05c0,9.94,7.84,18.66,18.05,18.7l57.33.19c2.18,0,3.58,1.67,3.66,3.55ZM52.93,127.2c1.26.71,2.45,1.65,3.97,2.01.55-17.77,7.48-33.58,19.15-46.56l-26.1-.1c-20.17,8.19-33.61,27.14-34.48,48.91,3.83-.65,6.45,2.35,9.61,2.96,4.91.94,10.33-2.38,13.85-5.57,4.06-3.68,9.28-4.33,14-1.66ZM85.74,137.86c-3.57,2.55-7.24,4.97-11.53,6.59-1.8.68-2.37,2.37-2.3,4.26,1,25.01,18.58,46.49,43,52.51,16.94,4.18,34.82.52,48.72-10.77,12.81-10.41,20.66-25.6,21.16-42.22.16-5.3-6.95-3.27-16.72-13.25-2.54-2.59-5.98-3.98-9.81-3.4-19.79,3-39.51,3.07-59.3.07-3.89-.59-7.34.45-10.06,3.09l-3.15,3.12ZM81.56,190.22c-7.05-7.82-11.71-16.06-14.58-25.47-8,2.11-15.78-1.6-19.41-8.41s-2.23-15.32,3.93-20.85c-1.33-1.6-4.66-3.44-6.61-1.7-13.88,12.37-22.16,5.53-21.89,12.84,1.1,29.75,29.62,51.14,58.56,43.59ZM17.64,139.32c-4.95-1.33-9.27,1.94-9.7,6.59-.39,4.3,3.09,8.45,8.11,8.11-.09-6.22-1.97-8.5,1.58-14.7ZM67.15,140.25c-4.12-2.28-8.85-1.33-11.81,2.04-2.67,3.04-3.09,7.79-.67,11.35,2.26,3.33,6.61,5.14,10.56,3.63-.65-6.92-2.28-11.29,1.91-17.03ZM191.51,157.39c4.42,1.33,8.76-.66,10.88-4.35,2.12-3.69,1.42-8.39-1.51-11.25s-7.74-3.83-11.32-1.38c4.4,5.54,2.28,10.94,1.94,16.98ZM240.68,153.99c3.57.32,6.31-1.88,7.43-4.37,1.43-3.17.47-6.51-1.62-8.48-2.5-2.34-5.95-2.9-9.04-1.04,4.84,5.35,3.38,8.16,3.22,13.89ZM175.17,190.26c28.17,7.03,55.57-12.85,58.37-41.1.15-1.53-.38-2.73-1.39-3.57-.75-.62-1.96-1-3.22-.76-5.88,1.14-11.54,1.6-17.82,1.7.43,6.05-1.86,11.29-6,14.78-4.35,3.66-9.82,4.74-15.46,3.47-2.81,9.75-7.81,17.85-14.48,25.48ZM57.91,228.93c-3.23-4.61-4.33-8.88-3.45-13.68l3.69-17.22-8.69-2.6c-8.04,4.89-13.89,11.97-17.16,20.68-1.82,4.98,1.19,10.75,6.64,11.52,6.39.91,12.64,1.25,18.97,1.31ZM216.24,227.96c3.3-.22,5.83-1.87,7.25-4.05,1.76-2.7,1.8-5.63.63-8.56-3.33-8.32-9.03-15.19-16.9-19.87l-8.7,2.55,3.47,15.9c1.15,5.27.34,10.3-3.36,15.05,5.93.08,11.5-.62,17.59-1.03ZM95.96,201.83l-7.79-5.55c-1.98.36-3.7.98-5.75,1.58l3.23,13.12c3.36-3.34,6.52-6.31,10.32-9.15ZM170.99,210.99l3.3-13.1-5.78-1.61-7.79,5.66c3.94,2.71,6.87,5.6,10.27,9.05ZM75.31,229.04c1.16-4.84,4.93-8.3,3.95-12.29l-4.33-17.63-9.34.08-3.7,16.93c-1.32,6.05,2.94,8.94,6.5,13.12,2.37.08,4.56.31,6.92-.21ZM188.52,229.16l4.5-5.26c1.68-1.96,2.42-4.63,1.85-7.25l-3.84-17.57-9.25.02-3.95,16.04c-1.66,6.74,1.53,6.52,3.63,13.96,2.39.3,4.5.29,7.06.06ZM113.83,215.9c2.1-2.06,4.04-3.72,5.71-5.95-5.51-.78-10.27-2.26-15.27-4.02-1.34-.14-2.83,1.43-3.82,2.22,1.11,2.71,2.51,4.91,4.25,7.18,2.2,2.87,6.38,3.27,9.13.57ZM152,215.34c1.75-2.27,3.14-4.48,4.26-7.19-.99-.82-2.48-2.31-3.83-2.24-5.07,1.87-9.91,3.23-15.34,4.09,2.03,2.34,3.88,4.11,5.93,6.03,2.65,2.48,6.78,2.17,8.98-.69ZM133.05,248.15c3.37-4.27,6.51-8.19,4.97-13.64-1.62-5.72-2.54-11.51-4.49-17.06-1.21-2.07-3.5-3.39-5.2-5.34-1.64,2.06-4.27,3.37-5.27,5.6-1.89,5.85-3,11.7-4.54,17.62-1.25,4.8,2.33,9.51,5.26,12.84l9.27-.02ZM105.96,247.43c2.4.08,4.68.5,7.84.28-5.06-9.78-2.55-12.64-.66-22.62l-6.23.07c-4.53.05-10.4-7.58-12.7-12.07-5.36,5.26-9.41,11.39-11.9,18.51-2.31,6.6,2.07,13.66,9.01,14.66,5.03.72,9.83.93,14.64,1.17ZM142.85,247.79l22.13-1.46c6.91-.87,11.69-7.62,9.49-14.37-2.36-7.27-6.58-13.51-12.03-18.93l-3.14,5.05c-3.33,5.37-9.05,8.22-15.84,6.65,1.81,9.91,4.66,12.99-.62,23.05Z"/>
    <path class="st10" d="M114.91,201.22c.18-1.06-.68-1.42-1.53-2.15-10.57-9.1-18.64-21.09-22.56-34.3,5.55-.83,1.99-6.98,6.8-6.93s1.5,6.98,6.98,6.81c1.97-.06,3.67-1.65,3.62-3.95-.12-4.82-3.4-8.73-7.63-9.95-4.75-1.38-9.53.58-12.3,4.9-1.97-5.64-2.18-11.82-2.55-17.78l3.15-3.12c2.71-2.63,6.16-3.68,10.06-3.09,19.79,3,39.52,2.94,59.3-.07,3.83-.58,7.27.8,9.81,3.4,9.77,9.97,16.88,7.95,16.72,13.25-.49,16.62-8.35,31.82-21.16,42.22-13.89,11.29-31.78,14.95-48.72,10.77ZM166.54,164.61c1.74-.23,3.25-1.78,3.18-3.94-.18-5.92-4.98-10.36-10.63-10.35-5.64,0-10.43,4.46-10.6,10.37-.07,2.31,1.65,3.9,3.62,3.96,5.48.17,2.24-6.77,6.98-6.81s1.55,7.55,7.45,6.77ZM132.58,166.7c-2.49,2.57-6.31,2.32-8.6-.11-1.54-1.64-3.89-1.74-5.4-.4s-1.7,3.78-.18,5.44c5.39,5.88,14.51,5.88,19.89,0,1.52-1.66,1.37-4.06-.18-5.44s-3.86-1.23-5.54.5Z"/>
    <path class="st15" d="M116.97,78.74c.27,2.3,1.84,3.8,4.43,3.8h70.84c.41,5.49-.62,10.53-2.99,15.17-1.86,3.63-2.29,7.56-.89,11.45,2.61,7.24,4.03,14.64,3.95,22.41-3.94.54-7.04,2.17-9.89,4.62-3.77-1.77-6.71-4.15-9.51-6.98-4.34-4.09-10.02-5.93-16.1-5.01-18.89,2.85-37.5,2.86-56.46.07-4.9-.72-10.49,0-14.45,2.88.61-16,7.73-31.31,18.95-42.93.56-.58.94-.94,1.03-1.54,1.91.01,3.74-2.26,3.67-3.96h7.43Z"/>
    <path class="st4" d="M235.24,100.69c1.51,2.88,3.79,5.4,4.57,8.56-1.76.95-2.84,2.63-2,4.92,2.03,5.54,3.28,11.29,3.36,17.27-4.67.22-8.64,2.03-11.54,5.62-7.08,1.42-14.04,2.23-21.31,1.82-2.28-2.88-4.79-5.12-8.46-6.43.07-9.05-1.46-17.69-4.55-26.22-.53-1.46-.27-3.25.4-4.57,3.03-5.99,4.43-12.12,4.1-19.04,2.31.21,4.82-.71,7.01.11,9.07,3.38,16.68,9.31,22.69,16.81,1.35,1.69,3.9,2.45,5.74,1.15Z"/>
    <path class="st11" d="M52.93,127.2c-4.73-2.67-9.94-2.02-14,1.66-3.52,3.18-8.94,6.5-13.85,5.57-3.16-.6-5.78-3.6-9.61-2.96.87-21.77,14.31-40.72,34.48-48.91l26.1.1c-11.66,12.98-18.6,28.79-19.15,46.56-1.53-.37-2.71-1.3-3.97-2.01Z"/>
    <path class="st8" d="M81.56,190.22c-28.94,7.54-57.46-13.84-58.56-43.59-.27-7.32,8.01-.48,21.89-12.84,1.95-1.74,5.28.1,6.61,1.7-6.17,5.54-7.61,13.96-3.93,20.85s11.41,10.52,19.41,8.41c2.87,9.41,7.53,17.65,14.58,25.47Z"/>
    <path class="st12" d="M175.17,190.26c6.67-7.62,11.67-15.73,14.48-25.48,5.64,1.28,11.11.2,15.46-3.47,4.14-3.49,6.43-8.72,6-14.78,6.29-.1,11.94-.56,17.82-1.7,1.27-.25,2.47.14,3.22.76,1.01.84,1.54,2.04,1.39,3.57-2.81,28.25-30.21,48.13-58.37,41.1Z"/>
    <path class="st9" d="M105.87,82.69c-.09.6-.46.95-1.03,1.54-11.22,11.62-18.34,26.93-18.95,42.93-3.83,2.79-6.43,7.42-11.69,8.9-2.62-2.13-5.95-4.06-9.82-4.5-.05-19.03,8.37-36.85,22.89-49.01l18.59.14Z"/>
    <path class="st12" d="M88.29,155.64c-.78,1.22-1.07,2.94-1.28,4.53-.32,2.45,1.32,4.26,3.81,4.59,3.92,13.21,11.99,25.2,22.56,34.3.85.74,1.72,1.09,1.53,2.15-24.42-6.03-42-27.5-43-52.51-.08-1.89.49-3.58,2.3-4.26,4.29-1.62,7.96-4.04,11.53-6.59.37,5.97.58,12.14,2.55,17.78Z"/>
    <path class="st5" d="M142.85,247.79c5.28-10.07,2.44-13.14.62-23.05,6.78,1.57,12.5-1.28,15.84-6.65l3.14-5.05c5.45,5.42,9.67,11.66,12.03,18.93,2.19,6.76-2.59,13.5-9.49,14.37l-22.13,1.46Z"/>
    <path class="st5" d="M57.91,228.93c-6.33-.06-12.58-.4-18.97-1.31-5.45-.77-8.46-6.55-6.64-11.52,3.27-8.7,9.12-15.78,17.16-20.68l8.69,2.6-3.69,17.22c-.87,4.8.22,9.08,3.45,13.68Z"/>
    <path class="st14" d="M216.24,227.96c-6.1.4-11.66,1.11-17.59,1.03,3.7-4.75,4.51-9.78,3.36-15.05l-3.47-15.9,8.7-2.55c7.86,4.68,13.56,11.55,16.9,19.87,1.17,2.93,1.13,5.86-.63,8.56-1.42,2.17-3.95,3.83-7.25,4.05Z"/>
    <path class="st6" d="M106.92,225.16c-3.82,9.53-5.64,12.26-.96,22.27-4.81-.25-9.61-.46-14.64-1.17-6.94-.99-11.32-8.06-9.01-14.66,2.5-7.12,6.54-13.25,11.9-18.51,2.3,4.49,8.17,12.12,12.7,12.07Z"/>
    <path class="st14" d="M133.05,248.15l-9.27.02c-2.92-3.34-6.51-8.04-5.26-12.84,1.54-5.91,2.65-11.76,4.54-17.62,1-2.23,3.63-3.54,5.27-5.6,1.69,1.94,3.98,3.26,5.2,5.34,1.95,5.55,2.87,11.34,4.49,17.06,1.54,5.45-1.59,9.36-4.97,13.64Z"/>
    <path class="st13" d="M188.52,229.16c-2.56.23-4.68.24-7.06-.06-2.09-7.44-5.28-7.22-3.63-13.96l3.95-16.04,9.25-.02,3.84,17.57c.57,2.62-.17,5.29-1.85,7.25l-4.5,5.26Z"/>
    <path class="st14" d="M75.31,229.04c-2.36.52-4.55.29-6.92.21-3.56-4.18-7.82-7.07-6.5-13.12l3.7-16.93,9.34-.08,4.33,17.63c.98,3.99-2.78,7.45-3.95,12.29Z"/>
    <path class="st10" d="M67.15,140.25c-4.19,5.74-2.56,10.11-1.91,17.03-3.96,1.51-8.3-.3-10.56-3.63-2.42-3.56-2.01-8.31.67-11.35,2.97-3.37,7.69-4.32,11.81-2.04Z"/>
    <path class="st7" d="M191.51,157.39c.33-6.04,2.46-11.44-1.94-16.98,3.58-2.44,8.27-1.58,11.32,1.38s3.63,7.56,1.51,11.25c-2.12,3.69-6.47,5.68-10.88,4.35Z"/>
    <path class="st5" d="M105.96,247.43c-4.68-10.01-2.86-12.75.96-22.27l6.23-.07c-1.9,9.99-4.41,12.85.66,22.62-3.15.22-5.44-.2-7.84-.28Z"/>
    <path class="st1" d="M113.83,215.9c-2.75,2.7-6.93,2.3-9.13-.57-1.74-2.27-3.14-4.47-4.25-7.18.99-.79,2.48-2.36,3.82-2.22,5,1.77,9.77,3.25,15.27,4.02-1.67,2.23-3.61,3.88-5.71,5.95Z"/>
    <path class="st6" d="M152,215.34c-2.2,2.86-6.34,3.16-8.98.69-2.05-1.92-3.9-3.69-5.93-6.03,5.43-.86,10.27-2.22,15.34-4.09,1.35-.07,2.84,1.42,3.83,2.24-1.12,2.71-2.52,4.92-4.26,7.19Z"/>
    <path class="st7" d="M240.68,153.99c.16-5.73,1.62-8.53-3.22-13.89,3.09-1.86,6.54-1.31,9.04,1.04,2.09,1.96,3.05,5.31,1.62,8.48-1.13,2.49-3.87,4.7-7.43,4.37Z"/>
    <path class="st5" d="M95.96,201.83c-3.79,2.84-6.96,5.82-10.32,9.15l-3.23-13.12c2.05-.6,3.77-1.22,5.75-1.58l7.79,5.55Z"/>
    <path class="st14" d="M170.99,210.99c-3.39-3.45-6.33-6.34-10.27-9.05l7.79-5.66,5.78,1.61-3.3,13.1Z"/>
    <path class="st8" d="M17.64,139.32c-3.55,6.2-1.68,8.48-1.58,14.7-5.02.34-8.51-3.81-8.11-8.11.43-4.65,4.75-7.91,9.7-6.59Z"/>
    <path class="st0" d="M90.82,164.76c-2.49-.33-4.13-2.13-3.81-4.59.21-1.59.5-3.31,1.28-4.53,2.76-4.32,7.55-6.27,12.3-4.9,4.23,1.23,7.51,5.13,7.63,9.95.06,2.3-1.64,3.89-3.62,3.95-5.48.17-2.23-6.76-6.98-6.81s-1.25,6.1-6.8,6.93Z"/>
    <path class="st0" d="M166.54,164.61c-5.9.78-2.61-6.81-7.45-6.77s-1.5,6.98-6.98,6.81c-1.96-.06-3.69-1.65-3.62-3.96.17-5.91,4.96-10.36,10.6-10.37,5.64,0,10.45,4.43,10.63,10.35.07,2.16-1.44,3.71-3.18,3.94Z"/>
    <path class="st2" d="M132.58,166.7c1.68-1.74,3.99-1.88,5.54-.5s1.7,3.78.18,5.44c-5.39,5.88-14.5,5.88-19.89,0-1.52-1.66-1.38-4.06.18-5.44s3.85-1.24,5.4.4c2.29,2.43,6.11,2.68,8.6.11Z"/>
  </g>
</svg>