<?xml version="1.0" encoding="UTF-8"?>
<svg id="Layer_1" xmlns="http://www.w3.org/2000/svg" version="1.1" viewBox="0 0 255 255">
  <!-- Generator: Adobe Illustrator 30.1.0, SVG Export Plug-In . SVG Version: 2.1.1 Build 136)  -->
  <defs>
    <style>
      .st0 {
        fill: #4075fe;
      }
    </style>
  </defs>
  <path class="st0" d="M139.53.07C89.88-4.62,42.03,19.96,16.91,63.04c-25.11,43.09-22.91,96.84,5.63,137.73,28.55,40.89,78.25,61.48,127.35,52.75,63.05-11.21,108.11-67.28,105.49-131.26C252.77,58.29,203.28,6.08,139.53.07ZM149.77,244.22c-45.76,8.73-92.4-10.08-119.31-48.12C3.57,158.07,1.37,107.82,24.84,67.58,48.32,27.34,93.14,4.53,139.49,9.23c58.72,5.95,104.17,54.09,106.75,113.05,2.58,58.96-38.49,110.88-96.47,121.94Z"/>
  <path class="st0" d="M180.68,166.34h-13.75c-6.72-.01-12,4.91-12.26,11.58-.07,1.77-1.28,2.87-3.13,2.89l-6.31.09-20.02-.12c-1.1,0-2.01-.68-2.33-1.43-.25-.59-.58-1.85.02-2.72,4.57-6.56,7.87-13.62,12.12-20.55l13.64-22.2c2.41-3.92,2.64-8.43.19-12.46l-15.35-25.23-10.63-17.98c-.52-.88-.2-2.04.04-2.62.28-.68,1.27-1.41,2.3-1.42l11.37-.07,14.95.05c1.91,0,3.08,1.12,3.16,2.99.27,6.34,5.24,11.44,11.66,11.45l14.34.02c6.77.01,12.08-5.19,12.08-11.99v-28.59c0-6.59-4.95-11.96-11.54-11.94l-35.39.14-71.85-.17c-4.39-.01-8.04,2.42-9.91,5.54-2.24,3.75-2.57,8.19-.26,12.04l43.16,72.01c.77,1.29.77,2.36,0,3.65l-43.16,72.01c-2.29,3.82-2,8.23.26,12.02,1.78,3,5.41,5.55,9.75,5.56l59.43-.06,47.39.1c6.85.01,12.12-5.21,12.12-11.99v-28.6c0-6.81-5.31-12-12.09-12ZM183.62,206.96c0,1.19-.98,2.88-2.49,2.89l-47.86.15-59.32-.17c-1.06,0-1.76-.83-2.08-1.3-.35-.51-.67-1.76-.14-2.65l43.2-72.04c2.46-4.11,2.46-8.59,0-12.7l-43.2-72.03c-.58-.96-.18-1.96.15-2.72.28-.64,1.23-1.19,2.52-1.19l71.4-.23,34.87.13c1.72,0,2.95,1.38,2.95,2.94v28.62c0,1.43-1.01,2.77-2.45,2.77l-14.25.07c-1.68,0-3.01-.99-3.07-2.76-.22-6.17-4.8-11.37-11.16-11.65-5.56-.25-10.84.02-16.07.07-8.05.08-17.43-2.18-21.77,6.04-2.01,3.8-1.94,7.99.22,11.61l16.47,27.52c.26.44.7.56.93.68.23,3.36,10.29,14.94,8.58,17.83l-7.61,12.83-18.17,30.13c-2.39,3.96-2.45,8.52-.18,12.39,2.12,3.62,6.1,5.85,10.73,5.8l19.45-.19c1.72-.02,3.68.18,5.69.25,6.99.23,12.63-4.71,12.9-11.77.07-1.76,1.32-2.8,3.08-2.8h13.74c1.67.01,2.96,1.1,2.96,2.86v28.62Z"/>
</svg>