<?xml version="1.0" encoding="UTF-8"?>
<svg id="Layer_1" xmlns="http://www.w3.org/2000/svg" version="1.1" viewBox="0 0 256 256">
  <!-- Generator: Adobe Illustrator 30.1.0, SVG Export Plug-In . SVG Version: 2.1.1 Build 136)  -->
  <defs>
    <style>
      .st0 {
        fill: #00aeef;
      }

      .st1 {
        fill: #fff;
      }
    </style>
  </defs>
  <path class="st0" d="M256.33,167.69v11c0,9.6-5.34,18.13-11.45,25.49-1.6,1.92-3.43,2.81-4.94,4.33-6.91,6.9-16.16,10.33-25.73,11.51-3.9.49-7.69.09-11.41.09l-41.4-.1h-47.98s-38.12,0-38.12,0c-8.14,0-15.87.71-23.75-.01-14.54-1.35-27.11-7.97-36.84-18.69C4.68,190.26-.29,175.72.39,160.71c.6-13.29,6.46-25.04,15.49-33.87,7.87-7.69,17.28-13.83,28.02-15.65,1.52-.26,2.74-1.16,4.37-1.06.59-14.63,5.76-28.14,13.72-40.24.91-1.37,2.3-2.28,2.96-3.47,1.24-2.23,2.65-3.64,4.28-5.38,5.69-6.05,11.83-11.28,19.2-15.2,1.74-.92,3.23-2.27,5.09-2.11.35-.97,1.1-1.1,1.89-1.46,10.11-4.47,22.79-7.28,33.49-6.89,2.06.07,3.58-.04,5.53.15,40,3.85,72,34.04,74.77,74.75.36,5.28-.18,10.06-1.68,15.91,25.07-.57,45.06,17.22,48.81,41.48Z"/>
  <path class="st1" d="M95.61,114.57l1.73-3.31,22.35-22.82c.93-.95,1.91-1.44,2.97-2.51,2.38-2.42,7.79-3.15,10.54-.37l26.08,26.23c2.98,3,1.33,8.29-1.06,10.58-2.77,2.64-7.71,3.61-10.64.75l-10.85-10.59c-.39,2.9.05,5.54.05,8.11l-.18,55.41c0,2.34-.17,5.52-1.85,7.04-1.94,1.76-4.63,3.1-7.02,2.89-4.21-.37-7.91-3.67-7.95-8.06l-.31-33.38.07-32.09-11.03,10.95c-.7.69-1.9.49-2.4,1.22-3.4.33-5.97-.58-8.05-2.71-1.89-1.93-2.59-4.55-2.46-7.34Z"/>
</svg>