<?xml version="1.0" encoding="UTF-8"?>
<svg id="Layer_1" xmlns="http://www.w3.org/2000/svg" version="1.1" viewBox="0 0 256 256">
  <!-- Generator: Adobe Illustrator 30.1.0, SVG Export Plug-In . SVG Version: 2.1.1 Build 136)  -->
  <defs>
    <style>
      .st0 {
        fill: #b9b9bd;
      }

      .st1 {
        fill: #f8df1d;
      }

      .st2 {
        fill: #fd6947;
      }

      .st3 {
        fill: #f8e45b;
      }

      .st4 {
        fill: #dbdbdc;
      }

      .st5 {
        fill: #050503;
      }
    </style>
  </defs>
  <path class="st5" d="M48,0c10.07,2.95,11.88,9.82,11.45,20.01h27.02s.04-6.53.04-6.53c.04-6.6,4.73-11.22,10.49-13.47h6c10.1,3.04,12.05,9.7,11.52,20h26.95s.1-6.94.1-6.94c.09-6.56,4.99-11.23,10.93-13.06h6c5.73,1.73,10.84,6.21,10.93,12.54l.1,7.47h27.02c-.35-10.24,1.18-16.44,10.95-20h6c5.96,1.8,10.97,6.33,11,12.98l.03,6.98,10.39.14c11,.15,18.45,9.18,21.07,19.4v57c-1.14-.13-2.36.06-3.5-.06l-4-.41-.03-18.36H7.55s-.06,108.28-.06,108.28c-1.44.59-2.79-.11-3.91.58l-3.58-.05V39.5c2.65-10.25,10.01-19.24,21.08-19.39l10.38-.15.07-7.46c.06-6.35,4.97-10.34,10.47-12.5h6ZM39.22,28.06c-.19,2.36-.27,4.83-.05,7.44.28,3.32,3.19,5.5,6.09,5.53,3.39.03,6.35-2.48,6.31-5.99l-.07-7,.08-14.06c.02-3.72-2.83-6.44-6.33-6.42s-6.2,2.73-6.18,6.43l.14,14.07ZM94.26,28c-.13,4.53-1.3,12.35,5.54,13,3.31.32,6.41-1.9,6.78-5.38.27-2.55.32-5.05-.09-7.6.46-4.55.12-9.19.2-14.04.06-3.57-2.62-6.25-5.93-6.42s-6.52,2.35-6.53,6.04l.03,14.39ZM149.55,28.01c-.42,2.63-.55,5.6.05,8.43.67,3.13,3.72,4.84,6.6,4.56s5.63-2.7,5.6-6.02l-.07-6.99c-.04-4.81.25-9.67-.01-14.69-.18-3.55-3.31-5.88-6.46-5.73-3.34.16-5.98,2.83-5.96,6.42l.24,14.02ZM204.49,28.04c-.12,2.22-.14,4.51-.05,6.99.13,3.38,2.76,5.81,5.81,5.99,3.24.19,6.28-2.1,6.58-5.6.21-2.43.14-4.74-.05-7.36.3-4.58.09-9.22.14-14.07.03-3.7-2.84-6.42-6.18-6.43-3.5-.02-6.34,2.69-6.33,6.42l.08,14.06ZM169.34,34.82c-.16,8.07-6.67,13.96-14.13,13.75s-13.51-6.32-13.44-14.05c.02-2.35.08-4.46-.07-6.91h-27.41s-.08,7.42-.08,7.42c-.09,7.71-6.39,13.61-13.92,13.55s-13.43-5.91-13.63-13.57c-.06-2.54.16-4.86-.14-7.43l-27.32.02c-.09,2.06-.2,3.9-.08,5.91.49,8.09-5.45,14.79-13.35,15.06s-14.29-5.96-14.23-14.04c.02-2.36.06-4.53-.06-6.85l-7.53-.13c-9.15.03-16.45,7.2-16.45,16.45l.02,26.13h240.93s.02-26.13.02-26.13c0-9.25-7.29-16.43-16.44-16.45l-7.53.13-.08,7.36c-.08,7.46-6.08,13.25-13.2,13.53s-13.59-5.07-14.28-12.53c-.27-2.96.21-5.7-.26-8.46l-27.21.02c-.32,2.38-.09,4.55-.14,7.23Z"/>
  <path class="st5" d="M256,103.5v133c-2.51,10.06-9.44,16.99-19.5,19.5H91.5c-.06-1.19.36-2.54-.5-3.5.72-1.09.47-2.35.7-4.02l139.21.11c10.74,0,18.76-8.21,17.41-18.66l.23-125.9c1.46-.51,2.7-.19,3.96-.48,1.12-.26,2.36.09,3.5-.04Z"/>
  <path class="st5" d="M3.5,193.54l4.18.38v36.02c0,9.76,5.23,18.55,16.48,18.56h59.74c.3,1.56.17,2.75.17,3.95s-.16,2.38-.07,3.57H19.5c-10.06-2.51-16.99-9.44-19.5-19.5v-43c1.15.09,2.35-.07,3.5.04Z"/>
  <path class="st4" d="M252.5,96.44v7.1c-1.25.29-2.5-.03-3.96.48l-.23,125.9c-.41.04-.83.21-1.23.64-3.64,3.97-8.59,6.44-14.06,6.55-.42,0-.79-.17-.53-.48,5.5-5.49,8.11-12.97,5.4-20.67-2.41-6.87-8.92-12.25-16.88-12.51-3.21-.11-6.22-.12-9.55.03l-.17,33.58c-2.43.19-4.89.21-7.31-.04l-.12-33.8c-2.52-.17-4.81-.17-7.39,0l-.26,21.35-13.4-20.97c-2.09-.38-4.07-.33-6.41-.05l-.15,33.52c-2.34.18-4.7.18-7.04-.01-.14-1.07.05-2.18-.31-3.58l-12.94-.09c-.22-2.51-.25-4.84,0-7.42l13.04-.12c.12-2.51.17-4.78-.01-7.39l-13.03-.11c-.23-2.49-.24-4.82,0-7.4l13.05-.13c.12-2.5.18-4.75-.02-7.42l-20.63.02-.12,33.62c-2.52.24-5.09.21-7.62-.01-1.02-6.18-3.66-11.83-8.4-16.51,5.41-4.55,8.73-10.63,8.47-17.31l-7.31-.05c-.49,7.45-5.39,12.3-12.5,15.48l-.19-15.39c-2.5-.23-4.91-.22-7.42,0l-.21,33.75c-2.32.25-4.68.25-7.01,0-.11-1.08.04-2.21-.3-3.54l-13.02-.14-.02-7.33,13.15-.15c.15-2.52.18-4.82-.01-7.4l-12.98-.09c-.43-2.38-.13-4.74-.17-7.38l13.14-.15c.18-2.5.2-4.8,0-7.43l-20.59-.03-.21,33.64c-2.34.25-4.72.24-7.06,0l-.17-3.52-13.1-.15-.02-7.35,13.14-.15c.13-2.52.17-4.82-.03-7.39l-12.99-.09c-.37-2.38-.2-4.78-.09-7.41l13.09-.14c.16-2.5.19-4.79-.02-7.41l-20.59-.04-.18,33.64c-2.42.24-4.88.23-7.31.04l-.15-33.72c-2.39-.44-4.8-.19-7.41-.14l-.16,21.91-6.24-8.43c-1.15-.58-3.82-.46-5.06.05l-6.08,8.78-.11-22.34-7.41.02-.14,32.33c-3.73.09-7.06-4.71-9.25-5.61v-36.02s-4.19-.38-4.19-.38l.08-6.99c1.12-.69,2.47,0,3.91-.58l.06-108.28h240.92s.03,18.36.03,18.36l4,.41ZM236.96,87.17H19.04v107.7h217.93v-107.7Z"/>
  <path class="st2" d="M169.34,34.82c.05-2.68-.17-4.86.14-7.23l27.21-.02c.46,2.77-.02,5.5.26,8.46.68,7.46,7.04,12.81,14.28,12.53s13.12-6.06,13.2-13.53l.08-7.36,7.53-.13c9.15.02,16.45,7.2,16.44,16.45l-.02,26.13H7.53s-.02-26.13-.02-26.13c0-9.25,7.3-16.42,16.45-16.45l7.53.13c.11,2.33.08,4.49.06,6.85-.06,8.07,6.52,14.3,14.23,14.04s13.84-6.97,13.35-15.06c-.12-2.01,0-3.85.08-5.91l27.32-.02c.3,2.57.08,4.89.14,7.43.19,7.66,6.36,13.51,13.63,13.57s13.83-5.84,13.92-13.55l.08-7.42h27.41c.15,2.46.09,4.56.07,6.91-.07,7.72,5.92,13.84,13.44,14.05s13.97-5.68,14.13-13.75ZM49.09,55.07h-7.51v7.56h7.51v-7.56ZM104.22,55.07h-7.54v7.52h7.54v-7.52ZM159.32,62.44l-.08-7.23c-2.52-.19-4.9-.27-7.41.05-.04,2.55-.18,4.78.06,7.23,2.7.15,5,.23,7.42-.05ZM214.42,55.07h-7.51v7.54h7.51v-7.54Z"/>
  <path class="st4" d="M51.51,28.04c-4.02,2.23-8.27,2.26-12.29.02l-.14-14.07c-.02-3.7,2.83-6.42,6.18-6.43s6.35,2.7,6.33,6.42l-.08,14.06Z"/>
  <path class="st4" d="M216.78,28.06c-4.02,2.23-8.28,2.22-12.29-.02l-.08-14.06c0-3.72,2.83-6.44,6.33-6.42s6.21,2.73,6.18,6.43c-.04,4.84.16,9.49-.14,14.07Z"/>
  <path class="st4" d="M106.48,28.02c-3.92,2.36-8.26,2.21-12.23-.03l-.03-14.39c0-3.69,3.22-6.21,6.53-6.04s5.99,2.84,5.93,6.42c-.08,4.85.26,9.49-.2,14.04Z"/>
  <path class="st4" d="M161.74,27.99c-3.96,2.23-8.31,2.43-12.19.02l-.24-14.02c-.02-3.59,2.62-6.26,5.96-6.42,3.16-.15,6.28,2.19,6.46,5.73.26,5.02-.03,9.88.01,14.69Z"/>
  <path class="st0" d="M106.48,28.02c.41,2.55.36,5.05.09,7.6-.37,3.47-3.47,5.7-6.78,5.38-6.83-.66-5.67-8.48-5.54-13,3.97,2.24,8.3,2.39,12.23.03Z"/>
  <path class="st0" d="M161.74,27.99l.07,6.99c.03,3.31-2.61,5.73-5.6,6.02s-5.94-1.43-6.6-4.56c-.6-2.83-.47-5.8-.05-8.43,3.88,2.42,8.23,2.21,12.19-.02Z"/>
  <path class="st0" d="M51.51,28.04l.07,7c.03,3.52-2.92,6.03-6.31,5.99-2.9-.03-5.8-2.21-6.09-5.53-.22-2.61-.14-5.07.05-7.44,4.02,2.24,8.27,2.2,12.29-.02Z"/>
  <path class="st0" d="M216.78,28.06c.19,2.62.26,4.92.05,7.36-.3,3.49-3.34,5.79-6.58,5.6-3.05-.18-5.68-2.61-5.81-5.99-.09-2.48-.07-4.77.05-6.99,4.01,2.25,8.27,2.25,12.29.02Z"/>
  <path class="st0" d="M16.94,235.54l.15,5.32c2.25.22,4.02.16,6.35.01.36-1.45,1.91-2.18,2.62-3.53l14.34-.31c.56,1.02,2.03,2.71,2.9,3.49,1.71,1.17,4.21.13,6.12.4.31-1.42.14-2.39.29-3.84,2.43.19,4.88.21,7.31-.04,0,1.19.09,2.39.19,3.89h20.58s.19-3.89.19-3.89c2.34.24,4.72.24,7.06,0l.21,3.88,20.58.03.23-3.91c2.32.25,4.68.24,7.01,0l.27,4.11c2.55.16,4.78.19,7.32-.02l.27-4.1c3.87.26,7.78.27,11.65,0,.07,1.2,1.08,2.57.71,4.11,2.62.18,4.86.18,7.34,0,.23-1.35.04-2.52-.01-4.09,2.53.22,5.09.26,7.62.01,0,1.21-.04,2.46.32,3.91l20.39-.03.27-3.86c2.34.19,4.7.19,7.04.01,0,1.2.1,2.45.25,4,2.45.27,4.56.1,7.17.08.23-1.31.34-2.54.31-4.13.48.04,11.68.71,10.55-.57.76,1.32,2.16,3.04,3.07,4.25,2.05.68,4.22.11,6.19.17l.2-3.85c2.43.24,4.88.23,7.31.04,0,1.17.15,2.39.24,3.8,8.59.12,13.84,1.05,20.95-4.23-.26.31.11.49.53.48,5.47-.11,10.42-2.58,14.06-6.55.4-.44.83-.61,1.23-.64,1.36,10.45-6.66,18.67-17.41,18.66l-139.21-.11c-.23,1.67.02,2.93-.7,4.02l-6.93-.07c0-1.19.12-2.38-.17-3.93H24.16c-11.25-.02-16.47-8.81-16.48-18.57,2.19.9,5.53,5.7,9.25,5.61Z"/>
  <path class="st5" d="M236.96,87.17v107.7H19.04v-107.7h217.93ZM54.1,94.7h-27.55v17.53h27.55v-17.53ZM89.16,94.7h-27.54v17.53h27.54v-17.53ZM124.23,94.7h-27.55v17.53h27.55v-17.53ZM159.31,94.7h-27.55v17.53h27.55v-17.53ZM194.38,94.7h-27.54v17.53h27.54v-17.53ZM220.95,94.92l-18.97-.24.03,13.91,18.93-13.67ZM229.46,112.12l-.12-13.75-19.15,13.69,19.27.06ZM54.1,119.73h-27.55v17.54h27.55v-17.54ZM89.16,119.73h-27.54v17.54h27.54v-17.54ZM124.25,119.73h-27.57v17.54h27.57v-17.54ZM159.31,119.73h-27.57v17.54h27.57v-17.54ZM194.38,119.73h-27.54v17.54h27.54v-17.54ZM221.11,119.88l-19.19-.12.1,13.86,19.09-13.73ZM229.44,137.15l-.1-13.74-19.39,13.86,19.5-.12ZM54.1,144.78h-27.55v17.53h27.55v-17.53ZM89.16,144.78h-27.54v17.53h27.54v-17.53ZM124.23,144.78h-27.55v17.53h27.55v-17.53ZM159.31,144.78h-27.55v17.53h27.55v-17.53ZM194.38,144.78h-27.54v17.53h27.54v-17.53ZM220.84,145.12l-18.92-.33.2,13.82,18.71-13.49ZM229.45,162.17l-.11-13.71-19.37,13.83,19.48-.12ZM26.55,187.37h27.55v-17.53h-27.55v17.53ZM61.62,187.37h27.55v-17.53h-27.55v17.53ZM96.68,187.37h27.55v-17.53h-27.55v17.53ZM131.77,187.37h27.55v-17.53h-27.55v17.53ZM166.83,187.37h27.55v-17.53h-27.55v17.53ZM201.95,176.08c-.02,2.35-.22,4.7.09,7.55,3.7-2.36,6.85-4.88,10.33-7.43,2.81-2.07,5.86-3.72,8.8-6.25l-19.16-.08c-.27,2.25-.08,3.99-.06,6.22ZM225.98,176.06l-16.01,11.26,19.4.03c.14-3.8.16-7.33-.02-11.28-.03-.73.31-1.46-.13-2.35-1.15.58-2.17,1.28-3.24,2.35Z"/>
  <path class="st5" d="M49.72,237.08c-.15,1.46.02,2.43-.29,3.84-1.91-.27-4.41.77-6.12-.4-.87-.78-2.35-2.48-2.9-3.49-2.08-3.81-4.46-6.95-7.05-10.79-2.67,3.81-5.27,7.27-7.29,11.1-.71,1.35-2.26,2.08-2.62,3.53-2.33.15-4.09.2-6.35-.01l-.15-5.32.14-32.33,7.41-.02.11,22.34,6.08-8.78c1.24-.52,3.91-.64,5.06-.05l6.24,8.43.16-21.91c2.62-.05,5.02-.3,7.41.14l.15,33.72Z"/>
  <path class="st5" d="M203.98,237.04l-.2,3.85c-1.97-.06-4.14.51-6.19-.17-.91-1.21-2.31-2.93-3.07-4.25-3.33-5.79-6.71-11.02-10.46-16.64-.4,6.14-.18,11.64-.09,17.21.03,1.59-.08,2.82-.31,4.13-2.61.03-4.72.19-7.17-.08-.15-1.56-.26-2.8-.25-4l.15-33.52c2.33-.28,4.31-.33,6.41.05l13.4,20.97.26-21.35c2.58-.17,4.87-.17,7.39,0l.12,33.8Z"/>
  <path class="st5" d="M140.61,237.05c.05,1.57.24,2.74.01,4.09-2.48.18-4.72.18-7.34,0,.36-1.55-.64-2.92-.71-4.11-.29-5.05-3.31-9.11-6.91-12.16l-4.79,2.15c-.28,3.51.26,6.84.05,10.02l-.27,4.1c-2.54.2-4.77.18-7.32.02l-.27-4.11.21-33.75c2.51-.23,4.91-.23,7.42,0l.19,15.39c7.1-3.18,12-8.03,12.5-15.48l7.31.05c.26,6.68-3.06,12.75-8.47,17.31,4.74,4.67,7.38,10.33,8.4,16.51Z"/>
  <path class="st5" d="M232.49,236.65c-7.11,5.27-12.37,4.35-20.95,4.23-.09-1.4-.24-2.63-.24-3.8l.17-33.58c3.34-.15,6.34-.14,9.55-.03,7.96.27,14.47,5.64,16.88,12.51,2.7,7.7.1,15.18-5.4,20.67ZM219.03,233.44c7.35.47,12.6-5.17,12.39-11.68s-5.69-11.43-12.48-10.77l.09,22.45Z"/>
  <path class="st5" d="M106.05,237.04l-.23,3.91-20.58-.03-.21-3.88.21-33.64,20.59.03c.21,2.62.19,4.93,0,7.43l-13.14.15c.03,2.64-.27,5,.17,7.38l12.98.09c.19,2.58.17,4.88.01,7.4l-13.15.15.02,7.33,13.02.14c.33,1.34.19,2.46.3,3.54Z"/>
  <path class="st5" d="M77.98,237.04l-.19,3.9h-20.58c-.1-1.51-.2-2.71-.19-3.9l.18-33.64,20.59.04c.21,2.62.18,4.91.02,7.41l-13.09.14c-.11,2.63-.28,5.03.09,7.41l12.99.09c.2,2.57.16,4.87.03,7.39l-13.14.15.02,7.35,13.1.15.17,3.52Z"/>
  <path class="st5" d="M169.2,237.08l-.27,3.86-20.39.03c-.37-1.45-.33-2.7-.32-3.91l.12-33.62,20.63-.02c.2,2.67.14,4.92.02,7.42l-13.05.13c-.24,2.58-.22,4.92,0,7.4l13.03.11c.18,2.61.13,4.88.01,7.39l-13.04.12c-.25,2.57-.22,4.91,0,7.42l12.94.09c.36,1.4.17,2.51.31,3.58Z"/>
  <path class="st4" d="M159.32,62.44c-2.42.28-4.73.2-7.42.05-.25-2.45-.11-4.68-.06-7.23,2.51-.32,4.89-.25,7.41-.05l.08,7.23Z"/>
  <rect class="st4" x="96.68" y="55.07" width="7.54" height="7.52"/>
  <rect class="st4" x="206.91" y="55.07" width="7.51" height="7.54"/>
  <rect class="st4" x="41.58" y="55.07" width="7.51" height="7.56"/>
  <path class="st4" d="M132.57,237.02c-3.87.27-7.78.27-11.65,0,.21-3.18-.33-6.51-.05-10.02l4.79-2.15c3.59,3.05,6.61,7.11,6.91,12.16Z"/>
  <path class="st4" d="M194.52,236.47c1.13,1.28-10.07.61-10.55.57-.09-5.57-.31-11.07.09-17.21,3.75,5.62,7.13,10.85,10.46,16.64Z"/>
  <path class="st4" d="M40.4,237.03l-14.34.31c2.02-3.82,4.62-7.29,7.29-11.1,2.59,3.84,4.97,6.98,7.05,10.79Z"/>
  <rect class="st3" x="131.75" y="119.73" width="27.57" height="17.54"/>
  <rect class="st3" x="96.69" y="119.73" width="27.57" height="17.54"/>
  <rect class="st3" x="26.55" y="119.73" width="27.55" height="17.54"/>
  <rect class="st3" x="61.62" y="119.73" width="27.54" height="17.54"/>
  <rect class="st3" x="166.84" y="119.73" width="27.54" height="17.54"/>
  <rect class="st3" x="26.55" y="94.7" width="27.55" height="17.53"/>
  <rect class="st3" x="61.62" y="94.7" width="27.54" height="17.53"/>
  <rect class="st3" x="26.55" y="144.78" width="27.55" height="17.53"/>
  <rect class="st3" x="96.69" y="144.78" width="27.55" height="17.53"/>
  <rect class="st3" x="61.62" y="144.78" width="27.54" height="17.53"/>
  <rect class="st3" x="166.84" y="144.78" width="27.54" height="17.53"/>
  <rect class="st3" x="166.84" y="94.7" width="27.54" height="17.53"/>
  <rect class="st3" x="131.77" y="94.7" width="27.55" height="17.53"/>
  <rect class="st3" x="96.69" y="94.7" width="27.55" height="17.53"/>
  <rect class="st3" x="131.77" y="144.78" width="27.55" height="17.53"/>
  <polygon class="st1" points="194.38 176.07 194.38 187.37 166.83 187.37 166.83 176.06 194.38 176.07"/>
  <polygon class="st1" points="54.1 176.08 54.1 187.37 26.55 187.37 26.55 176.06 54.1 176.08"/>
  <polygon class="st1" points="89.17 176.06 89.17 187.37 61.62 187.37 61.62 176.07 89.17 176.06"/>
  <rect class="st1" x="131.77" y="176.04" width="27.55" height="11.33"/>
  <rect class="st1" x="96.68" y="176.04" width="27.55" height="11.33"/>
  <polygon class="st3" points="89.17 176.06 61.62 176.07 61.62 169.84 89.17 169.84 89.17 176.06"/>
  <rect class="st3" x="131.77" y="169.84" width="27.55" height="6.2"/>
  <polygon class="st3" points="194.38 176.07 166.83 176.06 166.83 169.84 194.38 169.84 194.38 176.07"/>
  <rect class="st3" x="96.68" y="169.84" width="27.55" height="6.2"/>
  <polygon class="st3" points="54.1 176.08 26.55 176.06 26.55 169.84 54.1 169.84 54.1 176.08"/>
  <polygon class="st3" points="229.44 137.15 209.95 137.27 229.34 123.4 229.44 137.15"/>
  <polygon class="st3" points="229.45 162.17 209.97 162.28 229.34 148.46 229.45 162.17"/>
  <polygon class="st3" points="221.11 119.88 202.02 133.61 201.92 119.76 221.11 119.88"/>
  <polygon class="st3" points="220.95 94.92 202.01 108.59 201.98 94.67 220.95 94.92"/>
  <path class="st1" d="M229.34,176.06c.18,3.96.16,7.48.02,11.28l-19.4-.03,16.01-11.26h3.36Z"/>
  <polygon class="st3" points="229.46 112.12 210.19 112.05 229.34 98.37 229.46 112.12"/>
  <polygon class="st3" points="220.84 145.12 202.13 158.61 201.92 144.78 220.84 145.12"/>
  <path class="st3" d="M212.37,176.2l-10.41-.11c-.01-2.22-.21-3.97.06-6.22l19.16.08c-2.94,2.54-5.99,4.18-8.8,6.25Z"/>
  <path class="st1" d="M212.37,176.2c-3.48,2.56-6.63,5.08-10.33,7.43-.31-2.84-.11-5.2-.09-7.55l10.41.11Z"/>
  <path class="st3" d="M229.34,176.06h-3.36c1.07-1.07,2.09-1.78,3.24-2.35.43.89.09,1.63.13,2.35Z"/>
  <path class="st4" d="M219.03,233.44l-.09-22.45c6.78-.66,12.26,4.44,12.48,10.77s-5.04,12.15-12.39,11.68Z"/>
</svg>